<?xml version="1.0" encoding="UTF-8" standalone="no"?>
<!-- Created with Inkscape (http://www.inkscape.org/) -->

<svg
   width="1000"
   height="1000"
   viewBox="0 0 264.58332 264.58334"
   version="1.1"
   id="svg5"
   inkscape:version="1.1.2 (b8e25be833, 2022-02-05)"
   sodipodi:docname="cistella.svg"
   xmlns:inkscape="http://www.inkscape.org/namespaces/inkscape"
   xmlns:sodipodi="http://sodipodi.sourceforge.net/DTD/sodipodi-0.dtd"
   xmlns="http://www.w3.org/2000/svg"
   xmlns:svg="http://www.w3.org/2000/svg">
  <sodipodi:namedview
     id="namedview7"
     pagecolor="#ffffff"
     bordercolor="#666666"
     borderopacity="1.0"
     inkscape:pageshadow="2"
     inkscape:pageopacity="0.0"
     inkscape:pagecheckerboard="0"
     inkscape:document-units="mm"
     showgrid="false"
     units="px"
     inkscape:zoom="0.7198092"
     inkscape:cx="396.63288"
     inkscape:cy="482.76682"
     inkscape:window-width="1920"
     inkscape:window-height="1001"
     inkscape:window-x="-9"
     inkscape:window-y="-9"
     inkscape:window-maximized="1"
     inkscape:current-layer="layer1" />
  <defs
     id="defs2" />
  <g
     inkscape:label="Capa 1"
     inkscape:groupmode="layer"
     id="layer1">
    <g
       id="g3739"
       transform="translate(-0.18333478,13.922107)">
      <path
         style="fill:#e9f1f1;stroke-width:0.492772"
         d="m 121.27609,218.9953 c 0.0237,-0.57405 0.14041,-0.69082 0.29772,-0.29772 0.14234,0.35572 0.12484,0.78074 -0.0389,0.94448 -0.16375,0.16375 -0.28021,-0.1273 -0.25882,-0.64676 z"
         id="path3805" />
      <path
         style="fill:#d4f0f2;stroke-width:0.492772"
         d="m 164.81862,146.5989 c 2.3e-4,-7.85971 0.0683,-11.00604 0.15119,-6.99185 0.0829,4.01419 0.0827,10.44486 -4.2e-4,14.29038 -0.0832,3.84552 -0.15101,0.56118 -0.15077,-7.29853 z m 0.003,-49.277184 c -1.8e-4,-8.943809 0.0664,-12.67216 0.148,-8.285224 0.0816,4.386935 0.0817,11.704598 3.4e-4,16.261468 -0.0814,4.55688 -0.14815,0.96757 -0.14834,-7.976244 z"
         id="path3803" />
      <path
         style="fill:#d2f0f2;stroke-width:0.492772"
         d="m 233.49678,66.186858 c 0.35572,-0.142347 0.78074,-0.124844 0.94448,0.03888 0.16374,0.163748 -0.1273,0.28021 -0.64676,0.258814 -0.57406,-0.02365 -0.69082,-0.14041 -0.29772,-0.297713 z m 3.17899,-0.017 c 0.74905,-0.113268 1.85778,-0.110238 2.46386,0.0067 0.60608,0.116964 -0.007,0.209635 -1.3619,0.205939 -1.35512,-0.0039 -1.851,-0.0994 -1.10196,-0.212666 z M 110.52618,65.677085 c 0.74904,-0.113268 1.85778,-0.110238 2.46386,0.0067 0.60608,0.116964 -0.007,0.209635 -1.3619,0.205939 -1.35512,-0.0039 -1.85101,-0.0994 -1.10196,-0.212665 z m 4.21258,0.017 c 0.35572,-0.142347 0.78073,-0.124844 0.94448,0.03888 0.16375,0.163748 -0.1273,0.280209 -0.64676,0.258813 -0.57406,-0.02365 -0.69082,-0.14041 -0.29772,-0.297713 z"
         id="path3801" />
      <path
         style="fill:#c9ebee;stroke-width:0.492772"
         d="m 98.224301,161.75396 c 2.384779,-0.0905 6.154479,-0.0901 8.377119,9.9e-4 2.22265,0.0911 0.27147,0.16515 -4.33595,0.16459 -4.607413,-4.9e-4 -6.425939,-0.0751 -4.041169,-0.16562 z m 35.948149,-4.6e-4 c 2.91351,-0.0871 7.68108,-0.0871 10.5946,0 2.91351,0.0871 0.52973,0.15841 -5.2973,0.15841 -5.82703,0 -8.21081,-0.0713 -5.2973,-0.15841 z m 73.66939,0.002 c 1.96493,-0.0935 5.18027,-0.0935 7.1452,0 1.96492,0.0935 0.35725,0.17007 -3.5726,0.17007 -3.92986,0 -5.53752,-0.0765 -3.5726,-0.17007 z M 226.0744,66.16281 c 1.15186,-0.103743 3.03671,-0.103743 4.18856,0 1.15186,0.103749 0.20943,0.188633 -2.09428,0.188633 -2.30371,0 -3.24613,-0.08488 -2.09428,-0.188633 z M 103.12782,65.671882 c 1.01635,-0.106311 2.67945,-0.106311 3.69579,0 1.01635,0.106315 0.18479,0.193294 -1.84789,0.193294 -2.03269,0 -2.86424,-0.08698 -1.8479,-0.193294 z"
         id="path3799" />
      <path
         style="fill:#c4ecf0;stroke-width:0.492772"
         d="m 201.95938,230.27989 c 0.35572,-0.14235 0.78074,-0.12485 0.94448,0.0389 0.16374,0.16374 -0.1273,0.28021 -0.64676,0.25881 -0.57406,-0.0237 -0.69082,-0.14041 -0.29772,-0.29771 z m -4.83532,-1.88086 c -0.91839,-0.67756 -1.4604,-1.22396 -1.20448,-1.21421 0.49465,0.0188 3.61313,2.43954 3.14811,2.44369 -0.15062,0.001 -1.02525,-0.55192 -1.94363,-1.22948 z m 11.82652,1.05955 c 0,-0.11387 0.58167,-0.58817 1.2926,-1.05399 0.71093,-0.46582 1.14208,-0.60339 0.9581,-0.30571 -0.35157,0.56885 -2.2507,1.71616 -2.2507,1.3597 z m -14.35324,-3.6466 c -0.61295,-0.78157 -0.59552,-0.799 0.18605,-0.18605 0.82083,0.64374 1.08187,1.0484 0.6763,1.0484 -0.10232,0 -0.49038,-0.38806 -0.86235,-0.86235 z m 17.80264,0.6763 c 0,-0.10233 0.38806,-0.49038 0.86235,-0.86235 0.78157,-0.61295 0.799,-0.59552 0.18605,0.18605 -0.64374,0.82083 -1.0484,1.08187 -1.0484,0.6763 z m -18.72533,-12.43427 c 0,-0.28618 0.72068,-1.29085 1.60151,-2.23261 0.88083,-0.94176 1.24807,-1.2559 0.8161,-0.69807 -0.43198,0.55782 -1.15266,1.5625 -1.60151,2.23261 -0.44885,0.67011 -0.8161,0.98424 -0.8161,0.69807 z m 18.76625,-2.11152 c -0.92608,-1.24783 -1.30379,-1.95587 -0.83935,-1.5734 1.00924,0.8311 2.95087,3.48894 2.70008,3.69606 -0.0973,0.0804 -0.93465,-0.87482 -1.86073,-2.12266 z m -14.11392,-2.73438 c 0.52609,-0.42149 1.17285,-0.76634 1.43725,-0.76634 0.62608,0 0.34653,0.22761 -1.16186,0.94598 -1.1616,0.55321 -1.17732,0.54295 -0.27539,-0.17964 z m 10.6236,-0.0272 c -0.67756,-0.38733 -0.99713,-0.7121 -0.71015,-0.7217 0.28698,-0.01 0.95222,0.30811 1.47832,0.70603 1.21664,0.92022 0.82804,0.92815 -0.76817,0.0157 z"
         id="path3797" />
      <path
         style="fill:#c3ecf0;stroke-width:0.492772"
         d="m 108.33273,230.27989 c 0.35571,-0.14235 0.78073,-0.12485 0.94448,0.0389 0.16374,0.16374 -0.1273,0.28021 -0.64677,0.25881 -0.57405,-0.0237 -0.69081,-0.14041 -0.29771,-0.29771 z m 3.94217,0 c 0.35572,-0.14235 0.78073,-0.12485 0.94448,0.0389 0.16375,0.16374 -0.1273,0.28021 -0.64676,0.25881 -0.57405,-0.0237 -0.69082,-0.14041 -0.29772,-0.29771 z m -7.54208,-1.13606 c -0.17264,-0.27933 0.0252,-0.36194 0.46369,-0.19366 0.85369,0.32759 1.00988,0.68079 0.30106,0.68079 -0.25503,0 -0.59917,-0.21921 -0.76475,-0.48713 z m 11.82304,-0.32228 c 0.27102,-0.24051 1.15642,-0.98833 1.96756,-1.66183 1.42284,-1.18141 1.44039,-1.18389 0.49828,-0.0702 -0.53707,0.63491 -1.42248,1.38273 -1.96756,1.66183 -0.54508,0.27909 -0.76931,0.31067 -0.49828,0.0702 z m -14.32139,-1.77764 -1.44731,-1.60151 1.60151,1.44731 c 1.49283,1.3491 1.82801,1.75571 1.44731,1.75571 -0.0848,0 -0.80548,-0.72068 -1.60151,-1.60151 z m 18.05674,-2.34067 c 0.71837,-1.50839 0.94598,-1.78794 0.94598,-1.16186 0,0.2644 -0.34485,0.91116 -0.76634,1.43726 -0.72259,0.90192 -0.73285,0.8862 -0.17964,-0.2754 z m -21.094542,-5.42049 c 0,-1.21961 0.0961,-1.71854 0.213552,-1.10874 0.117457,0.60981 0.117457,1.60767 0,2.21748 -0.117452,0.6098 -0.213552,0.11087 -0.213552,-1.10874 z m 0.851332,-4.76322 c 0,-0.25619 0.55437,-1.2172 1.23193,-2.13559 0.67756,-0.91838 1.23193,-1.52568 1.23193,-1.34955 0,0.17614 -0.55437,1.13715 -1.23193,2.13559 -0.67756,0.99844 -1.23193,1.60574 -1.23193,1.34955 z m 18.13047,-3.17169 c -1.27577,-1.32731 -2.22591,-2.4133 -2.11143,-2.4133 0.44828,0 3.75713,3.14342 4.22078,4.00975 0.67479,1.26087 0.53606,1.15587 -2.10935,-1.59645 z m -15.17384,-0.62826 c 0,-0.10233 0.38806,-0.49038 0.86235,-0.86235 0.78157,-0.61295 0.799,-0.59552 0.18605,0.18605 -0.64374,0.82083 -1.0484,1.08187 -1.0484,0.6763 z"
         id="path3795" />
      <path
         style="fill:#c5e9ec;stroke-width:0.492772"
         d="m 170.17158,161.75323 c 2.92824,-0.0873 7.58494,-0.0869 10.34821,5e-4 2.76327,0.0877 0.36743,0.15907 -5.32408,0.15867 -5.69152,-4.1e-4 -7.95237,-0.0721 -5.02413,-0.1594 z m -1.25871,-80.80307 c 0.88083,-0.109307 2.32218,-0.109307 3.20301,0 0.88083,0.109311 0.16015,0.198749 -1.6015,0.198749 -1.76166,0 -2.48234,-0.08944 -1.60151,-0.198749 z"
         id="path3793" />
      <path
         style="fill:#c1e6e9;stroke-width:0.492772"
         d="m 83.694134,208.10515 c 0.355717,-0.14234 0.780733,-0.12484 0.944481,0.0389 0.163743,0.16374 -0.127303,0.28021 -0.646763,0.25882 -0.574054,-0.0237 -0.690817,-0.14042 -0.297718,-0.29772 z m 44.811436,-94.15126 c 3.8621,-0.0833 10.1819,-0.0833 14.044,0 3.8621,0.0833 0.7022,0.15138 -7.022,0.15138 -7.7242,0 -10.88409,-0.0681 -7.022,-0.15138 z"
         id="path3791" />
      <path
         style="fill:#bee6e9;stroke-width:0.492772"
         d="m 77.99646,208.0828 c 1.016341,-0.10631 2.679447,-0.10631 3.695788,0 1.016342,0.10632 0.18479,0.19329 -1.847894,0.19329 -2.032684,0 -2.864236,-0.087 -1.847894,-0.19329 z m 7.145191,0.0326 c 0.338781,-0.1367 0.893149,-0.1367 1.23193,0 0.338781,0.1367 0.0616,0.24855 -0.615965,0.24855 -0.677561,0 -0.954745,-0.11185 -0.615965,-0.24855 z m 61.350099,-0.0427 c 5.62376,-0.0791 14.82627,-0.0791 20.45003,0 5.62376,0.0791 1.0225,0.14375 -10.22502,0.14375 -11.24751,0 -15.84877,-0.0647 -10.22501,-0.14375 z m 31.81458,0.0324 c 0.35572,-0.14234 0.78074,-0.12484 0.94448,0.0389 0.16374,0.16375 -0.1273,0.28021 -0.64676,0.25882 -0.57406,-0.0237 -0.69082,-0.14041 -0.29772,-0.29772 z m 35.94155,-94.15088 c 3.32005,-0.0853 8.75286,-0.0853 12.07291,0 3.32005,0.0853 0.60364,0.15501 -6.03646,0.15501 -6.6401,0 -9.3565,-0.0697 -6.03645,-0.15501 z"
         id="path3789" />
      <path
         style="fill:#cbdfe1;stroke-width:0.492772"
         d="m 110.30381,208.10515 c 0.35572,-0.14234 0.78074,-0.12484 0.94449,0.0389 0.16374,0.16374 -0.12731,0.28021 -0.64677,0.25882 -0.57405,-0.0237 -0.69081,-0.14042 -0.29772,-0.29772 z"
         id="path3787" />
      <path
         style="fill:#bee4e8;stroke-width:0.492772"
         d="m 134.94241,208.10515 c 0.35571,-0.14234 0.78073,-0.12484 0.94448,0.0389 0.16374,0.16374 -0.1273,0.28021 -0.64676,0.25882 -0.57406,-0.0237 -0.69082,-0.14042 -0.29772,-0.29772 z m -49.52423,-94.1515 c 4.014194,-0.0829 10.444866,-0.0827 14.290384,4.2e-4 3.845526,0.0832 0.561186,0.15101 -7.298528,0.15077 -7.859711,-2.3e-4 -11.006044,-0.0683 -6.991856,-0.15119 z M 216.70075,66.167827 c 0.87478,-0.108858 2.42701,-0.110647 3.4494,-0.0039 1.02238,0.106675 0.30665,0.195738 -1.59052,0.197926 -1.89717,0.002 -2.73367,-0.08509 -1.85888,-0.19395 z M 94.997089,65.682939 c 0.609805,-0.117457 1.607668,-0.117457 2.217473,0 0.609805,0.117453 0.110874,0.213553 -1.108737,0.213553 -1.21961,0 -1.718542,-0.0961 -1.108736,-0.213553 z m 3.942174,0.02144 c 0.338781,-0.1367 0.893149,-0.1367 1.231927,0 0.33878,0.1367 0.0616,0.248549 -0.615962,0.248549 -0.677561,0 -0.954745,-0.111849 -0.615965,-0.248549 z"
         id="path3785" />
      <path
         style="fill:#b8dee2;stroke-width:0.492772"
         d="m 171.8695,113.95389 c 3.8621,-0.0833 10.1819,-0.0833 14.044,0 3.8621,0.0833 0.7022,0.15138 -7.022,0.15138 -7.7242,0 -10.8841,-0.0681 -7.022,-0.15138 z"
         id="path3783" />
      <path
         style="fill:#b5dee1;stroke-width:0.492772"
         d="m 175.80068,80.950983 c 0.87479,-0.108859 2.42702,-0.110647 3.44941,-0.0039 1.02238,0.106676 0.30665,0.195739 -1.59052,0.197927 -1.89717,0.002 -2.73367,-0.08509 -1.85889,-0.19395 z"
         id="path3781" />
      <path
         style="fill:#b2dee2;stroke-width:0.492772"
         d="m 209.81293,66.167004 c 0.88083,-0.109307 2.32219,-0.109307 3.20302,0 0.88083,0.109311 0.16015,0.19875 -1.60151,0.19875 -1.76166,0 -2.48234,-0.08944 -1.60151,-0.19875 z M 87.112739,65.682939 c 0.609805,-0.117457 1.607668,-0.117457 2.217473,0 0.609805,0.117453 0.110874,0.213553 -1.108736,0.213553 -1.219611,0 -1.718542,-0.0961 -1.108737,-0.213553 z m 3.972973,0.01114 c 0.355717,-0.142347 0.780733,-0.124844 0.944481,0.03888 0.163743,0.163748 -0.127303,0.280209 -0.646763,0.258813 -0.574055,-0.02365 -0.690817,-0.14041 -0.297718,-0.297713 z"
         id="path3779" />
      <path
         style="fill:#bbd8da;stroke-width:0.492772"
         d="m 214.90275,218.9953 c 0.0237,-0.57405 0.14041,-0.69082 0.29771,-0.29772 0.14235,0.35572 0.12484,0.78074 -0.0389,0.94448 -0.16374,0.16375 -0.28021,-0.1273 -0.25881,-0.64676 z"
         id="path3777" />
      <path
         style="fill:#b4d6d9;stroke-width:0.492772"
         d="m 117.78779,227.47382 c 0,-0.10232 0.38805,-0.49038 0.86235,-0.86235 0.78156,-0.61294 0.79899,-0.59551 0.18605,0.18605 -0.64374,0.82084 -1.0484,1.08187 -1.0484,0.6763 z"
         id="path3775" />
      <path
         style="fill:#a9dade;stroke-width:0.492772"
         d="m 177.94486,218.9953 c 0.0237,-0.57405 0.14041,-0.69082 0.29771,-0.29772 0.14235,0.35572 0.12484,0.78074 -0.0389,0.94448 -0.16374,0.16375 -0.28021,-0.1273 -0.25881,-0.64676 z M 70.851268,80.457388 c 0.880829,-0.109307 2.322187,-0.109307 3.203017,0 0.880829,0.109311 0.160151,0.198749 -1.601509,0.198749 -1.761659,0 -2.482338,-0.08944 -1.601508,-0.198749 z M 199.95749,66.162663 c 1.15186,-0.103744 3.03671,-0.103744 4.18856,0 1.15186,0.103748 0.20943,0.188633 -2.09428,0.188633 -2.3037,0 -3.24613,-0.08488 -2.09428,-0.188633 z M 79.474775,65.671734 c 1.016342,-0.106311 2.679447,-0.106311 3.695789,0 1.016342,0.106315 0.184789,0.193294 -1.847894,0.193294 -2.032684,0 -2.864237,-0.08698 -1.847895,-0.193294 z"
         id="path3773" />
      <path
         style="fill:#9edde2;stroke-width:0.492772"
         d="m 17.908438,19.834225 c 4.014191,-0.08292 10.444864,-0.08273 14.290384,4.25e-4 3.845519,0.08316 0.561181,0.151002 -7.29853,0.150768 -7.859711,-2.34e-4 -11.006045,-0.06827 -6.991854,-0.151193 z"
         id="path3771" />
      <path
         style="fill:#aad6da;stroke-width:0.492772"
         d="m 184.20182,80.945183 c 1.15902,-0.104094 2.933,-0.10263 3.94217,0.0034 1.00918,0.105882 0.0609,0.191053 -2.1073,0.189264 -2.1682,-0.002 -2.99389,-0.08842 -1.83487,-0.192521 z"
         id="path3769" />
      <path
         style="fill:#91dde4;stroke-width:0.492772"
         d="m 104.61705,244.23204 c -8.793938,-2.2442 -15.706325,-8.74652 -18.664996,-17.55771 -1.621052,-4.82764 -1.136204,-12.75235 1.107968,-18.10937 0.19871,-0.47434 -1.208823,-0.61596 -6.121803,-0.61596 -7.773215,0 -10.750626,-0.51464 -14.811012,-2.56004 -4.348086,-2.19032 -7.960296,-5.90535 -10.253533,-10.54541 -1.734227,-3.50897 -1.894915,-4.19282 -2.062639,-8.77802 -0.151143,-4.13185 -4.93e-4,-5.50966 0.890576,-8.14903 2.745158,-8.13049 9.288607,-13.84562 17.627972,-15.39648 1.759289,-0.32718 3.079824,-0.82763 3.079824,-1.16718 0,-0.42775 -27.11133,-101.211165 -28.823619,-107.148661 -0.11724,-0.406537 -0.5289,-1.958768 -0.914799,-3.449403 C 41.882185,36.119588 41.683546,35.559161 40.067186,34.944622 39.414306,34.696397 31.875191,34.493304 23.313598,34.493304 H 7.7470653 L 5.9006816,32.552352 C 3.374951,29.897258 2.9604078,27.401878 4.5278122,24.288243 6.621294,20.129559 6.5288328,20.146399 26.378608,20.308479 l 17.247015,0.140828 2.844955,1.396357 c 2.849307,1.398492 6.115166,4.421013 7.838008,7.254 1.016539,1.671568 2.449308,6.351317 5.34761,17.466551 1.060046,4.065368 2.654389,10.052546 3.542985,13.30484 l 1.615631,5.913262 27.348838,0.132807 c 15.04186,0.07304 55.51075,0.308461 89.93086,0.523142 70.43303,0.439301 64.17314,0.04612 68.73961,4.317519 3.01463,2.819833 4.58878,6.336878 4.61117,10.30246 0.0224,3.965 -17.89289,81.598455 -19.70004,85.367515 -1.60761,3.35288 -4.90047,6.6085 -8.44413,8.34863 l -2.82823,1.38882 -75.1477,0.24639 c -74.697018,0.24491 -75.158046,0.25246 -76.870738,1.25857 -2.07897,1.22128 -3.804593,3.65767 -4.241997,5.98922 -0.724163,3.86013 2.14233,8.38519 5.988144,9.45291 1.374695,0.38166 24.106729,0.54163 77.243341,0.54356 65.50997,0.002 75.47866,0.0975 76.7057,0.73207 4.63205,2.39532 5.23758,8.89063 1.11188,11.92668 -1.0076,0.74148 -1.88462,1.37278 -1.94895,1.40289 -0.0643,0.0301 0.35774,1.36958 0.93793,2.97657 1.43513,3.97501 1.75349,10.37425 0.71734,14.41878 -2.45668,9.58935 -9.73741,16.83293 -19.14985,19.05213 -13.86264,3.26845 -28.04689,-5.83713 -30.96126,-19.87559 -0.76803,-3.69957 -0.34111,-10.03297 0.91046,-13.50695 l 1.0208,-2.83344 h -23.42684 -23.42684 l 0.349,1.10873 c 2.74332,8.71524 2.42313,15.34919 -1.07393,22.2503 -1.50731,2.97455 -5.84048,7.61924 -8.9992,9.64619 -5.1689,3.31687 -13.78912,4.75899 -19.59313,3.27782 z m 11.23143,-14.97066 c 3.85556,-1.95511 5.54809,-4.5741 5.79644,-8.96933 0.22783,-4.03192 -0.45558,-6.38153 -2.54995,-8.76688 -2.11178,-2.40519 -4.84481,-3.55453 -8.45238,-3.55453 -5.39204,0 -9.50225,2.93832 -10.916809,7.80425 -2.893921,9.95474 6.911869,18.15719 16.122699,13.48649 z m 93.38099,0.23379 c 8.14364,-4.21123 8.17916,-16.58543 0.0589,-20.51638 -2.89827,-1.40303 -7.63274,-1.40303 -10.53102,0 -8.6506,4.18769 -7.90482,17.57257 1.16752,20.95401 2.3024,0.85814 7.24874,0.62551 9.3046,-0.43763 z m -96.11449,-68.97546 c -0.32573,-1.84652 -4.19709,-30.90991 -4.19709,-31.5088 0,-0.219 -6.09805,-0.39818 -13.551223,-0.39818 -7.453174,0 -13.551226,0.0796 -13.551226,0.17681 0,0.0972 1.875485,7.13771 4.167742,15.6455 3.570733,13.25288 4.351126,15.62752 5.447967,16.57744 1.240031,1.07392 1.604992,1.10874 11.62329,1.10874 h 10.34306 z m 36.94936,-15.15274 v -16.50786 l -13.18164,-0.13124 c -12.31731,-0.12263 -13.1825,-0.0742 -13.19455,0.73916 -0.007,0.47872 0.92661,8.0258 2.07488,16.77128 l 2.08778,15.90088 11.10677,-0.13218 11.10676,-0.13218 z m 36.7361,16.13828 c 0.0135,-0.33878 0.97668,-7.71188 2.14036,-16.38466 1.16367,-8.67279 2.02651,-15.93501 1.91741,-16.13828 -0.10909,-0.20327 -6.06157,-0.36958 -13.22773,-0.36958 h -13.02937 v 16.75424 16.75425 h 11.08737 c 8.52826,0 11.09304,-0.14218 11.11196,-0.61597 z m 34.979,-0.28409 c 0.9301,-0.75315 1.70058,-3.42741 4.72059,-16.38466 1.98498,-8.51654 3.61596,-15.65092 3.6244,-15.85419 0.008,-0.20327 -5.42443,-0.36958 -12.07303,-0.36958 -9.22662,0 -12.13968,0.14582 -12.30508,0.61596 -0.28401,0.80731 -4.18732,30.49846 -4.18732,31.85153 0,1.02368 0.15887,1.041 9.55446,1.041 8.51774,0 9.67507,-0.0977 10.66598,-0.90006 z M 106.72003,112.72084 c -0.14929,-0.88083 -1.16616,-8.34503 -2.2597,-16.587113 -1.09355,-8.242082 -2.10327,-15.171687 -2.24384,-15.399121 -0.42625,-0.689683 -33.213117,-0.522037 -33.213117,0.169824 0,0.511148 6.203214,23.83043 8.201389,30.83086 l 0.738439,2.58706 h 14.52413 14.524139 z m 43.18006,1.1111 c 0.0903,-0.26973 0.10296,-7.80913 0.028,-16.754245 l -0.13622,-16.263836 h -16.24844 c -15.14556,0 -16.24857,0.05853 -16.25015,0.862351 -0.002,1.155505 3.94711,31.2462 4.20393,32.03017 0.25659,0.78327 28.14125,0.90654 28.40284,0.12556 z m 43.28179,-0.20927 c 0,-0.38482 0.88699,-7.36028 1.97109,-15.501028 1.0841,-8.140743 1.97109,-15.365301 1.97109,-16.054571 v -1.253212 h -16.26148 -16.26147 v 16.754243 16.754248 h 14.29039 c 12.01562,0 14.29038,-0.11138 14.29038,-0.69968 z m 40.80948,-1.39461 c 2.69877,-10.88631 7.00552,-30.576932 6.74494,-30.838097 -0.58684,-0.588128 -28.82909,-0.676984 -28.82909,-0.0907 0,0.85694 -3.93183,30.702497 -4.20437,31.914347 l -0.24935,1.10874 h 13.00934 13.00934 z"
         id="path3767" />
      <path
         style="fill:#a1d5da;stroke-width:0.492772"
         d="m 79.474775,80.460911 c 0.745318,-0.112909 1.964928,-0.112909 2.710245,0 0.745318,0.112904 0.135513,0.205284 -1.355122,0.205284 -1.490635,0 -2.10044,-0.09238 -1.355123,-0.205284 z M 192.8123,66.170527 c 0.74532,-0.112909 1.96493,-0.112909 2.71025,0 0.74531,0.112904 0.13551,0.205284 -1.35513,0.205284 -1.49063,0 -2.10044,-0.09238 -1.35512,-0.205284 z M 71.344039,65.674232 c 0.88083,-0.109307 2.322188,-0.109307 3.203018,0 0.880829,0.109312 0.16015,0.19875 -1.601509,0.19875 -1.761659,0 -2.482338,-0.08944 -1.601509,-0.19875 z"
         id="path3765" />
      <path
         style="fill:#90dce3;stroke-width:0.492772"
         d="m 150.03589,145.85974 c 0,-7.99522 0.0678,-11.26599 0.15059,-7.26838 0.0828,3.99761 0.0828,10.53916 0,14.53677 -0.0828,3.99761 -0.15059,0.72684 -0.15059,-7.26839 z M 51.200731,25.253832 c -0.612945,-0.781564 -0.595515,-0.798993 0.186048,-0.186048 0.820834,0.643742 1.081871,1.048399 0.676303,1.048399 -0.102327,0 -0.490385,-0.388058 -0.862351,-0.862351 z"
         id="path3763" />
      <path
         style="fill:#9dd5da;stroke-width:0.492772"
         d="m 79.474775,176.55142 c 0.745318,-0.11291 1.964928,-0.11291 2.710245,0 0.745318,0.11291 0.135513,0.20529 -1.355122,0.20529 -1.490635,0 -2.10044,-0.0924 -1.355123,-0.20529 z M 77.2881,80.477241 c 0.355717,-0.142347 0.780733,-0.124843 0.944481,0.03888 0.163743,0.163743 -0.127303,0.28021 -0.646763,0.258814 -0.574055,-0.02365 -0.690817,-0.140411 -0.297718,-0.297713 z M 189.14731,66.186858 c 0.35572,-0.142347 0.78074,-0.124844 0.94448,0.03888 0.16375,0.163748 -0.1273,0.28021 -0.64676,0.258814 -0.57406,-0.02365 -0.69082,-0.14041 -0.29772,-0.297713 z"
         id="path3761" />
      <path
         style="fill:#90dae1;stroke-width:0.492772"
         d="m 17.169593,34.617327 c 4.149875,-0.08251 10.802295,-0.08233 14.783156,4.01e-4 3.98086,0.08273 0.585507,0.15024 -7.545229,0.15002 -8.130735,-2.21e-4 -11.387803,-0.06791 -7.237927,-0.150421 z"
         id="path3759" />
      <path
         style="fill:#90d8df;stroke-width:0.492772"
         d="m 232.97321,80.95016 c 0.88083,-0.109307 2.32219,-0.109307 3.20302,0 0.88082,0.109311 0.16015,0.198749 -1.60151,0.198749 -1.76166,0 -2.48234,-0.08944 -1.60151,-0.198749 z M 157.33273,66.170527 c 0.74532,-0.112909 1.96493,-0.112909 2.71024,0 0.74532,0.112904 0.13552,0.205284 -1.35512,0.205284 -1.49063,0 -2.10044,-0.09238 -1.35512,-0.205284 z m 4.71213,0.01631 c 0.35572,-0.142347 0.78074,-0.124844 0.94448,0.03888 0.16374,0.163748 -0.1273,0.280209 -0.64676,0.258813 -0.57406,-0.02365 -0.69082,-0.14041 -0.29772,-0.297713 z"
         id="path3757" />
      <path
         style="fill:#99d4d9;stroke-width:0.492772"
         d="m 212.76956,80.980278 c 0.33878,-0.1367 0.89315,-0.1367 1.23193,0 0.33878,0.1367 0.0616,0.248549 -0.61596,0.248549 -0.67756,0 -0.95475,-0.111849 -0.61597,-0.248549 z"
         id="path3755" />
      <path
         style="fill:#94d4da;stroke-width:0.492772"
         d="m 76.795328,193.322 c 0.355717,-0.14235 0.780733,-0.12485 0.944481,0.0389 0.163743,0.16374 -0.127303,0.28021 -0.646763,0.25881 -0.574054,-0.0237 -0.690817,-0.14041 -0.297718,-0.29771 z m 38.197682,-0.0329 c 20.28035,-0.0712 53.3207,-0.0712 73.42301,2e-5 20.10231,0.0713 3.50929,0.12953 -36.87336,0.12952 -40.38265,-1e-5 -56.829994,-0.0583 -36.54965,-0.12954 z M 95.030582,176.5352 c 6.048718,-0.0785 15.805608,-0.0784 21.681958,2e-4 5.87637,0.0786 0.92742,0.14275 -10.99766,0.14264 -11.925082,-1.2e-4 -16.733013,-0.0644 -10.684298,-0.14284 z"
         id="path3753" />
      <path
         style="fill:#98d2d8;stroke-width:0.492772"
         d="m 86.632991,80.452411 c 1.159019,-0.104093 2.932998,-0.10263 3.942175,0.0034 1.009177,0.105882 0.06089,0.191053 -2.107305,0.189264 -2.168196,-0.002 -2.993889,-0.08842 -1.83487,-0.192521 z M 182.71048,66.162663 c 1.15185,-0.103744 3.03671,-0.103744 4.18856,0 1.15185,0.103748 0.20943,0.188633 -2.09428,0.188633 -2.30371,0 -3.24614,-0.08488 -2.09428,-0.188633 z M 66.672084,65.689217 c 0.479453,-0.124937 1.144695,-0.116723 1.478316,0.01823 0.333621,0.134985 -0.05866,0.237205 -0.871728,0.227163 -0.813074,-0.01005 -1.08604,-0.120483 -0.606588,-0.24542 z"
         id="path3751" />
      <path
         style="fill:#91d5da;stroke-width:0.492772"
         d="m 150.64303,176.53494 c 12.51437,-0.0732 33.13687,-0.0733 45.82778,-5e-5 12.6909,0.0732 2.45186,0.1331 -22.75342,0.13313 -25.20528,3e-5 -35.58874,-0.0599 -23.07436,-0.13308 z m 74.45885,-95.589757 c 1.15902,-0.104094 2.933,-0.10263 3.94218,0.0034 1.00917,0.105882 0.0609,0.191053 -2.10731,0.189264 -2.16819,-0.002 -2.99389,-0.08842 -1.83487,-0.192521 z M 165.96926,66.162027 c 1.15902,-0.104093 2.933,-0.10263 3.94217,0.0034 1.00918,0.105882 0.0609,0.191053 -2.1073,0.189264 -2.1682,-0.002 -2.99389,-0.08842 -1.83487,-0.192521 z"
         id="path3749" />
      <path
         style="fill:#94d2d8;stroke-width:0.492772"
         d="m 91.054914,128.73764 c 3.049026,-0.0864 8.038341,-0.0864 11.087366,0 3.04903,0.0865 0.55437,0.1572 -5.543683,0.1572 -6.098052,0 -8.592709,-0.0707 -5.543683,-0.1572 z m 40.189596,-4.9e-4 c 3.47134,-0.0848 9.01502,-0.0846 12.3193,4.9e-4 3.30427,0.0851 0.46408,0.15453 -6.31153,0.15423 -6.77562,-3e-4 -9.47911,-0.07 -6.00777,-0.15478 z m 80.75858,9.8e-4 c 2.89849,-0.087 7.77694,-0.0873 10.84099,-4.9e-4 3.06404,0.0866 0.69255,0.15776 -5.26999,0.15813 -5.96254,3.7e-4 -8.46949,-0.0705 -5.571,-0.15745 z m 4.47713,-47.794243 c 1.29554,-0.101847 3.29127,-0.100615 4.43494,0.003 1.14368,0.103344 0.0837,0.186672 -2.35553,0.185169 -2.43922,-0.0015 -3.37495,-0.08606 -2.07941,-0.187899 z M 174.59461,66.160731 c 1.29555,-0.101846 3.29127,-0.100614 4.43495,0.003 1.14368,0.103344 0.0837,0.186671 -2.35554,0.185168 -2.43922,-0.0015 -3.37495,-0.08606 -2.07941,-0.187898 z"
         id="path3747" />
      <path
         style="fill:#92d2d8;stroke-width:0.492772"
         d="m 94.02037,80.456732 c 0.885684,-0.109671 2.216168,-0.107409 2.956632,0.005 0.740463,0.11244 0.01582,0.202169 -1.610335,0.199405 -1.626147,-0.003 -2.23198,-0.09476 -1.346297,-0.204432 z m 4.918893,0.03075 c 0.338781,-0.1367 0.893149,-0.1367 1.231927,0 0.33878,0.1367 0.0616,0.248549 -0.615962,0.248549 -0.677561,0 -0.954745,-0.111849 -0.615965,-0.248549 z"
         id="path3745" />
      <path
         style="fill:#9acdd2;stroke-width:0.492772"
         d="m 191.82676,80.947661 c 1.01634,-0.10631 2.67945,-0.10631 3.69579,0 1.01634,0.106316 0.18479,0.193295 -1.8479,0.193295 -2.03268,0 -2.86423,-0.08698 -1.84789,-0.193295 z"
         id="path3743" />
      <path
         style="fill:#8bcbd1;stroke-width:0.492772"
         d="m 177.90595,129.1055 -13.05845,-0.27107 12.90618,-0.11085 c 8.19431,-0.0704 13.01736,0.0691 13.21073,0.38192 0.1675,0.27103 0.23603,0.44289 0.15227,0.38192 -0.0838,-0.061 -6.02858,-0.23283 -13.21073,-0.38192 z"
         id="path3741" />
    </g>
  </g>
</svg>
