<?xml version="1.0" encoding="UTF-8" standalone="no"?>
<!-- Created with Inkscape (http://www.inkscape.org/) -->

<svg
   width="1053.7008"
   height="291.51971"
   viewBox="0 0 278.7908 77.131745"
   version="1.1"
   id="svg5"
   inkscape:version="1.1.2 (b8e25be833, 2022-02-05)"
   sodipodi:docname="logo oritzontal.svg"
   xmlns:inkscape="http://www.inkscape.org/namespaces/inkscape"
   xmlns:sodipodi="http://sodipodi.sourceforge.net/DTD/sodipodi-0.dtd"
   xmlns="http://www.w3.org/2000/svg"
   xmlns:svg="http://www.w3.org/2000/svg">
  <sodipodi:namedview
     id="namedview7"
     pagecolor="#ffffff"
     bordercolor="#666666"
     borderopacity="1.0"
     inkscape:pageshadow="2"
     inkscape:pageopacity="0.0"
     inkscape:pagecheckerboard="0"
     inkscape:document-units="mm"
     showgrid="false"
     units="px"
     height="291.51971px"
     width="828.70081px"
     inkscape:zoom="0.7198092"
     inkscape:cx="461.92796"
     inkscape:cy="185.46581"
     inkscape:window-width="1920"
     inkscape:window-height="1001"
     inkscape:window-x="-9"
     inkscape:window-y="-9"
     inkscape:window-maximized="1"
     inkscape:current-layer="layer1" />
  <defs
     id="defs2" />
  <g
     inkscape:label="Capa 1"
     inkscape:groupmode="layer"
     id="layer1">
    <g
       id="g21"
       transform="translate(0.61984123,2.8398347)">
      <path
         style="fill:#d6f8e9;stroke-width:0.138558"
         d="m 124.63528,70.389381 c 0.13336,-0.03485 0.35159,-0.03485 0.48496,0 0.13336,0.03485 0.0242,0.06337 -0.24248,0.06337 -0.26673,0 -0.37584,-0.02851 -0.24248,-0.06337 z m 104.26523,-0.689044 c 0.0952,-0.03844 0.25113,-0.03844 0.34639,0 0.0953,0.03844 0.0173,0.06989 -0.1732,0.06989 -0.19051,0 -0.26845,-0.03145 -0.17319,-0.06989 z m 44.06158,0 c 0.0953,-0.03844 0.25114,-0.03844 0.3464,0 0.0953,0.03844 0.0173,0.06989 -0.1732,0.06989 -0.19052,0 -0.26846,-0.03145 -0.1732,-0.06989 z M 126.12478,66.552944 c 0,-0.02877 0.10912,-0.137887 0.24248,-0.242478 0.21976,-0.172348 0.22466,-0.167448 0.0523,0.05231 -0.18101,0.230804 -0.2948,0.304203 -0.2948,0.190164 z m 99.35734,-0.16707 c 0.007,-0.161414 0.0395,-0.194245 0.0837,-0.08371 0.04,0.100021 0.0351,0.219529 -0.0109,0.265571 -0.0461,0.04604 -0.0788,-0.0358 -0.0728,-0.181858 z m 51.12806,0 c 0.007,-0.161414 0.0395,-0.194245 0.0837,-0.08371 0.04,0.100021 0.0351,0.219529 -0.0109,0.265571 -0.046,0.04604 -0.0788,-0.0358 -0.0728,-0.181858 z m -57.17549,-3.590973 c -9e-5,-1.905179 0.0194,-2.703788 0.0434,-1.774687 0.0239,0.929102 0.024,2.487884 0,3.463961 -0.0239,0.976077 -0.0434,0.215904 -0.0435,-1.689274 z m -3.04565,-6.927922 c 4e-5,-2.819664 0.0185,-3.953498 0.0411,-2.51963 0.0225,1.433869 0.0225,3.740867 -8e-5,5.126662 -0.0226,1.385797 -0.041,0.212632 -0.041,-2.607032 z M 18.086478,60.689784 c 0.134813,-0.03513 0.321867,-0.03282 0.415676,0.0051 0.09381,0.03796 -0.01649,0.0667 -0.245114,0.06387 -0.228622,-0.0028 -0.305375,-0.03388 -0.170562,-0.06901 z m 1.17511,0.0043 c 0.09526,-0.03844 0.251137,-0.03844 0.346396,0 0.09526,0.03844 0.01732,0.06989 -0.173198,0.06989 -0.190518,0 -0.268457,-0.03145 -0.173198,-0.06989 z m 24.386285,0 c 0.09526,-0.03844 0.251138,-0.03844 0.346397,0 0.09526,0.03844 0.01732,0.06989 -0.173199,0.06989 -0.190517,0 -0.268457,-0.03145 -0.173198,-0.06989 z m 1.117128,-0.0029 c 0.100021,-0.04003 0.219529,-0.0351 0.265571,0.01093 0.04604,0.04604 -0.0358,0.07879 -0.181858,0.07277 -0.161414,-0.0067 -0.194245,-0.03948 -0.08371,-0.08371 z m 27.148794,0.0029 c 0.09526,-0.03844 0.251137,-0.03844 0.346396,0 0.09526,0.03844 0.01732,0.06989 -0.173198,0.06989 -0.190518,0 -0.268457,-0.03145 -0.173198,-0.06989 z m 1.108467,0 c 0.09526,-0.03844 0.251138,-0.03844 0.346396,0 0.09526,0.03844 0.01732,0.06989 -0.173198,0.06989 -0.190517,0 -0.268457,-0.03145 -0.173198,-0.06989 z m 99.484958,0 c 0.0953,-0.03844 0.25114,-0.03844 0.3464,0 0.0953,0.03844 0.0173,0.06989 -0.1732,0.06989 -0.19052,0 -0.26846,-0.03145 -0.1732,-0.06989 z m 1.24703,0 c 0.0953,-0.03844 0.25113,-0.03844 0.34639,0 0.0953,0.03844 0.0173,0.06989 -0.17319,0.06989 -0.19052,0 -0.26846,-0.03145 -0.1732,-0.06989 z m 24.38628,0 c 0.0953,-0.03844 0.25114,-0.03844 0.3464,0 0.0953,0.03844 0.0173,0.06989 -0.1732,0.06989 -0.19052,0 -0.26846,-0.03145 -0.1732,-0.06989 z m 1.10847,0 c 0.0953,-0.03844 0.25114,-0.03844 0.3464,0 0.0952,0.03844 0.0173,0.06989 -0.1732,0.06989 -0.19052,0 -0.26846,-0.03145 -0.1732,-0.06989 z m 6.26977,-2.316042 c 0,-0.02877 0.10911,-0.137887 0.24248,-0.242477 0.21976,-0.172349 0.22466,-0.167448 0.0523,0.05231 -0.18102,0.230803 -0.2948,0.304202 -0.2948,0.190163 z m -14.34951,-0.675118 -0.40696,-0.450315 0.45031,0.406959 c 0.41976,0.379342 0.51401,0.493671 0.40696,0.493671 -0.0239,0 -0.22649,-0.202642 -0.45031,-0.450315 z M 36.4598,57.772157 c -0.172349,-0.219762 -0.167448,-0.224662 0.05231,-0.05231 0.230804,0.181009 0.304202,0.294792 0.190163,0.294792 -0.02877,0 -0.137886,-0.109115 -0.242477,-0.242478 z m 15.813336,-0.225512 c 0,-0.02877 0.109115,-0.137886 0.242477,-0.242477 0.219762,-0.172349 0.224663,-0.167448 0.05232,0.05231 -0.181009,0.230804 -0.294792,0.304202 -0.294792,0.190163 z m -16.506128,-0.46728 c -0.172349,-0.219762 -0.167448,-0.224663 0.05231,-0.05231 0.133362,0.104591 0.242477,0.213706 0.242477,0.242477 0,0.11404 -0.113783,0.04064 -0.294791,-0.190163 z M 204.27174,55.892902 c 0,-0.02385 0.20265,-0.226488 0.45032,-0.450315 l 0.45031,-0.406959 -0.40696,0.450315 c -0.37934,0.419757 -0.49367,0.514004 -0.49367,0.406959 z m -192.397105,-1.792543 -0.406959,-0.450315 0.450315,0.406959 c 0.247673,0.223827 0.450315,0.426469 0.450315,0.450314 0,0.107045 -0.114329,0.0128 -0.493671,-0.406958 z m 40.270882,-5.311406 c 0.0067,-0.161414 0.03948,-0.194245 0.08371,-0.08371 0.04003,0.100021 0.0351,0.219529 -0.01093,0.265571 -0.04604,0.04604 -0.07879,-0.0358 -0.07277,-0.181858 z m 9.16093,-0.127013 c 0.0028,-0.228621 0.03388,-0.305374 0.06901,-0.170561 0.03513,0.134813 0.03282,0.321867 -0.0051,0.415675 -0.03796,0.09381 -0.0667,-0.01649 -0.06387,-0.245114 z m 0.0051,-1.177746 c 0,-0.266725 0.02852,-0.37584 0.06337,-0.242478 0.03485,0.133363 0.03485,0.351592 0,0.484955 -0.03485,0.133362 -0.06337,0.02425 -0.06337,-0.242477 z m -9.166063,-0.63506 c 0.0067,-0.161413 0.03948,-0.194245 0.08371,-0.08371 0.04003,0.100021 0.0351,0.219529 -0.01093,0.26557 -0.04604,0.04604 -0.07879,-0.0358 -0.07277,-0.181858 z M 219.29597,43.188882 c 0,-1.867075 0.0196,-2.630878 0.0436,-1.697341 0.024,0.933538 0.024,2.461144 0,3.394682 -0.024,0.933537 -0.0436,0.169734 -0.0436,-1.697341 z M 3.7886215,45.46355 c 0.00665,-0.161414 0.039481,-0.194245 0.083712,-0.08371 0.040026,0.100021 0.035103,0.219529 -0.010939,0.265571 -0.046042,0.04604 -0.07879,-0.0358 -0.072774,-0.181858 z M 247.57126,42.080415 c 0.13793,-0.152415 0.28196,-0.277117 0.32007,-0.277117 0.0381,0 -0.0436,0.124702 -0.18152,0.277117 -0.13793,0.152414 -0.28196,0.277116 -0.32007,0.277116 -0.0381,0 0.0436,-0.124702 0.18152,-0.277116 z m 2.45941,-0.657226 c 0.5906,-0.02597 1.55705,-0.02597 2.14765,0 0.59061,0.02597 0.10739,0.04722 -1.07382,0.04722 -1.18122,0 -1.66444,-0.02125 -1.07383,-0.04722 z m -33.78019,-5.09295 c 4e-5,-2.819664 0.0185,-3.953497 0.0411,-2.519629 0.0225,1.433869 0.0225,3.740867 -9e-5,5.126662 -0.0226,1.385796 -0.041,0.212632 -0.041,-2.607033 z m -52.02213,1.827183 c 0,-0.02385 0.20265,-0.226488 0.45032,-0.450315 l 0.45031,-0.406959 -0.40696,0.450315 c -0.37934,0.419758 -0.49367,0.514004 -0.49367,0.406959 z m -84.741645,-0.822634 -0.263952,-0.311756 0.311756,0.263952 c 0.171466,0.145173 0.311757,0.285464 0.311757,0.311757 0,0.110881 -0.111511,0.02902 -0.359561,-0.263953 z m -35.96873,-2.554063 c 0.100021,-0.04002 0.219529,-0.0351 0.265571,0.01093 0.04604,0.04604 -0.0358,0.07879 -0.181858,0.07277 -0.161414,-0.0067 -0.194245,-0.03948 -0.08371,-0.08371 z m 1.385584,0 c 0.100021,-0.04002 0.219529,-0.0351 0.265571,0.01093 0.04604,0.04604 -0.0358,0.07879 -0.181858,0.07277 -0.161414,-0.0067 -0.194245,-0.03948 -0.08371,-0.08371 z m 27.157454,0 c 0.100021,-0.04002 0.219529,-0.0351 0.265571,0.01093 0.04604,0.04604 -0.03579,0.07879 -0.181858,0.07277 -0.161414,-0.0067 -0.194245,-0.03948 -0.08371,-0.08371 z m 99.069287,0 c 0.10002,-0.04002 0.21953,-0.0351 0.26557,0.01093 0.046,0.04604 -0.0358,0.07879 -0.18186,0.07277 -0.16142,-0.0067 -0.19424,-0.03948 -0.0837,-0.08371 z m 1.24702,0 c 0.10003,-0.04002 0.21953,-0.0351 0.26558,0.01093 0.046,0.04604 -0.0358,0.07879 -0.18186,0.07277 -0.16142,-0.0067 -0.19425,-0.03948 -0.0837,-0.08371 z m 53.1048,-1.787434 c 0.007,-0.161414 0.0395,-0.194245 0.0837,-0.08371 0.04,0.100021 0.0351,0.219528 -0.0109,0.265571 -0.0461,0.04604 -0.0788,-0.0358 -0.0728,-0.181858 z m 51.12806,-0.138559 c 0.007,-0.161413 0.0395,-0.194245 0.0837,-0.08371 0.04,0.100021 0.0351,0.219527 -0.0109,0.26557 -0.046,0.04604 -0.0788,-0.0358 -0.0728,-0.181858 z m -50.16909,-1.911307 c 0,-0.02877 0.10912,-0.137886 0.24248,-0.242477 0.21977,-0.172348 0.22466,-0.167448 0.0523,0.05231 -0.18101,0.230804 -0.2948,0.304203 -0.2948,0.190163 z M 93.736749,29.79176 c 0.133362,-0.03485 0.351592,-0.03485 0.484955,0 0.133362,0.03485 0.02425,0.06337 -0.242478,0.06337 -0.266725,0 -0.37584,-0.02852 -0.242477,-0.06337 z M 273.10065,29.518391 c 0.0953,-0.03844 0.25113,-0.03844 0.34639,0 0.0953,0.03844 0.0173,0.06989 -0.17319,0.06989 -0.19052,0 -0.26846,-0.03145 -0.1732,-0.06989 z M 8.7657865,29.151124 c 0,-0.02385 0.2026417,-0.226488 0.4503149,-0.450315 L 9.6664163,28.29385 9.2594576,28.744165 C 8.8801149,29.163922 8.7657865,29.258168 8.7657865,29.151124 Z M 219.15741,23.652143 c 0,-1.867075 0.0196,-2.630879 0.0436,-1.697341 0.024,0.933537 0.024,2.461144 0,3.394681 -0.024,0.933538 -0.0436,0.169734 -0.0436,-1.69734 z M 19.270248,25.081635 c 0.100021,-0.04003 0.219528,-0.0351 0.265571,0.01093 0.04604,0.04604 -0.0358,0.07879 -0.181858,0.07277 -0.161414,-0.0067 -0.194245,-0.03948 -0.08371,-0.08371 z M 268.5978,19.703227 c 0.002,-0.304828 0.0299,-0.413216 0.0631,-0.240862 0.0331,0.172355 0.0319,0.42176 -0.003,0.554234 -0.0347,0.132474 -0.0618,-0.0085 -0.0603,-0.313372 z m -8.0604,-0.842897 c 0.007,-0.161413 0.0395,-0.194245 0.0837,-0.08371 0.04,0.100021 0.0351,0.219527 -0.011,0.26557 -0.046,0.04604 -0.0788,-0.0358 -0.0728,-0.181858 z m -27.01889,-0.415675 c 0.007,-0.161414 0.0395,-0.194245 0.0837,-0.08371 0.04,0.100021 0.0351,0.219528 -0.0109,0.265571 -0.0461,0.04604 -0.0788,-0.0358 -0.0728,-0.181858 z m 0.13855,-0.969909 c 0.007,-0.161414 0.0395,-0.194245 0.0837,-0.08371 0.04,0.100021 0.0351,0.219528 -0.0109,0.265571 -0.0461,0.04604 -0.0788,-0.0358 -0.0728,-0.181858 z m 34.63961,-0.415675 c 0.007,-0.161414 0.0395,-0.194245 0.0837,-0.08371 0.04,0.100021 0.0351,0.219528 -0.0109,0.265571 -0.046,0.04604 -0.0788,-0.0358 -0.0728,-0.181858 z m -24.67433,-2.881216 c 0,-0.02877 0.10911,-0.137887 0.24248,-0.242477 0.21976,-0.172349 0.22466,-0.167448 0.0523,0.05231 -0.18102,0.230803 -0.2948,0.304202 -0.2948,0.190163 z m 1.10847,-1.108467 c 0,-0.02877 0.10911,-0.137887 0.24247,-0.242477 0.21977,-0.172349 0.22466,-0.167448 0.0523,0.05231 -0.18101,0.230804 -0.29479,0.304202 -0.29479,0.190164 z m 12.45258,-0.190164 c -0.17234,-0.219761 -0.16745,-0.224662 0.0523,-0.05231 0.13336,0.10459 0.24247,0.213704 0.24247,0.242477 0,0.114038 -0.11378,0.04064 -0.29479,-0.190164 z m -7.08344,-2.204781 c 0.0953,-0.03844 0.25113,-0.03844 0.34639,0 0.0953,0.03844 0.0173,0.06989 -0.1732,0.06989 -0.19051,0 -0.26845,-0.03145 -0.17319,-0.06989 z m 1.73461,-0.0043 c 0.13482,-0.03513 0.32187,-0.03282 0.41568,0.0051 0.0938,0.03795 -0.0165,0.0667 -0.24511,0.06387 -0.22863,-0.0028 -0.30537,-0.03388 -0.17057,-0.06901 z m 12.4225,-1.947717 -0.33591,-0.3810357 0.38104,0.3359092 c 0.20957,0.18475 0.38103,0.3562161 0.38103,0.3810357 0,0.1086677 -0.1122,0.020226 -0.42616,-0.3359092 z m -26.0385,-0.4936711 c 0,-0.023846 0.20264,-0.2264876 0.45032,-0.4503149 l 0.45031,-0.4069588 -0.40696,0.450315 c -0.37934,0.4197565 -0.49367,0.5140035 -0.49367,0.4069587 z m 24.30384,-1.2383094 -0.26395,-0.3117564 0.31176,0.2639521 c 0.29296,0.2480498 0.37482,0.3595608 0.26395,0.3595608 -0.0263,0 -0.16659,-0.1402904 -0.31176,-0.3117565 z M 248.16879,2.9122843 c 0.10002,-0.040026 0.21953,-0.035103 0.26557,0.010939 0.0461,0.046042 -0.0358,0.07879 -0.18185,0.072773 -0.16142,-0.00665 -0.19425,-0.039481 -0.0837,-0.083712 z m 5.68089,0 c 0.10003,-0.040026 0.21954,-0.035103 0.26558,0.010939 0.046,0.046042 -0.0358,0.07879 -0.18186,0.072773 -0.16142,-0.00665 -0.19424,-0.039481 -0.0837,-0.083712 z"
         id="path47" />
      <path
         style="fill:#b4f7ce;stroke-width:0.138558"
         d="m 219.42968,68.129401 c 0,-1.105004 0.0215,-1.557051 0.0478,-1.004549 0.0263,0.552502 0.0263,1.456595 0,2.009097 -0.0263,0.552502 -0.0478,0.100455 -0.0478,-1.004548 z m -2.90442,-1.731981 c 8e-5,-1.981386 0.0195,-2.772684 0.0432,-1.758441 0.0237,1.014242 0.0236,2.635376 0,3.602519 -0.0238,0.967142 -0.0432,0.137308 -0.0431,-1.844078 z M 18.707354,60.694039 c 0.09526,-0.03844 0.251138,-0.03844 0.346397,0 0.09526,0.03844 0.01732,0.06989 -0.173198,0.06989 -0.190518,0 -0.268457,-0.03145 -0.173199,-0.06989 z m 25.494753,0 c 0.09526,-0.03844 0.251137,-0.03844 0.346396,0 0.09526,0.03844 0.01732,0.06989 -0.173198,0.06989 -0.190518,0 -0.268457,-0.03145 -0.173198,-0.06989 z m 28.265922,0 c 0.09526,-0.03844 0.251137,-0.03844 0.346396,0 0.09526,0.03844 0.01732,0.06989 -0.173198,0.06989 -0.190518,0 -0.268457,-0.03145 -0.173198,-0.06989 z m 100.665341,-0.0043 c 0.13481,-0.03513 0.32187,-0.03282 0.41567,0.0051 0.0938,0.03795 -0.0165,0.0667 -0.24511,0.06387 -0.22862,-0.0028 -0.30537,-0.03388 -0.17056,-0.06901 z m 25.5614,0.0043 c 0.0953,-0.03844 0.25113,-0.03844 0.34639,0 0.0953,0.03844 0.0173,0.06989 -0.1732,0.06989 -0.19051,0 -0.26845,-0.03145 -0.17319,-0.06989 z M 95.708265,47.692031 c 8e-6,-6.782435 0.01691,-9.536783 0.03755,-6.120772 0.02065,3.41601 0.02064,8.965276 -1.5e-5,12.331701 -0.02065,3.366424 -0.03754,0.571507 -0.03754,-6.210929 z m -76.654514,9.392011 c 0.209569,-0.03175 0.552501,-0.03175 0.762071,0 0.20957,0.03175 0.0381,0.05772 -0.381036,0.05772 -0.419139,0 -0.590605,-0.02598 -0.381035,-0.05772 z M 219.29547,49.631849 c 1e-4,-1.752764 0.0199,-2.450698 0.0441,-1.550965 0.0242,0.899734 0.0241,2.333814 0,3.186844 -0.0243,0.853031 -0.044,0.116886 -0.0439,-1.635879 z m -2.90836,-2.563331 c 0,-2.095696 0.0193,-2.953026 0.0428,-1.905178 0.0235,1.047848 0.0235,2.762509 0,3.810357 -0.0235,1.047848 -0.0428,0.190518 -0.0428,-1.905179 z m -59.58964,0 c 0,-0.800175 0.0229,-1.127519 0.0509,-0.727432 0.028,0.400088 0.028,1.054777 0,1.454864 -0.028,0.400087 -0.0509,0.07274 -0.0509,-0.727432 z M 61.290374,48.09616 c 0.0067,-0.161413 0.03948,-0.194245 0.08371,-0.08371 0.04003,0.100021 0.0351,0.219529 -0.01093,0.26557 -0.04604,0.04604 -0.07879,-0.0358 -0.07277,-0.181858 z M 204.8083,39.898119 c -0.17234,-0.219762 -0.16745,-0.224663 0.0523,-0.05231 0.23079,0.181009 0.3042,0.294791 0.19015,0.294791 -0.0288,0 -0.13788,-0.109114 -0.24247,-0.242477 z m -13.97673,-1.472538 c 0,-0.02877 0.10912,-0.137886 0.24248,-0.242477 0.21977,-0.172349 0.22466,-0.167448 0.0523,0.05231 -0.18101,0.230804 -0.2948,0.304202 -0.2948,0.190163 z m -88.34845,-1.541108 c 2.8e-4,-0.838278 0.0231,-1.163346 0.0507,-0.722373 0.0276,0.440973 0.0273,1.126838 -5.6e-4,1.524143 -0.0279,0.397305 -0.0505,0.03651 -0.0501,-0.80177 z m -58.347655,0.80461 c 0.134813,-0.03513 0.321867,-0.03282 0.415675,0.0051 0.09381,0.03796 -0.01649,0.0667 -0.245114,0.06387 -0.228621,-0.0028 -0.305374,-0.03388 -0.170561,-0.06901 z m 29.097272,0 c 0.134813,-0.03513 0.321867,-0.03282 0.415675,0.0051 0.09381,0.03796 -0.01649,0.0667 -0.245114,0.06387 -0.228621,-0.0028 -0.305374,-0.03388 -0.170561,-0.06901 z m 126.226733,0 c 0.13482,-0.03513 0.32187,-0.03282 0.41568,0.0051 0.0938,0.03796 -0.0165,0.0667 -0.24511,0.06387 -0.22863,-0.0028 -0.30537,-0.03388 -0.17057,-0.06901 z M 44.065164,34.777379 c 0.172355,-0.03314 0.42176,-0.03188 0.554234,0.0028 0.132474,0.03468 -0.0085,0.0618 -0.313372,0.06026 -0.304829,-0.0015 -0.413216,-0.02991 -0.240862,-0.06305 z m 28.541423,2.77e-4 c 0.171466,-0.03303 0.452047,-0.03303 0.623513,0 0.171466,0.03303 0.03118,0.06005 -0.311756,0.06005 -0.342933,0 -0.483223,-0.02702 -0.311757,-0.06005 z m 99.000003,0.0023 c 0.13336,-0.03485 0.35159,-0.03485 0.48496,0 0.13336,0.03485 0.0242,0.06337 -0.24248,0.06337 -0.26673,0 -0.37584,-0.02851 -0.24248,-0.06337 z m 27.22673,-0.0023 c 0.17147,-0.03303 0.45205,-0.03303 0.62352,0 0.17146,0.03303 0.0312,0.06005 -0.31176,0.06005 -0.34293,0 -0.48322,-0.02702 -0.31176,-0.06005 z m 20.32341,-4.751825 c 0,-1.714661 0.0199,-2.416113 0.0442,-1.558783 0.0243,0.85733 0.0243,2.260235 0,3.117565 -0.0243,0.85733 -0.0442,0.155878 -0.0442,-1.558782 z m -2.90805,-2.563332 c 7e-5,-2.133799 0.0193,-2.987357 0.0427,-1.896795 0.0234,1.090563 0.0234,2.836399 -1.2e-4,3.879636 -0.0235,1.043238 -0.0427,0.150959 -0.0426,-1.982841 z M 18.707354,28.542461 c 0.171467,-0.03303 0.452047,-0.03303 0.623513,0 0.171467,0.03303 0.03118,0.06005 -0.311756,0.06005 -0.342932,0 -0.483223,-0.02702 -0.311757,-0.06005 z m -1.247025,-3.45794 c 0.09526,-0.03844 0.251137,-0.03844 0.346396,0 0.09526,0.03844 0.01732,0.06989 -0.173198,0.06989 -0.190518,0 -0.268457,-0.03145 -0.173198,-0.06989 z m 1.394244,-0.0029 c 0.100021,-0.04003 0.219528,-0.0351 0.265571,0.01093 0.04604,0.04604 -0.0358,0.07879 -0.181858,0.07277 -0.161414,-0.0067 -0.194245,-0.03948 -0.08371,-0.08371 z"
         id="path45" />
      <path
         style="fill:#94e0e7;stroke-width:0.138558"
         d="m 228.65803,69.604016 c -1.4861,-0.321495 -2.73833,-1.574984 -3.04391,-3.046979 -0.10198,-0.491229 -0.13674,-5.897121 -0.11105,-17.272167 l 0.0374,-16.55715 0.32032,-0.707673 c 0.37486,-0.828171 1.09105,-1.562985 1.9659,-2.017018 0.57522,-0.298535 0.81934,-0.326941 3.1522,-0.366803 l 2.52869,-0.04321 v -5.257563 c 0,-5.954969 0.10528,-7.063475 0.90183,-9.495074 1.45897,-4.453904 4.69341,-8.1926343 8.91206,-10.3015918 5.20667,-2.6028808 11.66403,-2.3491314 16.72005,0.6570342 3.54983,2.1106246 6.35686,5.6028916 7.66908,9.5412386 0.78812,2.365371 0.87451,3.200494 0.9529,9.211737 l 0.0716,5.492596 2.44255,0.05093 c 2.33899,0.04876 2.47594,0.06727 3.2298,0.436329 0.89148,0.436445 1.54246,1.107471 1.96929,2.029959 0.29083,0.628545 0.29188,0.683494 0.32914,17.257034 0.026,11.58863 -0.008,16.846676 -0.11348,17.353192 -0.31958,1.539445 -1.63454,2.793341 -3.21864,3.069201 -1.29993,0.226372 -43.66107,0.194144 -44.71576,-0.03402 z m 25.72752,-12.361301 c 0.88419,-0.649353 0.87524,-0.570023 0.87548,-7.763574 v -6.526394 l -0.31176,-0.458066 c -0.6857,-1.007495 -0.79516,-1.037779 -3.75123,-1.037779 -2.96525,0 -3.31899,0.08677 -3.84046,0.941996 -0.25843,0.423863 -0.27049,0.743121 -0.27099,7.179626 0,6.694191 0.001,6.738403 0.29896,7.116748 0.68463,0.870372 0.88507,0.915447 3.88221,0.873013 2.50565,-0.03547 2.7585,-0.06188 3.11756,-0.32557 z m 6.25202,-33.417374 -0.0418,-5.646257 -0.38413,-1.03756 c -0.56782,-1.533709 -1.15054,-2.430955 -2.38704,-3.675417 -1.18994,-1.197603 -2.54335,-2.013725 -4.15675,-2.506558 -1.29666,-0.396083 -3.98895,-0.364862 -5.26522,0.06106 -3.09927,1.034282 -5.30463,3.149893 -6.36187,6.102975 l -0.4275,1.194062 -0.0419,5.576977 -0.0419,5.576977 h 9.57496 9.57495 z"
         id="path43" />
      <path
         style="fill:#92f3b8;stroke-width:0.138558"
         d="m 123.73465,67.483402 c 0.0953,-0.03844 0.25114,-0.03844 0.3464,0 0.0953,0.03844 0.0173,0.06989 -0.1732,0.06989 -0.19052,0 -0.26846,-0.03145 -0.1732,-0.06989 z m 92.78207,-6.074086 c 0,-0.838278 0.0231,-1.163346 0.0507,-0.722373 0.0276,0.440974 0.0273,1.126838 0,1.524143 -0.0279,0.397305 -0.0505,0.03651 -0.0501,-0.80177 z M 65.010025,57.772157 64.674116,57.391122 65.055152,57.72703 c 0.356136,0.313958 0.444577,0.426163 0.335909,0.426163 -0.02482,0 -0.196285,-0.171466 -0.381036,-0.381036 z M 219.29182,54.827791 c 0,-1.181211 0.0213,-1.664434 0.0472,-1.073828 0.026,0.590605 0.026,1.55705 0,2.147656 -0.026,0.590605 -0.0472,0.107382 -0.0472,-1.073828 z m -180.264179,0.796711 -0.263953,-0.311757 0.311757,0.263953 c 0.171466,0.145173 0.311756,0.285463 0.311756,0.311756 0,0.110881 -0.11151,0.02902 -0.35956,-0.263952 z m 28.746366,-0.06928 c -0.172349,-0.219762 -0.167448,-0.224662 0.05231,-0.05231 0.230804,0.181009 0.304202,0.294792 0.190163,0.294792 -0.02877,0 -0.137886,-0.109115 -0.242477,-0.242478 z m 138.362583,-7.93247 c 0,-3.315011 0.0181,-4.671151 0.0402,-3.013646 0.0221,1.657505 0.0221,4.369787 0,6.027292 -0.0221,1.657505 -0.0402,0.301365 -0.0402,-3.013646 z m 10.23893,-5.473058 c 0,-0.685865 0.023,-0.983915 0.0521,-0.662333 0.0291,0.32158 0.0294,0.882742 0.001,1.247026 -0.0286,0.364282 -0.0524,0.101171 -0.0528,-0.584693 z M 39.179364,39.724921 c 0.137933,-0.152414 0.281963,-0.277117 0.320067,-0.277117 0.0381,0 -0.04358,0.124703 -0.181509,0.277117 -0.137933,0.152414 -0.281963,0.277117 -0.320067,0.277117 -0.0381,0 0.04357,-0.124703 0.181509,-0.277117 z m 166.534076,-2.390133 -0.26395,-0.311756 0.31005,0.262407 0.31005,0.262409 0.0381,-5.181233 0.0381,-5.181232 0.0329,5.230581 c 0.0181,2.876819 -0.0198,5.230581 -0.0842,5.230581 -0.0644,0 -0.23587,-0.140291 -0.38104,-0.311757 z m 13.43983,-2.182295 c 0,-1.181211 0.0213,-1.664434 0.0472,-1.073828 0.026,0.590605 0.026,1.55705 0,2.147656 -0.026,0.590605 -0.0472,0.107382 -0.0472,-1.073828 z M 112.65159,27.988016 c 0.17236,-0.03314 0.42176,-0.03188 0.55424,0.0028 0.13247,0.03468 -0.009,0.0618 -0.31338,0.06026 -0.30483,-0.0015 -0.41321,-0.02991 -0.24086,-0.06306 z M 18.083841,25.080773 c 0.133363,-0.03485 0.351593,-0.03485 0.484955,0 0.133363,0.03485 0.02425,0.06337 -0.242477,0.06337 -0.266725,0 -0.37584,-0.02852 -0.242478,-0.06337 z m 93.806699,-5.54e-4 c 0.13481,-0.03513 0.32187,-0.03282 0.41568,0.0051 0.0938,0.03796 -0.0165,0.0667 -0.24512,0.06387 -0.22862,-0.0028 -0.30537,-0.03388 -0.17056,-0.06901 z m 104.34564,-2.536544 c 0,-0.647761 0.0239,-0.912754 0.053,-0.588873 0.0292,0.32388 0.0292,0.853866 0,1.177746 -0.0292,0.323881 -0.053,0.05889 -0.053,-0.588873 z m 2.77516,-6.373688 c 0,-0.876382 0.0225,-1.234902 0.05,-0.796711 0.0275,0.438191 0.0275,1.155231 0,1.593422 -0.0275,0.438191 -0.05,0.07967 -0.05,-0.796711 z"
         id="path41" />
      <path
         style="fill:#64ee9c;stroke-width:0.138558"
         d="m 81.405048,59.991165 c 0.361984,-0.02854 0.954321,-0.02854 1.316305,0 0.361984,0.02854 0.06582,0.0519 -0.658152,0.0519 -0.723968,0 -1.020137,-0.02335 -0.658153,-0.0519 z m 11.644671,-9.7e-4 c 0.517567,-0.02673 1.328134,-0.02653 1.80126,4.16e-4 0.473125,0.02698 0.04966,0.04885 -0.941032,0.0486 -0.990693,-2.78e-4 -1.377796,-0.02231 -0.860228,-0.04904 z m 14.715021,0.0012 1.73134,-0.04524 0.0368,-10.838065 0.0368,-10.838064 -0.001,10.876837 -0.001,10.876837 -1.76683,0.0065 -1.76683,0.0065 1.73135,-0.04524 z m 21.16585,0.0061 c 0.13336,-0.03485 0.35159,-0.03485 0.48496,0 0.13336,0.03485 0.0242,0.06337 -0.24248,0.06337 -0.26673,0 -0.37584,-0.02852 -0.24248,-0.06337 z m 78.06399,-0.0084 c -0.0356,-0.05716 0.38162,-0.08685 0.9271,-0.06599 1.68817,0.06455 1.8833,0.124569 0.48035,0.147738 -0.73851,0.01219 -1.37187,-0.02459 -1.40745,-0.08174 z m 9.5178,-1.073828 c 0,-0.609657 0.0249,-0.841827 0.0541,-0.515932 0.0293,0.325895 0.0289,0.824705 -0.001,1.108467 -0.0298,0.283762 -0.0537,0.01712 -0.0532,-0.592535 z M 56.036091,48.454103 c 0,-0.190518 0.03145,-0.268457 0.06989,-0.173198 0.03844,0.09526 0.03844,0.251137 0,0.346396 -0.03844,0.09526 -0.06989,0.01732 -0.06989,-0.173198 z m 88.576379,-0.04504 c -0.0387,-0.100976 -0.0524,-0.771252 -0.0303,-1.489503 l 0.0402,-1.30591 6.09657,-0.0022 6.09657,-0.0022 -6.06193,0.03833 -6.06194,0.03833 v 1.382672 1.382672 l 6.06194,0.03759 6.06193,0.03759 -6.06628,0.03315 c -4.93167,0.02695 -6.07946,-0.0012 -6.13673,-0.150448 z M 65.1987,47.692031 c 0.0011,-0.381036 0.02795,-0.520468 0.0598,-0.309851 0.03185,0.210617 0.031,0.522373 -0.0019,0.692792 -0.03289,0.170419 -0.05895,-0.0019 -0.05791,-0.382941 z m -9.173547,-0.56578 c 0.0067,-0.161413 0.03948,-0.194245 0.08371,-0.08371 0.04002,0.100021 0.0351,0.219529 -0.01093,0.26557 -0.04604,0.04604 -0.07879,-0.0358 -0.07277,-0.181858 z M 216.37474,39.86348 c 0,-0.647761 0.0239,-0.912754 0.053,-0.588874 0.0292,0.323881 0.0292,0.853867 0,1.177747 -0.0292,0.32388 -0.053,0.05889 -0.053,-0.588873 z m -148.4445,0.08624 c 0,-0.02877 0.109115,-0.137887 0.242477,-0.242477 0.219762,-0.172349 0.224663,-0.167448 0.05231,0.05231 -0.181008,0.230803 -0.294791,0.304202 -0.294791,0.190163 z m -3.325403,-1.524143 c 0,-0.02877 0.109115,-0.137886 0.242478,-0.242477 0.219762,-0.172349 0.224662,-0.167448 0.05231,0.05231 -0.181009,0.230804 -0.294792,0.304202 -0.294792,0.190163 z M 178.75931,37.542626 c -0.17234,-0.219762 -0.16745,-0.224663 0.0523,-0.05231 0.2308,0.181008 0.30421,0.294791 0.19016,0.294791 -0.0288,0 -0.13788,-0.109115 -0.24248,-0.242477 z m -69.2077,-3.844997 c 2.7e-4,-0.990693 0.0223,-1.377796 0.049,-0.860227 0.0267,0.517567 0.0265,1.328133 -4.1e-4,1.801259 -0.027,0.473125 -0.0489,0.04966 -0.0486,-0.941032 z m -97.5297,-2.424773 c 0.137933,-0.152414 0.281963,-0.277116 0.320066,-0.277116 0.0381,0 -0.04358,0.124702 -0.181508,0.277116 -0.137933,0.152415 -0.281963,0.277117 -0.320066,0.277117 -0.0381,0 0.04358,-0.124702 0.181508,-0.277117 z M 216.23696,20.257461 c 0,-0.685864 0.023,-0.983915 0.052,-0.662333 0.0291,0.32158 0.0294,0.882742 0.001,1.247026 -0.0286,0.364282 -0.0524,0.101171 -0.0528,-0.584693 z"
         id="path39" />
      <path
         style="fill:#3bed82;stroke-width:0.138558"
         d="m 83.377394,42.565369 c 4e-6,-9.6021 0.01654,-13.509805 0.03674,-8.68379 0.0202,4.826016 0.0202,12.682279 -7e-6,17.458363 -0.02021,4.776085 -0.03673,0.827527 -0.03673,-8.774573 z m 80.979026,14.652555 -0.3359,-0.381036 0.38103,0.335909 c 0.20957,0.184751 0.38104,0.356217 0.38104,0.381035 0,0.108669 -0.11221,0.02023 -0.42617,-0.335908 z m -155.0540736,0 c -0.1723488,-0.219762 -0.167448,-0.224663 0.052314,-0.05231 0.2308034,0.181008 0.3042021,0.294791 0.1901638,0.294791 -0.028773,0 -0.1378873,-0.109115 -0.2424773,-0.242477 z M 49.086292,56.03146 c 0,-0.02385 0.202642,-0.226487 0.450315,-0.450315 l 0.450315,-0.406958 -0.406959,0.450315 c -0.379342,0.419757 -0.493671,0.514003 -0.493671,0.406958 z M 169.2511,48.904488 c 2.41957,-0.02123 6.37888,-0.02123 8.79846,0 2.41958,0.02123 0.43992,0.0386 -4.39923,0.0386 -4.83916,0 -6.81881,-0.01737 -4.39923,-0.0386 z M 32.470219,48.511836 c 0.0067,-0.161414 0.03948,-0.194245 0.08371,-0.08371 0.04003,0.100021 0.0351,0.219529 -0.01093,0.265571 -0.04604,0.04604 -0.07879,-0.0358 -0.07277,-0.181858 z m 32.699791,0 c 0.0067,-0.161414 0.03948,-0.194245 0.08371,-0.08371 0.04002,0.100021 0.0351,0.219529 -0.01093,0.265571 -0.04604,0.04604 -0.07879,-0.0358 -0.07277,-0.181858 z m 95.63591,-0.611967 c 0,-0.419139 0.026,-0.590605 0.0577,-0.381036 0.0317,0.20957 0.0317,0.552502 0,0.762072 -0.0318,0.209569 -0.0577,0.0381 -0.0577,-0.381036 z M 56.04636,47.76131 c 0,-0.266725 0.02851,-0.375839 0.06337,-0.242477 0.03485,0.133363 0.03485,0.351592 0,0.484955 -0.03485,0.133362 -0.06337,0.02425 -0.06337,-0.242478 z M 32.470219,47.126251 c 0.0067,-0.161413 0.03948,-0.194245 0.08371,-0.08371 0.04003,0.100021 0.0351,0.219529 -0.01093,0.26557 -0.04604,0.04604 -0.07879,-0.0358 -0.07277,-0.181858 z M 187.65566,46.710576 c 0.007,-0.161414 0.0395,-0.194245 0.0837,-0.08371 0.04,0.100021 0.0351,0.219529 -0.011,0.265571 -0.046,0.04604 -0.0788,-0.0358 -0.0728,-0.181858 z M 3.7886215,44.355083 c 0.00665,-0.161414 0.039481,-0.194245 0.083712,-0.08371 0.040026,0.100021 0.035103,0.219529 -0.010939,0.265571 -0.046042,0.04604 -0.07879,-0.0358 -0.072774,-0.181858 z m 4.1567531,-1.108468 c 0.00665,-0.161414 0.039481,-0.194245 0.083712,-0.08371 0.040026,0.100021 0.035103,0.21953 -0.010939,0.265571 -0.046042,0.04604 -0.07879,-0.0358 -0.072774,-0.181858 z m 70.6433774,-3.348496 -0.335909,-0.381036 0.381036,0.335909 c 0.20957,0.184751 0.381036,0.356217 0.381036,0.381036 0,0.108668 -0.112205,0.02023 -0.426163,-0.335909 z m -29.104459,0 c -0.172349,-0.219762 -0.167448,-0.224663 0.05231,-0.05231 0.133363,0.104591 0.242477,0.213706 0.242477,0.242477 0,0.114039 -0.113782,0.04064 -0.294791,-0.190163 z m 126.788157,-0.554234 -0.33591,-0.381035 0.38104,0.335908 c 0.20957,0.184751 0.38103,0.356217 0.38103,0.381036 0,0.108669 -0.1122,0.02023 -0.42616,-0.335909 z M 36.061799,38.131499 c 0.258519,-0.266725 0.501212,-0.484954 0.539315,-0.484954 0.0381,0 -0.142237,0.218229 -0.400757,0.484954 -0.258519,0.266725 -0.501211,0.484955 -0.539315,0.484955 -0.0381,0 0.142237,-0.21823 0.400757,-0.484955 z m 16.2719,-0.103919 -0.406959,-0.450315 0.450315,0.406959 c 0.247673,0.223827 0.450315,0.426469 0.450315,0.450315 0,0.107045 -0.114329,0.0128 -0.493671,-0.406959 z m 57.185951,-6.339048 c 0,-0.190518 0.0315,-0.268457 0.0699,-0.173198 0.0384,0.09526 0.0384,0.251137 0,0.346396 -0.0384,0.09526 -0.0699,0.01732 -0.0699,-0.173198 z m -1.75386,-4.988104 c 0.13793,-0.152414 0.28196,-0.277117 0.32007,-0.277117 0.0381,0 -0.0436,0.124703 -0.18151,0.277117 -0.13793,0.152414 -0.28196,0.277117 -0.32007,0.277117 -0.0381,0 0.0436,-0.124703 0.18151,-0.277117 z"
         id="path37" />
      <path
         style="fill:#4aa996;stroke-width:0.138558"
         d="m 219.28789,58.361031 c 0,-0.838279 0.0231,-1.163347 0.0507,-0.722373 0.0276,0.440973 0.0273,1.126837 0,1.524143 -0.0279,0.397305 -0.0505,0.03651 -0.0501,-0.80177 z m -2.76759,-2.494052 c 0,-1.143107 0.0217,-1.592304 0.0477,-0.998215 0.026,0.594087 0.0259,1.529357 0,2.078376 -0.0262,0.549019 -0.0475,0.06295 -0.0474,-1.080161 z m 2.6296,-17.111967 c 0,-0.876382 0.0225,-1.234902 0.05,-0.796711 0.0275,0.438191 0.0275,1.155231 0,1.593422 -0.0275,0.438191 -0.05,0.07967 -0.05,-0.796711 z m -2.7678,-2.078376 c 0,-1.181211 0.0212,-1.664434 0.0472,-1.073828 0.026,0.590605 0.026,1.55705 0,2.147655 -0.026,0.590606 -0.0472,0.107383 -0.0472,-1.073827 z m 2.62867,-17.527643 c 0,-0.838278 0.0231,-1.163346 0.0507,-0.722373 0.0276,0.440974 0.0273,1.126838 0,1.524143 -0.0279,0.397305 -0.0505,0.03651 -0.0501,-0.80177 z m -2.76759,-2.078376 c 0,-1.143107 0.0217,-1.592304 0.0477,-0.998216 0.026,0.594088 0.0259,1.529357 0,2.078377 -0.0262,0.549019 -0.0475,0.06295 -0.0473,-1.080161 z"
         id="path35" />
      <path
         style="fill:#10e866;stroke-width:0.138558"
         d="M 8.6877907,56.594411 8.280832,56.144096 8.7311469,56.551054 c 0.4197565,0.379343 0.5140036,0.493672 0.4069587,0.493672 -0.023846,0 -0.2264876,-0.202642 -0.4503149,-0.450315 z M 167.13808,39.672607 c 0,-0.02877 0.10912,-0.137886 0.24248,-0.242477 0.21977,-0.172349 0.22466,-0.167448 0.0523,0.05231 -0.18101,0.230804 -0.2948,0.304202 -0.2948,0.190163 z"
         id="path33" />
      <path
         style="fill:#2f8e89;stroke-width:0.138558"
         d="m 219.29112,61.755712 c 0,-1.105003 0.0215,-1.55705 0.0478,-1.004548 0.0263,0.552502 0.0263,1.456595 0,2.009097 -0.0263,0.552502 -0.0478,0.100455 -0.0478,-1.004549 z m -2.77563,-9.214136 c 0,-0.762071 0.0236,-1.05615 0.0517,-0.653508 0.0281,0.402643 0.0278,1.026156 0,1.385585 -0.0285,0.359429 -0.0514,0.02999 -0.0511,-0.732077 z m 2.63668,-10.391882 c 0,-1.0669 0.022,-1.485043 0.0483,-0.929208 0.0264,0.555836 0.0262,1.428754 0,1.939818 -0.0266,0.511065 -0.0482,0.05629 -0.0479,-1.01061 z m -2.77524,-8.86774 c 0,-0.762072 0.0236,-1.056151 0.0517,-0.653508 0.0281,0.402642 0.0278,1.026155 0,1.385584 -0.0284,0.359429 -0.0514,0.02999 -0.0511,-0.732076 z M 219.014,22.543675 c 0,-1.105004 0.0215,-1.55705 0.0478,-1.004549 0.0263,0.552502 0.0263,1.456596 0,2.009098 -0.0263,0.552501 -0.0478,0.100455 -0.0478,-1.004549 z"
         id="path31" />
      <path
         style="fill:#00e85c;stroke-width:0.138558"
         d="m 123.20347,70.144265 c -0.93565,-0.237897 -2.0463,-0.719228 -2.92851,-1.26915 l -0.65389,-0.407597 0.55243,-0.922417 0.55243,-0.922418 0.72519,0.320714 c 3.50812,1.55146 5.4847,0.158615 7.70989,-5.432947 0.31146,-0.782654 0.56629,-1.452931 0.56629,-1.489503 0,-0.03657 -0.21156,-0.06649 -0.47013,-0.06649 -0.25857,0 -0.50127,-0.07794 -0.53933,-0.173198 -0.2846,-0.712257 -9.03651,-23.425759 -9.18291,-23.832051 l -0.18722,-0.519594 h 1.8302 1.83019 l 3.79766,10.149405 c 2.08871,5.582173 3.8763,10.305284 3.97243,10.495802 0.13311,0.263818 0.19321,0.296849 0.25214,0.138558 0.0426,-0.114311 1.75357,-4.821834 3.80226,-10.461162 l 3.72489,-10.253324 1.88455,-0.03852 1.88453,-0.03852 -0.18837,0.523472 c -0.58503,1.625716 -10.68594,28.234121 -11.01875,29.026245 -0.94909,2.25891 -2.58425,4.216439 -4.10279,4.911646 -0.96662,0.442535 -2.64696,0.557572 -3.81318,0.26105 z M 16.317221,60.444505 C 13.266545,59.961989 10.814475,58.682859 8.6818955,56.461515 7.3797289,55.105149 6.594385,53.990995 5.7805588,52.34544 3.1601673,47.047013 3.1932838,39.316926 5.860448,33.697629 c 1.9369234,-4.080794 5.021204,-6.902719 8.800909,-8.052286 1.124922,-0.342135 1.452677,-0.378242 3.526403,-0.388486 2.576399,-0.01272 3.604315,0.156629 5.677734,0.935437 1.171716,0.440113 2.981964,1.43288 3.730212,2.045703 l 0.332369,0.272213 -0.745959,1.104901 c -0.410277,0.607696 -0.778073,1.088439 -0.817322,1.068318 -0.03925,-0.02012 -0.570175,-0.29361 -1.179833,-0.607752 -4.726491,-2.435453 -9.892702,-1.98922 -13.034965,1.125897 -2.7973688,2.773202 -4.0712785,6.465249 -4.0883451,11.848845 -0.01673,5.277415 1.1974858,8.611228 4.1468361,11.385765 1.22117,1.14879 2.714421,1.986357 4.316572,2.421175 1.272284,0.345293 4.41141,0.342462 5.750175,-0.0052 1.056546,-0.274361 3.18377,-1.222687 4.025195,-1.794451 l 0.528814,-0.359338 0.745155,1.112993 c 0.409835,0.612146 0.725735,1.170454 0.702002,1.240685 -0.0827,0.244725 -1.71354,1.381763 -2.786566,1.942825 -2.807512,1.467987 -5.933265,1.961972 -9.172613,1.449617 z m 25.7525,0.0076 c -1.285658,-0.245609 -1.862833,-0.437909 -2.959703,-0.9861 -2.295444,-1.14721 -4.17555,-3.140581 -5.340742,-5.662487 -1.588604,-3.438325 -1.624308,-8.328753 -0.08751,-11.986444 0.877918,-2.089508 2.817453,-4.318 4.748341,-5.455764 3.372128,-1.987006 8.42839,-1.963484 11.866475,0.0552 1.021851,0.599984 3.157555,2.733296 3.75433,3.750127 0.784717,1.337058 1.380788,2.890046 1.691811,4.407803 0.258355,1.260739 0.28863,1.759918 0.226889,3.741077 -0.07062,2.266211 -0.223225,3.150625 -0.826521,4.790139 -1.26357,3.433871 -4.377731,6.281397 -7.85806,7.185249 -1.222221,0.317416 -3.955371,0.401892 -5.215311,0.161197 z m 4.309838,-2.927009 c 2.532048,-0.659514 4.593417,-2.943739 5.50473,-6.099852 0.279167,-0.966825 0.317628,-1.403824 0.316378,-3.594678 -0.0016,-2.735383 -0.155206,-3.63023 -0.912278,-5.313208 -0.995822,-2.213719 -2.456992,-3.665585 -4.488311,-4.459732 -1.170709,-0.45769 -3.752068,-0.466935 -4.976918,-0.01782 -2.704233,0.991549 -4.5762,3.453539 -5.284767,6.950461 -0.295648,1.459084 -0.21556,4.999793 0.144166,6.373546 0.796956,3.043488 2.966812,5.47581 5.490309,6.154416 1.00213,0.269488 3.184754,0.273055 4.206691,0.0069 z m 23.975453,2.923428 c -3.383109,-0.667172 -5.987074,-2.726719 -7.566963,-5.984914 -2.081032,-4.2917 -1.726696,-10.748852 0.798618,-14.553398 1.527356,-2.301058 3.700966,-3.920268 6.240532,-4.648824 0.902241,-0.258835 1.415904,-0.309714 3.091145,-0.306172 1.803268,0.0038 2.123771,0.04237 3.128429,0.376384 1.094164,0.363773 2.236914,1.027401 3.279898,1.904734 l 0.519595,0.437069 v -5.251051 -5.25105 l 0.588873,-0.298043 c 0.32388,-0.163923 1.103271,-0.585297 1.73198,-0.936385 l 1.143107,-0.638342 v 17.327951 17.327949 h -1.282925 -1.282925 l -0.255857,-1.143107 c -0.140722,-0.628709 -0.285578,-1.192219 -0.321901,-1.252246 -0.03632,-0.06003 -0.463312,0.262488 -0.948862,0.716697 -0.960188,0.898209 -2.38383,1.673774 -3.736081,2.035327 -1.140791,0.305016 -3.901572,0.379019 -5.126663,0.137421 z m 4.729223,-2.903641 c 1.635761,-0.435552 3.424188,-1.720885 4.300459,-3.090718 l 0.461572,-0.721552 V 47.592919 41.453202 L 79.35808,40.728288 c -0.975084,-1.447916 -3.089932,-2.714224 -4.990207,-2.987986 -3.513643,-0.506192 -6.760311,1.469169 -8.252704,5.021172 -1.04583,2.489149 -1.200415,6.102755 -0.386687,9.039194 0.803883,2.900908 2.78616,5.025232 5.345832,5.728904 0.884763,0.243228 3.121908,0.251783 4.009921,0.01533 z m 95.933485,2.93973 c -0.49535,-0.07062 -1.46179,-0.315518 -2.14766,-0.544212 -3.68711,-1.229422 -6.51909,-4.310037 -7.56591,-8.230196 -0.37631,-1.409223 -0.51817,-4.841523 -0.26533,-6.41982 0.63468,-3.961704 2.87861,-7.42726 5.9607,-9.205771 0.34294,-0.197888 1.12233,-0.531431 1.73198,-0.741207 0.9978,-0.343333 1.30213,-0.382053 3.04829,-0.387841 2.77442,-0.0092 4.44741,0.516746 6.23178,1.9591 2.65207,2.14376 4.10138,5.557651 4.32532,10.188471 l 0.0854,1.76662 h -8.83893 -8.83895 l 0.0936,0.796711 c 0.30715,2.614769 1.42817,4.74225 3.25509,6.177564 1.69619,1.332602 3.46243,1.886968 6.02501,1.891059 1.96625,0.0031 3.5387,-0.363175 5.25592,-1.22442 l 1.29961,-0.651792 0.56892,0.973948 0.56892,0.973949 -0.43266,0.376419 c -0.5912,0.514343 -2.12533,1.304091 -3.33305,1.715798 -1.99196,0.67905 -4.75685,0.909438 -7.02807,0.58562 z m 7.66567,-15.182736 c -0.34605,-3.747166 -1.84665,-6.277988 -4.30534,-7.261123 -0.67506,-0.269931 -1.05249,-0.319168 -2.46689,-0.32182 -1.64762,-0.0031 -1.68364,0.0037 -2.70189,0.506956 -2.17834,1.076683 -3.62773,3.122807 -4.22569,5.965445 -0.11054,0.525504 -0.20099,1.169614 -0.20099,1.431358 v 0.475895 h 6.98718 6.9872 z m 18.22133,15.212906 c -3.47348,-0.636218 -6.13667,-2.644967 -7.74338,-5.840576 -1.9442,-3.866796 -1.97417,-9.35532 -0.0729,-13.355885 1.93617,-4.074106 5.64031,-6.442967 10.07471,-6.442967 2.31013,0 4.67127,0.819168 6.17018,2.140665 0.39333,0.346777 0.75185,0.630504 0.79672,0.630504 0.0448,0 0.0815,-2.35625 0.0815,-5.236113 V 27.17432 l 1.65149,-0.929738 c 0.90832,-0.511356 1.68771,-0.929738 1.73198,-0.929738 0.0443,0 0.0805,7.793912 0.0805,17.319804 v 17.319805 h -1.31097 -1.31096 l -0.1389,-0.519594 c -0.0764,-0.285777 -0.20868,-0.846939 -0.29395,-1.247026 -0.17001,-0.797781 -0.2865,-0.880154 -0.60385,-0.427057 -0.64124,0.915484 -2.59447,2.100829 -4.1792,2.536195 -0.95097,0.261256 -3.96844,0.394502 -4.93297,0.217833 z m 4.52173,-2.989684 c 0.4485,-0.116818 1.12937,-0.381811 1.51305,-0.588873 0.94508,-0.510034 2.37934,-1.872926 2.86855,-2.72581 l 0.40091,-0.698951 v -5.888734 -5.888734 l -0.40362,-0.703705 c -1.20075,-2.093433 -4.03685,-3.51574 -6.66026,-3.340116 -2.00696,0.134356 -3.44266,0.796717 -4.86548,2.244704 -1.33414,1.357726 -2.12313,2.920278 -2.55784,5.065667 -0.32672,1.612435 -0.21396,5.160109 0.21059,6.625561 0.89696,3.096083 2.60295,4.98897 5.27291,5.850566 0.97741,0.315409 3.10258,0.339789 4.22119,0.04843 z M 92.177967,47.692031 V 35.42961 h 1.73198 1.731981 v 12.262421 12.262422 h -1.731981 -1.73198 z m 13.855843,1.454864 V 38.339337 h -1.73198 -1.73198 V 36.884473 35.42961 h 1.71381 1.71381 l 0.0737,-2.597971 c 0.0797,-2.809378 0.24698,-3.727345 0.89656,-4.920834 0.5097,-0.936479 1.66369,-1.955523 2.63439,-2.326322 1.08515,-0.414516 3.09578,-0.514568 4.36136,-0.217029 1.0122,0.23797 2.50087,0.867213 3.15702,1.334429 l 0.41195,0.293338 -0.57484,0.857151 c -0.31617,0.471434 -0.59087,0.877628 -0.61044,0.902653 -0.0196,0.02502 -0.48094,-0.115143 -1.02525,-0.311486 -1.84872,-0.666868 -3.5393,-0.611719 -4.54379,0.148227 -0.94909,0.718029 -1.27763,2.00255 -1.27934,5.001944 l -0.001,1.8359 h 3.11757 3.11756 v 1.454863 1.454864 h -3.11756 -3.11757 v 10.807558 10.807558 h -1.73198 -1.73198 z m 38.6578,-2.078377 v -1.385584 h 6.0273 6.02729 v 1.385584 1.385585 h -6.02729 -6.0273 z M 92.908786,29.458685 c -1.369377,-0.677832 -1.658144,-2.503932 -0.560298,-3.543206 0.622264,-0.589067 0.959075,-0.73928 1.656269,-0.738675 1.91824,0.0017 2.983823,2.274169 1.733887,3.697765 -0.786039,0.89525 -1.784809,1.101407 -2.829858,0.584116 z"
         id="path29" />
      <path
         style="fill:#1d7a81;stroke-width:0.138558"
         d="m 216.65186,68.822193 c 0,-0.647761 0.0239,-0.912754 0.053,-0.588874 0.0292,0.323881 0.0292,0.853867 0,1.177747 -0.0292,0.32388 -0.053,0.05889 -0.053,-0.588873 z m 2.64242,-2.424773 c -1.3e-4,-1.524143 0.0201,-2.166561 0.045,-1.427594 0.0249,0.738966 0.0249,1.985991 0,2.771169 -0.0248,0.785176 -0.0451,0.180568 -0.0452,-1.343575 z m -2.77879,-16.765571 c 0,-0.762071 0.0236,-1.05615 0.0517,-0.653508 0.0281,0.402643 0.0278,1.026156 0,1.385585 -0.0285,0.359428 -0.0514,0.02999 -0.0511,-0.732077 z m 2.64023,-2.909727 c -1.3e-4,-1.524143 0.0201,-2.166561 0.045,-1.427594 0.0249,0.738966 0.025,1.985992 0,2.771169 -0.0247,0.785176 -0.0451,0.180568 -0.0452,-1.343575 z M 216.37816,30.09511 c 0,-0.838279 0.0231,-1.163347 0.0507,-0.722373 0.0276,0.440973 0.0273,1.126837 0,1.524143 -0.0279,0.397305 -0.0505,0.03651 -0.0501,-0.80177 z m 2.639,-2.909727 c -1.2e-4,-1.524143 0.0201,-2.166561 0.045,-1.427594 0.0249,0.738965 0.0249,1.985991 0,2.771168 -0.0248,0.785176 -0.0451,0.180568 -0.0452,-1.343574 z"
         id="path27" />
      <path
         style="fill:#06517a;stroke-width:0.138558"
         d="m 219.2682,69.514985 c 0,-0.266725 0.0285,-0.37584 0.0634,-0.242477 0.0349,0.133362 0.0349,0.351592 0,0.484954 -0.0348,0.133363 -0.0634,0.02425 -0.0634,-0.242477 z m -2.60935,-3.810357 c 0,-1.143107 0.0217,-1.592304 0.0477,-0.998215 0.026,0.594087 0.0259,1.529356 0,2.078376 -0.0262,0.549019 -0.0475,0.06295 -0.0473,-1.080161 z m -0.0554,-7.205039 c 0,-1.587648 0.0274,-2.85925 0.0609,-2.82578 0.16688,0.166884 0.36087,1.772577 0.40783,3.375569 0.0277,0.946601 -0.16869,2.036848 -0.4105,2.278664 -0.032,0.032 -0.0582,-1.240805 -0.0582,-2.828453 z m 2.55228,-6.373688 c -1.3e-4,-1.524143 0.0201,-2.166561 0.045,-1.427594 0.0249,0.738966 0.025,1.985992 0,2.771169 -0.0247,0.785176 -0.0451,0.180568 -0.0452,-1.343575 z m -2.63656,-5.611617 c 0,-1.028796 0.0218,-1.449667 0.0485,-0.935269 0.0267,0.514398 0.0267,1.356141 0,1.870539 -0.0267,0.514398 -0.0485,0.09353 -0.0485,-0.93527 z m 2.498,-13.925122 c -1.2e-4,-1.524143 0.0201,-2.166561 0.045,-1.427594 0.0249,0.738965 0.0249,1.985991 0,2.771168 -0.0248,0.785176 -0.0451,0.180568 -0.0452,-1.343574 z m -2.63656,-5.750175 c 0,-1.028797 0.0218,-1.449668 0.0485,-0.93527 0.0267,0.514398 0.0267,1.356141 0,1.870539 -0.0267,0.514398 -0.0485,0.09353 -0.0485,-0.935269 z m 2.47752,-11.638909 c 0,-0.342932 0.027,-0.483223 0.06,-0.311757 0.033,0.171466 0.033,0.452047 0,0.623513 -0.033,0.171466 -0.06,0.03118 -0.06,-0.311756 z"
         id="path25" />
      <path
         style="fill:#003579;stroke-width:0.138558"
         d="m 217.12304,70.552153 -0.38104,-0.214667 -0.004,-3.009222 c -0.002,-1.655071 -0.0371,-3.632733 -0.0776,-4.394805 -0.0607,-1.142228 -0.028,-1.507262 0.18624,-2.078376 0.19,-0.506614 0.25087,-0.990678 0.2265,-1.80126 -0.0365,-1.214377 -0.13662,-2.30233 -0.26134,-2.840448 -0.0442,-0.190518 -0.10915,-0.595801 -0.14446,-0.90063 -0.0525,-0.453974 -0.341,-33.70954 -0.341,-39.316159 v -1.620742 l 0.43863,-0.226828 c 0.53021,-0.274178 1.55822,-0.198312 1.89651,0.139959 0.20908,0.209085 0.24414,2.560141 0.41865,28.085921 0.17188,25.140603 0.16951,27.878679 -0.0243,28.07249 -0.30692,0.306914 -1.46277,0.369567 -1.93279,0.104767 z"
         id="path23" />
    </g>
  </g>
</svg>
