<?xml version="1.0" encoding="UTF-8" standalone="no"?>
<!-- Created with Inkscape (http://www.inkscape.org/) -->

<svg
   width="550"
   height="400"
   viewBox="0 0 145.52082 105.83334"
   version="1.1"
   id="svg5"
   inkscape:version="1.1.2 (b8e25be833, 2022-02-05)"
   sodipodi:docname="logo-empresa-petit.svg"
   xmlns:inkscape="http://www.inkscape.org/namespaces/inkscape"
   xmlns:sodipodi="http://sodipodi.sourceforge.net/DTD/sodipodi-0.dtd"
   xmlns="http://www.w3.org/2000/svg"
   xmlns:svg="http://www.w3.org/2000/svg">
  <sodipodi:namedview
     id="namedview7"
     pagecolor="#ffffff"
     bordercolor="#666666"
     borderopacity="1.0"
     inkscape:pageshadow="2"
     inkscape:pageopacity="0.0"
     inkscape:pagecheckerboard="0"
     inkscape:document-units="mm"
     showgrid="false"
     units="px"
     inkscape:zoom="0.7703518"
     inkscape:cx="180.14786"
     inkscape:cy="225.20356"
     inkscape:window-width="1920"
     inkscape:window-height="1001"
     inkscape:window-x="-9"
     inkscape:window-y="-9"
     inkscape:window-maximized="1"
     inkscape:current-layer="layer1" />
  <defs
     id="defs2" />
  <g
     inkscape:label="Capa 1"
     inkscape:groupmode="layer"
     id="layer1">
    <g
       id="g916"
       transform="translate(-1.0683456,-2.4928016)">
      <path
         style="fill:#94e0e7;stroke-width:0.264583"
         d="M 58.369376,51.557345 57.627019,50.918797 V 39.657109 28.395422 l 0.720635,-0.720634 c 0.603226,-0.603229 1.001958,-0.738548 2.447395,-0.830587 l 1.726761,-0.109951 0.0082,-2.548865 c 0.01826,-5.693482 0.912244,-8.603455 3.410709,-11.101923 2.380605,-2.380603 5.019133,-3.3581985 8.561899,-3.1722507 2.832796,0.1486837 5.054722,1.1370477 7.056623,3.1389497 2.561915,2.561915 3.425182,5.320511 3.443525,11.003897 l 0.0087,2.682122 1.883982,0.106455 c 1.662903,0.09396 1.957858,0.192342 2.513541,0.838361 l 0.629561,0.731907 V 39.49035 50.567795 l -0.68505,0.814049 -0.684979,0.814052 H 73.890128 59.111736 Z m 17.646185,-7.298949 c 0.485068,-0.485069 0.529166,-0.881944 0.529166,-4.762501 0,-5.103262 -0.09211,-5.291666 -2.586961,-5.291666 -2.677871,0 -2.704705,0.0525 -2.704705,5.291666 0,4.317077 0.01984,4.481817 0.588039,4.87979 0.898088,0.629047 3.501265,0.555906 4.174461,-0.117289 z m 3.96875,-20.854952 c 0,-2.383415 -0.123106,-3.753741 -0.413885,-4.607135 -1.444236,-4.238605 -7.15078,-5.438 -10.20539,-2.144958 -1.436291,1.548402 -1.651534,2.324763 -1.76725,6.374231 l -0.107738,3.770313 h 6.247133 6.24713 z"
         id="path926"
         sodipodi:nodetypes="ccccssccsssccssccccccccsssssssssscccs" />
      <path
         style="fill:#10e866;stroke-width:0.264583"
         d="m 83.212362,101.67424 c -1.029231,-0.46711 -1.109196,-0.5693 -0.839605,-1.07304 0.182166,-0.34038 0.45388,-0.49693 0.699133,-0.40282 2.325232,0.89227 3.658761,0.0153 4.944406,-3.251572 0.400355,-1.017326 0.407512,-1.190006 0.06032,-1.455209 -0.333058,-0.254402 -5.975634,-14.465787 -5.975634,-15.050225 0,-0.109805 0.467696,-0.199644 1.039324,-0.199644 1.02362,0 1.047826,0.02299 1.602139,1.521354 3.211531,8.681149 4.385016,11.66277 4.52669,11.501546 0.09212,-0.104833 1.212215,-3.077874 2.489092,-6.606754 l 2.321594,-6.416146 h 1.150469 1.150472 l -0.541742,1.374407 c -0.297958,0.755925 -1.911758,5.01241 -3.586223,9.458855 -1.674464,4.446444 -3.338709,8.53558 -3.69832,9.086968 -1.292463,1.9817 -3.149481,2.5074 -5.34211,1.51228 z M 15.620304,95.845458 C 9.8681808,94.394383 6.8560567,87.251765 9.1149342,80.419342 c 1.0097548,-3.054205 3.0092198,-5.348303 5.4711878,-6.277409 1.938549,-0.731576 4.813526,-0.620041 6.850794,0.265777 1.798905,0.782174 2.111883,1.156903 1.664478,1.992889 l -0.341847,0.638744 -0.9632,-0.491387 c -3.451828,-1.760993 -7.362177,-0.883621 -9.262847,2.078315 -1.896087,2.954796 -2.154775,8.047215 -0.572099,11.262088 0.472826,0.960446 1.269144,2.063189 1.814488,2.512708 2.132301,1.757622 5.290787,2.045862 7.904566,0.721358 l 1.326577,-0.672227 0.423488,0.716907 c 0.413782,0.700479 0.404223,0.73007 -0.417091,1.291259 -1.989498,1.359387 -5.151372,1.952617 -7.393125,1.387094 z m 15.990962,-0.232793 c -1.729287,-0.597234 -3.270389,-2.046936 -4.20369,-3.954376 -0.585572,-1.196766 -0.692711,-1.771562 -0.692711,-3.716356 0,-1.908254 0.114585,-2.546733 0.671853,-3.743645 1.324648,-2.845099 3.528686,-4.301427 6.560092,-4.334608 2.372603,-0.02598 3.929586,0.623917 5.392232,2.250734 1.472983,1.63831 2.016101,3.200839 2.016101,5.800233 0,2.800093 -0.566481,4.30516 -2.256478,5.995157 -2.11723,2.117227 -4.631736,2.689103 -7.487399,1.702861 z m 5.31422,-2.207282 c 1.516917,-1.157009 2.180699,-2.830483 2.180699,-5.497798 0,-1.900145 -0.106622,-2.46321 -0.675915,-3.569454 -0.958903,-1.863331 -2.439872,-2.849079 -4.280395,-2.849079 -2.3064,0 -3.829946,1.115566 -4.70022,3.441582 -1.243856,3.324505 -0.33128,7.089404 2.122201,8.755295 0.78676,0.534202 1.17263,0.610674 2.668735,0.5289 1.401899,-0.07662 1.934722,-0.23726 2.684895,-0.809446 z m 12.896324,2.304794 c -2.715408,-0.843151 -4.483516,-3.422349 -4.704279,-6.862287 -0.295357,-4.602294 1.902257,-8.059568 5.657205,-8.899887 1.782252,-0.398852 3.745757,-0.01955 5.050478,0.975598 l 0.875763,0.667975 V 78.26693 74.942284 l 0.859896,-0.524287 c 0.472942,-0.288359 0.949192,-0.524735 1.058333,-0.525278 0.109141,-5.45e-4 0.198438,4.880573 0.198438,10.846928 v 10.847917 h -0.772727 c -0.642638,0 -0.801939,-0.132996 -0.94624,-0.789988 l -0.173508,-0.789988 -0.971992,0.767916 c -1.662695,1.313604 -3.841385,1.645727 -6.131367,0.934673 z m 4.581456,-1.741861 c 0.317855,-0.162983 0.964872,-0.662591 1.437815,-1.110236 l 0.859896,-0.813904 v -4.12256 c 0,-4.664499 -0.08495,-4.922377 -1.935713,-5.876272 -2.676173,-1.379312 -5.69813,-0.149727 -6.94694,2.826594 -0.285475,0.680382 -0.444653,1.789288 -0.445725,3.105132 -0.0021,2.669641 0.955657,4.78006 2.581503,5.687912 1.174395,0.655767 3.458175,0.811469 4.449164,0.303334 z m 59.397324,1.795389 c -4.22016,-1.193332 -6.46714,-5.838952 -5.0813,-10.505586 1.22336,-4.119507 4.69522,-6.248403 8.42283,-5.16476 2.72217,0.791356 4.36455,3.186671 4.59177,6.696809 l 0.12418,1.918229 h -5.59105 c -6.21562,0 -5.88939,-0.118388 -5.18389,1.881214 0.84016,2.381266 2.82748,3.663415 5.67826,3.663415 1.15129,0 2.10307,-0.173905 2.87926,-0.526084 1.10274,-0.500345 1.17675,-0.503296 1.51294,-0.06033 0.53119,0.69991 0.48426,0.767953 -1.04629,1.516779 -1.72864,0.845746 -4.47451,1.09841 -6.30671,0.580319 z m 5.87122,-9.388536 c 0,-0.264629 -0.17988,-1.086861 -0.39973,-1.827181 -1.1576,-3.898056 -5.93571,-4.258956 -7.80842,-0.589786 -0.2634,0.516094 -0.56164,1.379297 -0.66275,1.91823 l -0.18382,0.979881 h 4.52736 c 4.20035,0 4.52736,-0.03475 4.52736,-0.481144 z m 10.58334,9.350867 c -1.6268,-0.526799 -3.05673,-1.778177 -3.89244,-3.406389 -0.92218,-1.796672 -1.14539,-5.174578 -0.49074,-7.4265 0.82143,-2.825628 3.89514,-5.185299 6.7463,-5.179107 1.1375,0.0024 2.74899,0.543988 3.65615,1.228595 l 0.85989,0.648941 v -3.404045 -3.404044 l 0.93502,-0.445879 c 0.51426,-0.245232 0.99051,-0.445878 1.05833,-0.445878 0.0678,0 0.12332,4.881562 0.12332,10.847917 v 10.847917 h -0.80037 c -0.68042,0 -0.82453,-0.120851 -0.96165,-0.806421 -0.16086,-0.804326 -0.16273,-0.805093 -0.72098,-0.295532 -1.55387,1.418336 -4.33041,1.947154 -6.51283,1.240425 z m 4.58491,-1.822289 c 0.47506,-0.198493 1.18561,-0.74341 1.579,-1.210924 0.70897,-0.842565 0.71525,-0.885502 0.71525,-4.892132 0,-3.882181 -0.0247,-4.068795 -0.6251,-4.716608 -1.41163,-1.523167 -3.93916,-2.046 -5.63973,-1.166607 -1.79845,0.930019 -3.26017,3.57526 -3.26017,5.899878 0,2.627961 1.24112,5.156695 2.94224,5.994723 1.0894,0.53667 3.11961,0.58007 4.28851,0.09167 z m -70.201583,-5.9891 V 80.24173 h 1.058333 1.058334 v 7.672917 7.672917 H 65.69681 64.638477 Z m 8.73125,0.79375 V 81.82923 h -1.058333 c -0.999538,0 -1.058333,-0.0441 -1.058333,-0.79375 0,-0.744752 0.063,-0.79375 1.020527,-0.79375 h 1.020524 l 0.143761,-2.0974 c 0.165606,-2.416146 0.6867,-3.519125 1.94459,-4.116033 1.057156,-0.501653 2.758297,-0.515236 3.916587,-0.03127 1.093494,0.45689 1.289712,0.750588 0.875224,1.310029 -0.270201,0.364694 -0.485318,0.389578 -1.331762,0.154051 -2.300489,-0.640115 -3.356118,0.403185 -3.356118,3.316917 v 1.463707 h 1.984375 1.984375 v 0.79375 0.79375 h -1.984375 -1.984375 v 6.879167 6.879167 H 74.428061 73.369727 Z M 97.975978,87.517772 V 86.59173 h 3.836462 3.83645 v 0.926042 0.926041 h -3.83645 -3.836462 z M 64.651756,75.892104 c -0.42791,-0.515599 -0.249184,-1.749848 0.303488,-2.09582 0.747861,-0.468159 1.915986,0.09708 2.017456,0.976212 0.109757,0.950944 -0.357526,1.500484 -1.27589,1.500484 -0.400925,0 -0.871201,-0.171395 -1.045054,-0.380876 z M 49.708865,64.983195 c -0.09348,-0.243588 -0.01712,-0.538585 0.170129,-0.657407 0.186831,-0.118547 11.010972,-0.217363 24.05365,-0.219591 21.269098,-0.0036 23.749641,0.03894 24.060069,0.412991 0.286842,0.345622 0.281064,0.4582 -0.03375,0.657405 -0.220355,0.139435 -10.394858,0.242067 -24.230201,0.244419 -22.037824,0.0038 -23.863224,-0.02953 -24.019899,-0.437817 z"
         id="path920" />
      <path
         style="fill:#00e85c;stroke-width:0.264583"
         d="m 83.212362,101.67424 c -1.029231,-0.46711 -1.109196,-0.5693 -0.839605,-1.07304 0.20119,-0.37593 0.441767,-0.49866 0.740699,-0.37788 0.243501,0.0984 0.890032,0.24247 1.436735,0.32019 0.881573,0.12532 1.093965,0.0353 1.877708,-0.795696 0.486035,-0.515348 1.155933,-1.607733 1.48866,-2.427518 0.536559,-1.321996 0.559332,-1.526654 0.201411,-1.810065 -0.32027,-0.2536 -6.016993,-14.572745 -6.016993,-15.124166 0,-0.07939 0.45688,-0.144335 1.015286,-0.144335 h 1.015286 l 2.470025,6.621772 c 1.358517,3.641974 2.556455,6.52924 2.662085,6.416146 0.105632,-0.113093 1.235614,-3.092892 2.511075,-6.621772 l 2.319018,-6.416146 h 1.015071 c 0.55829,0 1.015071,0.106778 1.015071,0.237286 0,0.497052 -6.693979,17.949689 -7.365005,19.202141 -1.278271,2.385863 -3.177405,3.068303 -5.546527,1.993083 z M 15.447504,95.712143 C 13.566901,95.185937 12.530762,94.521295 11.086089,92.91447 7.8794092,89.347871 7.5138879,82.666051 10.268346,77.965924 c 1.022613,-1.744956 3.136914,-3.481223 4.843225,-3.977262 2.05846,-0.59841 4.624181,-0.358433 6.584438,0.615855 1.663719,0.826905 1.839432,1.067565 1.309053,1.792902 -0.356303,0.487272 -0.401557,0.484383 -1.789504,-0.114247 -2.959794,-1.276581 -6.388368,-0.632958 -8.176525,1.534919 -1.950379,2.364549 -2.69247,7.293462 -1.626485,10.802988 0.639474,2.105327 1.925765,3.778742 3.578835,4.655926 1.675552,0.889114 4.876609,0.837147 6.699815,-0.108768 l 1.348322,-0.699534 0.354798,0.662948 c 0.328262,0.613362 0.295851,0.710001 -0.433334,1.292056 -1.741421,1.390044 -5.095036,1.965134 -7.51348,1.288436 z m 16.599744,0.05005 c -3.224927,-0.906254 -5.285988,-3.897144 -5.316678,-7.715251 -0.01919,-2.387375 0.612809,-4.267795 1.941832,-5.777645 1.495217,-1.698654 3.099904,-2.409666 5.406699,-2.395622 2.112116,0.01286 3.294671,0.437697 4.732589,1.700204 1.63821,1.438371 2.356946,3.16357 2.489692,5.976089 0.103802,2.199275 0.04921,2.557605 -0.615156,4.038018 -1.547585,3.448478 -5.104932,5.167328 -8.638978,4.174207 z m 4.566117,-2.099152 c 2.332559,-1.57191 3.230023,-4.938302 2.221712,-8.333655 -0.741606,-2.497259 -2.404904,-3.84033 -4.755976,-3.84033 -2.937433,0 -4.847224,2.127454 -5.101627,5.683073 -0.219195,3.063542 0.730729,5.39331 2.684878,6.584892 1.226391,0.747816 3.77362,0.699466 4.951013,-0.09398 z m 13.825448,2.214214 C 48.898954,95.484153 47.264358,94.31656 46.433021,93.01591 45.33627,91.300021 44.954802,89.609498 45.13292,87.254362 c 0.245493,-3.24598 1.545238,-5.417535 3.99575,-6.675925 2.300627,-1.181417 5.328217,-0.89939 7.109286,0.662252 0.437949,0.383993 0.463021,0.22583 0.463021,-2.920743 v -3.32672 l 0.891124,-0.550746 c 0.49012,-0.302911 0.96637,-0.550746 1.058334,-0.550746 0.09197,0 0.167209,4.881562 0.167209,10.847917 v 10.847917 h -0.760678 c -0.642418,0 -0.786728,-0.130249 -0.928237,-0.837806 l -0.167564,-0.837809 -0.593113,0.542275 c -1.390497,1.271304 -4.036222,1.906283 -5.929239,1.423027 z m 4.41008,-2.167539 c 1.781093,-1.063519 1.839678,-1.247645 1.846199,-5.802339 0.0065,-4.556974 -0.06421,-4.793993 -1.739952,-5.829657 -1.14648,-0.708562 -3.297339,-0.793872 -4.478063,-0.177612 -2.029142,1.059074 -3.104933,3.083671 -3.125594,5.882251 -0.02125,2.876862 0.865473,4.937019 2.573133,5.978322 1.168699,0.712649 3.689128,0.686564 4.924277,-0.05097 z M 113.88951,95.7008 c -2.25095,-0.605539 -3.81788,-1.966447 -4.85226,-4.214278 -0.83805,-1.821201 -0.84793,-5.24578 -0.0204,-7.073197 1.62025,-3.577902 4.28225,-5.127482 7.6186,-4.434858 2.8615,0.594045 4.82782,3.274264 5.09439,6.943992 l 0.12973,1.785938 h -5.5918 c -4.29784,0 -5.59146,0.07653 -5.59032,0.330729 0.007,1.679485 1.74185,4.190225 3.36346,4.869093 1.29183,0.540808 4.21925,0.445085 5.60414,-0.183251 0.64013,-0.290433 1.18955,-0.496175 1.22093,-0.45721 0.0314,0.03897 0.18664,0.320434 0.34502,0.625483 0.25749,0.495935 0.17027,0.613317 -0.82405,1.109072 -2.23823,1.115944 -4.17263,1.323896 -6.49744,0.698487 z m 5.78083,-9.439799 c -0.005,-2.155637 -1.6892,-4.464878 -3.50034,-4.800375 -2.197,-0.40698 -4.57531,1.171786 -5.21036,3.458731 -0.56878,2.048325 -0.81109,1.936956 4.21425,1.936956 4.48856,0 4.49792,-0.0013 4.49645,-0.595312 z m 10.58481,9.449176 c -1.59779,-0.496123 -2.8965,-1.622753 -3.84536,-3.335833 -0.73664,-1.329938 -0.78485,-1.595784 -0.78485,-4.327406 0,-2.647452 0.0642,-3.032098 0.71061,-4.257151 1.36963,-2.595695 3.47443,-3.893447 6.34298,-3.910878 1.52821,-0.0093 1.94061,0.10036 3.10886,0.826585 l 1.34692,0.837295 v -3.300251 -3.300254 l 0.8599,-0.524287 c 0.47294,-0.288359 0.94919,-0.524735 1.05833,-0.525278 0.10914,-5.45e-4 0.19844,4.880573 0.19844,10.846928 v 10.847917 h -0.77273 c -0.63957,0 -0.8021,-0.133753 -0.94321,-0.776198 l -0.17048,-0.776197 -1.12533,0.793207 c -1.80805,1.274432 -3.78255,1.565389 -5.98408,0.881801 z m 4.74412,-1.832901 c 0.412,-0.213056 1.06093,-0.757971 1.44207,-1.210927 0.68258,-0.811202 0.69297,-0.885277 0.69297,-4.939199 v -4.115647 l -0.9063,-0.854758 c -2.48102,-2.339898 -6.62932,-1.368361 -7.98216,1.86943 -0.9158,2.191829 -0.67194,5.812033 0.50961,7.565334 0.98242,1.457823 2.14981,2.073138 3.9332,2.073138 0.85883,0 1.89861,-0.174318 2.31061,-0.387371 z M 64.638477,87.914647 V 80.24173 h 1.058333 1.058334 v 7.672917 7.672917 H 65.69681 64.638477 Z m 8.73125,0.79375 V 81.82923 h -1.058333 c -0.999538,0 -1.058333,-0.0441 -1.058333,-0.79375 0,-0.745157 0.06266,-0.79375 1.023538,-0.79375 h 1.02354 l 0.123436,-1.923428 c 0.147818,-2.303291 0.570085,-3.277407 1.771216,-4.085966 1.119513,-0.753616 2.654935,-0.78182 4.207301,-0.07729 1.029232,0.467111 1.109197,0.569307 0.839605,1.073044 -0.202356,0.378106 -0.440033,0.498346 -0.740698,0.374716 -1.160351,-0.477115 -2.56917,-0.439904 -3.217378,0.08498 -0.56805,0.459981 -0.664808,0.786289 -0.753409,2.540847 l -0.101656,2.01309 h 2.013294 2.013294 v 0.79375 0.79375 h -1.984375 -1.984375 v 6.879167 6.879167 H 74.428061 73.369727 Z M 97.975978,87.517772 V 86.59173 h 3.836462 3.83645 v 0.926042 0.926041 h -3.83645 -3.836462 z M 64.691394,75.95548 c -0.748261,-0.74826 -0.06596,-2.328334 1.005416,-2.328334 1.071372,0 1.753677,1.580074 1.005417,2.328334 -0.174625,0.174625 -0.627062,0.3175 -1.005417,0.3175 -0.378354,0 -0.830791,-0.142875 -1.005416,-0.3175 z M 49.881021,65.113857 c -0.227256,-0.227256 -0.232791,-0.405685 -0.02053,-0.661458 0.237236,-0.285851 4.653487,-0.350253 24.017871,-0.350253 24.320307,0 24.848431,0.02135 24.058912,0.972664 -0.401937,0.484301 -47.57268,0.522632 -48.056264,0.03905 z"
         id="path918" />
    </g>
  </g>
</svg>
