<?xml version="1.0" encoding="UTF-8" standalone="no"?>
<!-- Created with Inkscape (http://www.inkscape.org/) -->

<svg
   width="1721"
   height="349"
   viewBox="0 0 455.34769 92.339555"
   version="1.1"
   id="svg5"
   inkscape:version="1.1.2 (b8e25be833, 2022-02-05)"
   sodipodi:docname="logo.svg"
   xmlns:inkscape="http://www.inkscape.org/namespaces/inkscape"
   xmlns:sodipodi="http://sodipodi.sourceforge.net/DTD/sodipodi-0.dtd"
   xmlns="http://www.w3.org/2000/svg"
   xmlns:svg="http://www.w3.org/2000/svg">
  <sodipodi:namedview
     id="namedview7"
     pagecolor="#ffffff"
     bordercolor="#666666"
     borderopacity="1.0"
     inkscape:pageshadow="2"
     inkscape:pageopacity="0.0"
     inkscape:pagecheckerboard="0"
     inkscape:document-units="mm"
     showgrid="false"
     units="px"
     width="1271px"
     inkscape:zoom="0.3599046"
     inkscape:cx="354.26054"
     inkscape:cy="232.00592"
     inkscape:window-width="1920"
     inkscape:window-height="1001"
     inkscape:window-x="-9"
     inkscape:window-y="-9"
     inkscape:window-maximized="1"
     inkscape:current-layer="layer1" />
  <defs
     id="defs2" />
  <g
     inkscape:label="Capa 1"
     inkscape:groupmode="layer"
     id="layer1">
    <g
       id="g21"
       transform="translate(-4.4415759e-7,-1.4702929)">
      <path
         style="fill:#eafbf3;stroke-width:0.352778"
         d="m 394.12464,88.639298 c 0.82977,-0.07452 2.09977,-0.07347 2.82222,0.0025 0.72249,0.0758 0.0436,0.136775 -1.50862,0.135495 -1.55222,-0.0014 -2.14334,-0.0633 -1.3136,-0.137827 z m 51.51829,0.01778 c 0.25467,-0.101907 0.55894,-0.08938 0.67617,0.02783 0.11723,0.117225 -0.0912,0.200604 -0.46302,0.185286 -0.41099,-0.01693 -0.49456,-0.10052 -0.21315,-0.213134 z M 386.5385,83.606394 c 0,-0.873125 0.0688,-1.230312 0.15286,-0.79375 0.0841,0.436563 0.0841,1.150938 0,1.5875 -0.0841,0.436563 -0.15286,0.07937 -0.15286,-0.79375 z m 65.32492,-14.816666 c 0,-6.111875 0.048,-8.612187 0.10679,-5.55625 0.0587,3.055937 0.0587,8.056562 0,11.1125 -0.0587,3.055937 -0.10679,0.555625 -0.10679,-5.55625 z m -30.58421,4.352473 c 0.24254,-0.09786 0.63941,-0.09786 0.88195,0 0.24253,0.09786 0.0441,0.177938 -0.44097,0.177938 -0.48507,0 -0.68351,-0.08007 -0.44098,-0.177938 z m 3.06028,-11.055251 c 0,-4.171597 0.051,-5.878159 0.11338,-3.792361 0.0624,2.085799 0.0624,5.498924 0,7.584722 -0.0624,2.085799 -0.11338,0.379236 -0.11338,-3.792361 z m -406.39567,3.439583 -1.03614,-1.146527 1.146527,1.03614 c 0.630591,0.569877 1.146528,1.085815 1.146528,1.146528 0,0.272542 -0.291087,0.0326 -1.256915,-1.036141 z M 354.14287,54.325839 c 0,-5.723819 0.0485,-8.065381 0.10781,-5.203472 0.0593,2.86191 0.0593,7.545035 0,10.406944 -0.0593,2.86191 -0.10781,0.520348 -0.10781,-5.203472 z M 186.92425,47.623062 c 0,-5.141736 0.0493,-7.245174 0.1096,-4.674306 0.0603,2.570868 0.0603,6.777743 0,9.348611 -0.0603,2.570868 -0.1096,0.467431 -0.1096,-4.674305 z m 97.30079,8.912916 c 0.92164,-0.07267 2.42976,-0.07267 3.35139,0 0.92164,0.07267 0.16757,0.132129 -1.67569,0.132129 -1.84326,0 -2.59733,-0.05946 -1.6757,-0.132129 z m 23.98889,0 c 0.92164,-0.07267 2.42976,-0.07267 3.35139,0 0.92163,0.07267 0.16757,0.132129 -1.67569,0.132129 -1.84327,0 -2.59733,-0.05946 -1.6757,-0.132129 z m -60.61881,-0.92438 c -0.10091,-0.262971 -0.12652,-1.493284 -0.0569,-2.734028 l 0.12657,-2.255897 0.068,2.528242 c 0.044,1.637449 0.22334,2.590934 0.50894,2.706175 0.34539,0.139369 0.34299,0.183974 -0.0111,0.205786 -0.24862,0.01531 -0.53461,-0.187307 -0.63552,-0.450278 z m 19.7033,0.233659 c 0.34325,-0.08944 0.8195,-0.08356 1.05834,0.01309 0.23884,0.09664 -0.042,0.169816 -0.62408,0.162627 -0.58208,-0.0072 -0.7775,-0.08625 -0.43426,-0.175698 z m 146.68849,-1.019648 c 0.0169,-0.410968 0.10054,-0.494559 0.21315,-0.213138 0.10191,0.25466 0.0894,0.558931 -0.0279,0.676159 -0.11723,0.117224 -0.20063,-0.09114 -0.18532,-0.463021 z M 288.63477,51.59238 c 3.34698,-0.05798 8.82385,-0.05798 12.17083,0 3.34698,0.05798 0.60854,0.10542 -6.08542,0.10542 -6.69395,0 -9.43239,-0.04744 -6.08541,-0.10542 z m -146.9383,-8.908207 c 0,-0.679097 0.0726,-0.95691 0.16134,-0.617361 0.0887,0.339548 0.0887,0.895173 0,1.234722 -0.0887,0.339549 -0.16134,0.06174 -0.16134,-0.617361 z m 191.82927,-1.5875 c 0.4557,-0.48507 0.90792,-0.881945 1.00493,-0.881945 0.097,0 -0.19645,0.396875 -0.65215,0.881945 -0.4557,0.485069 -0.90792,0.881944 -1.00494,0.881944 -0.097,0 0.19646,-0.396875 0.65216,-0.881944 z m -31.08945,-0.79375 c -0.43881,-0.559527 -0.42633,-0.572005 0.1332,-0.133195 0.33955,0.266294 0.61736,0.544107 0.61736,0.617361 0,0.29035 -0.2897,0.103473 -0.75056,-0.484166 z m 26.15056,-2.690832 c 0,-0.07326 0.27781,-0.351069 0.61736,-0.617361 0.55953,-0.43881 0.57201,-0.426332 0.1332,0.133193 -0.46086,0.587639 -0.75056,0.774516 -0.75056,0.484168 z m 117.03816,-0.116313 c 0.43882,-0.08438 1.07382,-0.08118 1.41111,0.0071 0.33725,0.0883 -0.0219,0.157338 -0.79788,0.153422 -0.77611,-0.0039 -1.05209,-0.07616 -0.61323,-0.160541 z m -322.44302,-0.33691 c 0.24253,-0.09786 0.63941,-0.09786 0.88194,0 0.24254,0.09786 0.0441,0.177936 -0.44097,0.177936 -0.48507,0 -0.68351,-0.08007 -0.44097,-0.177936 z m 318.32159,-0.324926 c 0.0169,-0.410966 0.10054,-0.49456 0.21314,-0.213137 0.10192,0.254661 0.0894,0.558932 -0.0279,0.676157 -0.11722,0.117225 -0.20062,-0.09113 -0.18531,-0.46302 z M 237.50404,33.270963 c 0.25466,-0.101907 0.55893,-0.08937 0.67616,0.02785 0.11722,0.117225 -0.0911,0.200604 -0.46303,0.185286 -0.41096,-0.01693 -0.49455,-0.100521 -0.21313,-0.213137 z M 186.8759,31.395284 c 0,-1.067153 0.0661,-1.503715 0.14696,-0.970139 0.0808,0.533577 0.0808,1.406702 0,1.940278 -0.0808,0.533576 -0.14696,0.09701 -0.14696,-0.970139 z M 72.734764,32.21998 c 0.242535,-0.09786 0.63941,-0.09786 0.881944,0 0.242535,0.09786 0.0441,0.177936 -0.440972,0.177936 -0.485069,0 -0.683507,-0.08007 -0.440972,-0.177936 z m 2.138715,-0.0073 c 0.25466,-0.101907 0.558931,-0.08937 0.676159,0.02785 0.117224,0.117225 -0.09114,0.200604 -0.463021,0.185286 -0.410969,-0.01693 -0.494559,-0.100521 -0.213138,-0.213137 z M 354.12392,23.457784 c 7e-4,-2.522361 0.0568,-3.507946 0.12487,-2.190189 0.0681,1.317757 0.0676,3.381506 -10e-4,4.586111 -0.0687,1.204604 -0.12443,0.126439 -0.12381,-2.395922 z m 42.6178,0.705556 c 0.007,-0.582083 0.0863,-0.7775 0.17572,-0.434258 0.0894,0.343241 0.0836,0.819491 -0.0131,1.058333 -0.0967,0.238842 -0.16983,-0.04199 -0.16267,-0.624075 z M 163.86748,19.547831 c 0.0169,-0.410966 0.10052,-0.494559 0.21313,-0.213137 0.10191,0.254662 0.0894,0.558932 -0.0278,0.676158 -0.11723,0.117225 -0.20061,-0.09114 -0.18529,-0.463021 z M 27.579208,15.617864 c 0.63059,-0.07826 1.662465,-0.07826 2.293055,0 0.63059,0.07826 0.114653,0.142283 -1.146528,0.142283 -1.26118,0 -1.777118,-0.06403 -1.146527,-0.142283 z M 417.77348,13.515408 c 0.25467,-0.101907 0.55895,-0.08937 0.67617,0.02785 0.11723,0.117225 -0.0912,0.200604 -0.46302,0.185286 -0.41098,-0.01693 -0.49456,-0.100521 -0.21315,-0.213136 z m 2.46945,0 c 0.25467,-0.101907 0.55894,-0.08937 0.67617,0.02785 0.11723,0.117225 -0.0912,0.200604 -0.46302,0.185286 -0.41099,-0.01693 -0.49456,-0.100521 -0.21315,-0.213136 z m 12.36835,-5.3152622 c -0.43878,-0.5595253 -0.42633,-0.5720031 0.13321,-0.133193 0.33955,0.2662922 0.61736,0.5441047 0.61736,0.6173611 0,0.2903481 -0.2897,0.1034708 -0.75057,-0.4841681 z M 422.00682,3.6376307 c 0.25467,-0.1019071 0.55894,-0.089374 0.67617,0.027851 0.11722,0.1172251 -0.0912,0.2006037 -0.46302,0.1852857 -0.41099,-0.016928 -0.49456,-0.1005206 -0.21315,-0.2131367 z"
         id="path81" />
      <path
         style="fill:#e3fbec;stroke-width:0.352778"
         d="m 162.93256,67.555006 c 2.5e-4,-4.462639 0.0508,-6.23962 0.11235,-3.948847 0.0615,2.290774 0.0613,5.942023 -3.5e-4,8.113889 -0.0618,2.171866 -0.11215,0.297596 -0.1119,-4.165042 z m -80.231824,0.748749 c 0,-0.07325 0.277813,-0.351066 0.617361,-0.617361 0.559527,-0.438809 0.572005,-0.426332 0.133195,0.133195 -0.460858,0.58764 -0.750556,0.774517 -0.750556,0.484166 z M 293.39727,56.531685 c 2.47385,-0.06064 6.52198,-0.06064 8.99583,0 2.47385,0.06064 0.44979,0.11026 -4.49792,0.11026 -4.9477,0 -6.97177,-0.04962 -4.49791,-0.11026 z M 265.70421,55.85609 c 0.24254,-0.09786 0.63941,-0.09786 0.88195,0 0.24253,0.09786 0.0441,0.177938 -0.44098,0.177938 -0.48507,0 -0.6835,-0.08007 -0.44097,-0.177938 z M 162.92328,38.803617 c 0,-3.00743 0.0541,-4.237743 0.12024,-2.734027 0.0661,1.503715 0.0661,3.96434 0,5.468055 -0.0661,1.503715 -0.12024,0.273403 -0.12024,-2.734028 z m 23.9026,-9.877777 c 0,-0.48507 0.0801,-0.683507 0.17794,-0.440972 0.0979,0.242534 0.0979,0.639409 0,0.881944 -0.0979,0.242535 -0.17794,0.0441 -0.17794,-0.440972 z"
         id="path79" />
      <path
         style="fill:#d6f2f5;stroke-width:0.352778"
         d="m 410.5451,88.633615 c 6.36849,-0.05392 16.68724,-0.05389 22.93056,7.1e-5 6.24332,0.05396 1.03272,0.09808 -11.57909,0.09804 -12.6118,-3.9e-5 -17.71995,-0.04419 -11.35147,-0.09811 z m 40.90452,-5.027221 c 0,-0.873125 0.0688,-1.230312 0.15285,-0.79375 0.0841,0.436563 0.0841,1.150938 0,1.5875 -0.0841,0.436563 -0.15285,0.07937 -0.15285,-0.79375 z M 386.52425,81.13695 c 0,-0.679097 0.0726,-0.95691 0.16133,-0.617361 0.0888,0.339548 0.0888,0.895173 0,1.234722 -0.0887,0.339549 -0.16133,0.06174 -0.16133,-0.617361 z m 37.69321,-11.141897 c 0.0169,-0.410968 0.10055,-0.494559 0.21315,-0.213138 0.10192,0.25466 0.0894,0.558931 -0.0279,0.676159 -0.11723,0.117224 -0.20062,-0.09114 -0.18531,-0.463021 z M 417.92782,52.65774 c 0.72761,-0.07611 1.91823,-0.07611 2.64584,0 0.7276,0.07611 0.13229,0.138381 -1.32292,0.138381 -1.45521,0 -2.05052,-0.06227 -1.32292,-0.138381 z m 33.51467,-10.149956 c 0.004,-0.776111 0.0762,-1.052072 0.16055,-0.613248 0.0844,0.438824 0.0812,1.073824 -0.007,1.411111 -0.0883,0.337288 -0.15734,-0.02177 -0.15342,-0.797863 z m -63.94175,-2.779028 c 0,-0.07325 0.27781,-0.351067 0.61736,-0.617361 0.55954,-0.43881 0.572,-0.426332 0.13321,0.133195 -0.46087,0.587639 -0.75057,0.774516 -0.75057,0.484166 z m 31.4755,-2.245557 12.24908,-0.09981 0.11363,-4.758413 0.11363,-4.758413 -0.0155,4.851168 -0.0155,4.851167 -12.34722,0.0071 -12.34722,0.0071 12.24911,-0.09981 z m 23.65086,0.0089 c 0.53626,-0.08109 1.33001,-0.07892 1.76389,0.0048 0.43392,0.08374 -0.005,0.15008 -0.97497,0.147432 -0.97014,-0.0026 -1.32514,-0.07116 -0.78892,-0.152247 z m -1.43538,-12.623244 c 0.007,-0.582083 0.0863,-0.777499 0.17572,-0.434258 0.0894,0.343241 0.0836,0.819491 -0.013,1.058334 -0.0967,0.238841 -0.16983,-0.04199 -0.16267,-0.624076 z m -39.0507,-13.581944 c 0.35119,-0.388055 0.7179,-0.705555 0.81492,-0.705555 0.097,0 -0.11095,0.3175 -0.46214,0.705555 -0.35119,0.388056 -0.71791,0.705556 -0.81492,0.705556 -0.097,0 0.11095,-0.3175 0.46214,-0.705556 z m 1.76389,-1.7638886 c 0.35119,-0.3880555 0.7179,-0.7055555 0.81491,-0.7055555 0.097,0 -0.11094,0.3175 -0.46213,0.7055555 -0.3512,0.3880556 -0.71791,0.7055556 -0.81492,0.7055556 -0.097,0 0.11095,-0.3175 0.46214,-0.7055556 z m -28.018,-4.0863425 c 0.0169,-0.410966 0.10054,-0.4945589 0.21315,-0.2131365 0.10191,0.2546614 0.0894,0.5589322 -0.0279,0.6761574 -0.11723,0.1172251 -0.20063,-0.091134 -0.18532,-0.4630209 z m 45.06157,-1.7990892 c 0.25467,-0.1019071 0.55895,-0.089374 0.67617,0.027851 0.11723,0.1172251 -0.0911,0.2006037 -0.46302,0.1852857 -0.41098,-0.016928 -0.49456,-0.1005206 -0.21315,-0.2131367 z"
         id="path77" />
      <path
         style="fill:#d9fae6;stroke-width:0.352778"
         d="m 162.93211,51.856395 c 0,-4.365625 0.0506,-6.151562 0.11254,-3.96875 0.0619,2.182812 0.0619,5.754687 0,7.9375 -0.0619,2.182812 -0.11254,0.396875 -0.11254,-3.96875 z m -59.38963,4.027547 c 0.0169,-0.410968 0.10052,-0.494559 0.21313,-0.213137 0.10191,0.254659 0.0894,0.55893 -0.0278,0.676158 -0.11723,0.117225 -0.20061,-0.09114 -0.18529,-0.463021 z m 160.75062,-0.02787 c 0.24253,-0.09786 0.63941,-0.09786 0.88194,0 0.24254,0.09786 0.0441,0.177937 -0.44097,0.177937 -0.48507,0 -0.6835,-0.08007 -0.44097,-0.177937 z m 11.40494,-2.794371 c 0.0169,-0.410968 0.10052,-0.494559 0.21313,-0.213137 0.10191,0.254659 0.0894,0.55893 -0.0278,0.676158 -0.11723,0.117225 -0.20061,-0.09114 -0.18529,-0.463021 z M 239.26793,33.270963 c 0.25466,-0.101907 0.55893,-0.08937 0.67615,0.02785 0.11723,0.117225 -0.0911,0.200604 -0.46302,0.185286 -0.41096,-0.01693 -0.49456,-0.100521 -0.21313,-0.213137 z m 114.81982,-3.463179 c 0.003,-0.970139 0.0712,-1.325143 0.15225,-0.788899 0.0811,0.536244 0.0789,1.329994 -0.005,1.763889 -0.0838,0.433894 -0.1501,-0.0049 -0.14745,-0.97499 z m 5.97817,-12.170833 c 0,-0.679097 0.0726,-0.95691 0.16132,-0.617361 0.0888,0.339549 0.0888,0.895174 0,1.234722 -0.0887,0.339549 -0.16132,0.06174 -0.16132,-0.617361 z"
         id="path75" />
      <path
         style="fill:#c4edf1;stroke-width:0.352778"
         d="m 386.59322,72.317506 c 0,-4.365625 0.0507,-6.151563 0.11254,-3.96875 0.0619,2.182812 0.0619,5.754687 0,7.937499 -0.0619,2.182813 -0.11254,0.396875 -0.11254,-3.968749 z m 0.004,-21.166667 c 0,-5.335763 0.049,-7.518576 0.10897,-4.850694 0.0599,2.667882 0.0599,7.033507 0,9.701389 -0.0599,2.667882 -0.10897,0.485069 -0.10897,-4.850695 z m 5.2318,-13.297249 c 0.34325,-0.08944 0.8195,-0.08356 1.05833,0.01307 0.23887,0.09663 -0.042,0.169816 -0.62406,0.162627 -0.58208,-0.0072 -0.77749,-0.08625 -0.43427,-0.175697 z m 49.40981,-9.809695 c 0,-1.358194 0.0653,-1.870591 0.14171,-1.138659 0.0764,0.731932 0.0751,1.843182 -0.004,2.469444 -0.0779,0.626263 -0.1404,0.02741 -0.13885,-1.330785 z m -9.87492,-2.645833 c 0,-1.455208 0.0623,-2.050521 0.13839,-1.322917 0.0761,0.727605 0.0761,1.91823 0,2.645834 -0.0761,0.727604 -0.13839,0.132291 -0.13839,-1.322917 z m -3.50351,-8.202083 -0.67204,-0.79375 0.79375,0.672037 c 0.74591,0.631549 0.95434,0.915463 0.67204,0.915463 -0.0669,0 -0.42414,-0.357188 -0.79375,-0.79375 z"
         id="path73" />
      <path
         style="fill:#c7f9da;stroke-width:0.352778"
         d="m 72.205597,76.660436 c 0.339549,-0.08873 0.895174,-0.08873 1.234722,0 0.339549,0.08873 0.06174,0.161336 -0.617361,0.161336 -0.679097,0 -0.956909,-0.0726 -0.617361,-0.161336 z m 49.918053,-0.0058 c 0.43657,-0.08409 1.15094,-0.08409 1.5875,0 0.43657,0.08408 0.0794,0.152883 -0.79375,0.152883 -0.87312,0 -1.23031,-0.0688 -0.79375,-0.152883 z m 217.48751,-0.008 c 0.7276,-0.07611 1.91823,-0.07611 2.64583,0 0.7276,0.07611 0.13229,0.13838 -1.32292,0.13838 -1.45521,0 -2.05052,-0.06227 -1.32291,-0.13838 z M 138.35775,75.589629 c 0.63406,-0.07851 1.58656,-0.0769 2.11667,0.0036 0.5301,0.0805 0.0113,0.144734 -1.15285,0.142755 -1.16417,-0.0021 -1.59789,-0.06784 -0.96382,-0.146353 z m 20.10202,-0.0025 c 0.82461,-0.07427 2.17399,-0.07427 2.99861,0 0.82461,0.07427 0.14993,0.135044 -1.49931,0.135044 -1.64924,0 -2.32392,-0.06077 -1.4993,-0.135044 z m 24.17592,-0.0014 c 0.92748,-0.07291 2.35623,-0.07203 3.175,0.0021 0.81876,0.07398 0.0599,0.133639 -1.68634,0.132563 -1.74625,-0.0011 -2.41615,-0.06161 -1.48866,-0.134518 z M 73.444433,71.715222 c 0.438824,-0.08438 1.073824,-0.08118 1.411111,0.0071 0.337287,0.0883 -0.02177,0.157339 -0.797864,0.153423 -0.776111,-0.0039 -1.052071,-0.07616 -0.613247,-0.160542 z m 50.978987,0.005 c 0.34324,-0.08944 0.81949,-0.08356 1.05834,0.01309 0.23884,0.09664 -0.042,0.169817 -0.62408,0.162627 -0.58208,-0.0072 -0.7775,-0.08625 -0.43426,-0.175697 z m 174.4419,0.01083 c 0.24254,-0.09786 0.63941,-0.09786 0.88195,0 0.24253,0.09786 0.0441,0.177938 -0.44098,0.177938 -0.48506,0 -0.6835,-0.08007 -0.44097,-0.177938 z m 42.8625,-0.0096 c 0.33955,-0.08873 0.89518,-0.08873 1.23473,0 0.33954,0.08873 0.0617,0.161336 -0.61737,0.161336 -0.67909,0 -0.95691,-0.0726 -0.61736,-0.161336 z M 29.717923,70.665408 c 0.254661,-0.101906 0.558932,-0.08938 0.676157,0.02783 0.117225,0.117224 -0.09113,0.200603 -0.46302,0.185286 -0.410966,-0.01693 -0.49456,-0.100521 -0.213137,-0.213135 z m 2.116667,0 c 0.254661,-0.101906 0.558932,-0.08938 0.676157,0.02783 0.117225,0.117224 -0.09113,0.200603 -0.463021,0.185286 -0.410966,-0.01693 -0.494559,-0.100521 -0.213136,-0.213135 z M 186.82588,57.500839 c 0,-0.485069 0.0801,-0.683507 0.17794,-0.440972 0.0979,0.242535 0.0979,0.63941 0,0.881944 -0.0979,0.242535 -0.17794,0.0441 -0.17794,-0.440972 z m 75.88643,-1.655582 c 0.34325,-0.08944 0.8195,-0.08356 1.05834,0.01309 0.23884,0.09664 -0.042,0.169816 -0.62408,0.162627 -0.58208,-0.0072 -0.7775,-0.08625 -0.43426,-0.175698 z m -159.14198,-1.16664 c 0,-0.485069 0.0801,-0.683507 0.17793,-0.440972 0.0979,0.242535 0.0979,0.63941 0,0.881944 -0.0979,0.242535 -0.17793,0.0441 -0.17793,-0.440972 z m 149.45569,-3.791768 c 2.97091,-0.05907 7.73341,-0.05894 10.58333,2.89e-4 2.84991,0.05923 0.41917,0.107558 -5.40167,0.1074 -5.82083,-1.59e-4 -8.15258,-0.04862 -5.18166,-0.107689 z M 73.10959,37.151519 c 0.25466,-0.101907 0.558931,-0.08937 0.676159,0.02785 0.117224,0.117225 -0.09114,0.200604 -0.463021,0.185286 -0.410969,-0.01693 -0.494559,-0.100521 -0.213138,-0.213137 z m 85.35018,-3.897874 c 0.82461,-0.07427 2.17399,-0.07427 2.99861,0 0.82461,0.07427 0.14993,0.13504 -1.49931,0.13504 -1.64924,0 -2.32392,-0.06077 -1.4993,-0.13504 z m 17.99166,0 c 0.82462,-0.07427 2.174,-0.07427 2.99861,0 0.82462,0.07427 0.14993,0.13504 -1.4993,0.13504 -1.64924,0 -2.32393,-0.06077 -1.49931,-0.13504 z m 13.24529,-0.0042 c 1.51258,-0.06629 3.89383,-0.06589 5.29167,8.81e-4 1.39783,0.06678 0.16026,0.121019 -2.75015,0.120525 -2.91042,-4.94e-4 -4.0541,-0.05513 -2.54152,-0.121423 z m 15.86952,0.0028 c 0.92749,-0.07291 2.35624,-0.07203 3.175,0.0019 0.81877,0.07399 0.0599,0.13364 -1.68634,0.132565 -1.74625,-0.0011 -2.41614,-0.06161 -1.48866,-0.13452 z m 35.26714,0.0071 c 0.53357,-0.08083 1.4067,-0.08083 1.94028,0 0.53357,0.08083 0.097,0.146964 -0.97014,0.146964 -1.06716,0 -1.50372,-0.06613 -0.97014,-0.146964 z M 354.0687,32.453618 c 0,-0.679098 0.0726,-0.95691 0.16133,-0.617362 0.0887,0.339549 0.0887,0.895174 0,1.234723 -0.0887,0.339548 -0.16133,0.06174 -0.16133,-0.617361 z m 6.0211,-11.994445 c 0,-1.067152 0.0661,-1.503715 0.14697,-0.970139 0.0808,0.533577 0.0808,1.406702 0,1.940278 -0.0809,0.533577 -0.14697,0.09701 -0.14697,-0.970139 z M 31.129034,21.276519 c 0.254661,-0.101907 0.558932,-0.08937 0.676158,0.02785 0.117224,0.117225 -0.09114,0.200604 -0.463021,0.185286 -0.410966,-0.01693 -0.494559,-0.100521 -0.213137,-0.213136 z"
         id="path71" />
      <path
         style="fill:#b5e9ed;stroke-width:0.352778"
         d="m 386.55173,62.616117 c 0.004,-1.164167 0.0678,-1.597886 0.14634,-0.963821 0.0785,0.634065 0.0769,1.586565 -0.004,2.116667 -0.0805,0.530101 -0.14471,0.01132 -0.14274,-1.152846 z m 7.21082,-24.767022 c 0.43656,-0.08409 1.15093,-0.08409 1.5875,0 0.43656,0.08409 0.0794,0.152883 -0.79375,0.152883 -0.87313,0 -1.23032,-0.0688 -0.79375,-0.152883 z m 3.05403,-5.748255 c 0,-3.201459 0.0535,-4.511146 0.11885,-2.910417 0.0654,1.600729 0.0654,4.220104 0,5.820833 -0.0654,1.600729 -0.11885,0.291042 -0.11885,-2.910416 z m 9.86469,2.116666 c 0,-2.037291 0.0583,-2.870729 0.12954,-1.852083 0.0713,1.018646 0.0713,2.685521 0,3.704167 -0.0713,1.018645 -0.12954,0.185208 -0.12954,-1.852084 z m 34.54259,-2.293055 c 0.004,-0.970139 0.0711,-1.325144 0.15226,-0.788899 0.0811,0.536244 0.0789,1.329994 -0.005,1.763888 -0.0837,0.433895 -0.15007,-0.0048 -0.14743,-0.974989 z M 409.72574,17.503758 c 0,-0.07326 0.27781,-0.351069 0.61736,-0.617361 0.55954,-0.43881 0.572,-0.426332 0.13321,0.133193 -0.46087,0.587639 -0.75057,0.774516 -0.75057,0.484168 z m 24.84864,-7.363334 -1.03614,-1.1465282 1.14653,1.0361402 c 1.06874,0.965828 1.3087,1.256915 1.03614,1.256915 -0.0607,0 -0.57665,-0.515937 -1.14653,-1.146527 z"
         id="path69" />
      <path
         style="fill:#baf7d2;stroke-width:0.352778"
         d="m 186.90359,62.08695 c 0,-2.231319 0.0573,-3.144132 0.12729,-2.028472 0.07,1.11566 0.07,2.941285 0,4.056944 -0.07,1.11566 -0.12729,0.202848 -0.12729,-2.028472 z m 74.58934,-6.238208 c 0.25466,-0.101907 0.55893,-0.08938 0.67615,0.02783 0.11723,0.117225 -0.0911,0.200604 -0.46302,0.185286 -0.41096,-0.01693 -0.49456,-0.10052 -0.21313,-0.213134 z M 60.211922,54.502228 c 0.0039,-0.776111 0.07616,-1.052071 0.160542,-0.613248 0.08438,0.438824 0.08118,1.073824 -0.0071,1.411112 -0.0883,0.337287 -0.157339,-0.02177 -0.153423,-0.797864 z M 354.0147,34.011719 c 0.0169,-0.410966 0.10052,-0.494559 0.21314,-0.213136 0.1019,0.254661 0.0894,0.558932 -0.0278,0.676157 -0.11722,0.117225 -0.2006,-0.09113 -0.18528,-0.463021 z m 6.09263,-8.966435 c 0,-1.649236 0.0608,-2.323923 0.13505,-1.499305 0.0743,0.824618 0.0743,2.173993 0,2.998611 -0.0743,0.824618 -0.13505,0.14993 -0.13505,-1.499306 z"
         id="path67" />
      <path
         style="fill:#b2f6cd;stroke-width:0.352778"
         d="m 186.89736,69.142506 c 0,-1.843264 0.0595,-2.597327 0.13213,-1.675695 0.0727,0.921632 0.0727,2.429757 0,3.351389 -0.0727,0.921632 -0.13213,0.167569 -0.13213,-1.675694 z M 354.04255,35.27584 c 0,-0.48507 0.0801,-0.683507 0.17794,-0.440973 0.0979,0.242535 0.0979,0.63941 0,0.881945 -0.0979,0.242535 -0.17794,0.0441 -0.17794,-0.440972 z m 6.06478,-4.586111 c 0,-1.649236 0.0608,-2.323924 0.13505,-1.499306 0.0743,0.824618 0.0743,2.173993 0,2.998611 -0.0743,0.824618 -0.13505,0.149931 -0.13505,-1.499305 z"
         id="path65" />
      <path
         style="fill:#a4e3e9;stroke-width:0.352778"
         d="m 392.52782,88.284584 c 1.11566,-0.07001 2.94129,-0.07001 4.05695,0 1.11566,0.07001 0.20285,0.127289 -2.02847,0.127289 -2.23132,0 -3.14414,-0.05728 -2.02848,-0.127289 z m 53.09719,0.01118 c 0.43882,-0.08438 1.07382,-0.08118 1.41111,0.0071 0.33725,0.0883 -0.0219,0.157339 -0.79788,0.153423 -0.77611,-0.0039 -1.05209,-0.07616 -0.61323,-0.160542 z m 5.81748,-7.335206 c 0.004,-0.776111 0.0762,-1.052072 0.16055,-0.613248 0.0844,0.438824 0.0812,1.073824 -0.007,1.411111 -0.0883,0.337288 -0.15734,-0.02177 -0.15342,-0.797863 z m 0.0561,-30.515277 c 0,-3.395486 0.0529,-4.784549 0.11758,-3.086806 0.0647,1.697743 0.0647,4.475868 0,6.173611 -0.0647,1.697743 -0.11758,0.308681 -0.11758,-3.086805 z m -10.7006,-27.369675 c 0.0169,-0.410966 0.10054,-0.49456 0.21315,-0.213137 0.10192,0.254661 0.0894,0.558932 -0.0279,0.676157 -0.11723,0.117225 -0.20063,-0.09113 -0.18532,-0.46302 z m -32.13061,-4.513518 c 0,-0.07326 0.27781,-0.351068 0.61736,-0.617361 0.55954,-0.43881 0.57199,-0.426332 0.13321,0.133193 -0.46087,0.587639 -0.75057,0.774517 -0.75057,0.484168 z m 19.35776,-1.542501 c -0.43878,-0.559525 -0.42633,-0.572003 0.13321,-0.133193 0.33955,0.266292 0.61736,0.544105 0.61736,0.617361 0,0.290348 -0.2897,0.103471 -0.75057,-0.484168 z m -17.2411,-0.574165 c 0,-0.07326 0.27782,-0.351069 0.61737,-0.617361 0.55954,-0.43881 0.57199,-0.426333 0.1332,0.133193 -0.46086,0.587639 -0.75057,0.774516 -0.75057,0.484168 z m 21.82721,-7.8925014 c -0.43878,-0.5595253 -0.42633,-0.5720031 0.13321,-0.133193 0.33955,0.2662921 0.61736,0.5441046 0.61736,0.6173611 0,0.2903481 -0.2897,0.1034707 -0.75057,-0.4841681 z M 418.10421,3.6296512 c 0.43657,-0.084086 1.15094,-0.084086 1.5875,0 0.43657,0.084086 0.0794,0.1528829 -0.79375,0.1528829 -0.87312,0 -1.23031,-0.068797 -0.79375,-0.1528829 z"
         id="path63" />
      <path
         style="fill:#9be1e7;stroke-width:0.352778"
         d="m 386.88416,83.782783 c 0.004,-0.776111 0.0762,-1.052071 0.16054,-0.613248 0.0844,0.438824 0.0812,1.073824 -0.007,1.411111 -0.0883,0.337288 -0.15734,-0.02177 -0.15342,-0.797863 z m 64.62747,-15.698611 c 0,-6.49993 0.0477,-9.158993 0.10587,-5.909027 0.0582,3.249965 0.0582,8.56809 0,11.818055 -0.0582,3.249965 -0.10587,0.590903 -0.10587,-5.909028 z m -37.76937,-4.938888 c 0,-2.425348 0.0563,-3.417535 0.12523,-2.204862 0.0689,1.212674 0.0689,3.197049 0,4.409723 -0.0689,1.212673 -0.12523,0.220486 -0.12523,-2.204861 z"
         id="path61" />
      <path
         style="fill:#a6f6c6;stroke-width:0.352778"
         d="m 156.94964,54.502228 c 4e-5,-11.641666 0.0445,-16.353087 0.0989,-10.469823 0.0543,5.883264 0.0543,15.408264 -9e-5,21.166666 -0.0544,5.758402 -0.0988,0.944824 -0.0988,-10.696843 z m 29.92144,19.402778 c 0.003,-0.970139 0.0712,-1.325143 0.15225,-0.7889 0.0811,0.536244 0.0789,1.329994 -0.005,1.763889 -0.0837,0.433896 -0.15008,-0.0048 -0.14743,-0.974989 z M 360.12515,38.627228 c 0,-2.910416 0.0551,-4.054098 0.12143,-2.541514 0.0663,1.512583 0.0659,3.893832 0,5.291668 -0.0668,1.397832 -0.12104,0.160263 -0.12055,-2.750154 z"
         id="path59" />
      <path
         style="fill:#92dee5;stroke-width:0.352778"
         d="m 389.36997,87.619545 c -2.48151,-1.223628 -2.35814,0.0073 -2.44429,-24.387344 -0.06,-17.00023 0.0205,-22.061028 0.35669,-22.401388 0.23883,-0.241833 0.52896,-0.690189 0.6447,-0.996347 0.39215,-1.037117 2.33402,-1.639147 5.51018,-1.708309 1.68261,-0.03664 3.175,-0.181576 3.31643,-0.322084 0.14139,-0.140507 0.26984,-3.425902 0.28543,-7.300878 0.0328,-8.164717 0.37673,-10.110542 2.58258,-14.614697 2.76955,-5.655096 7.93602,-9.6864736 14.69016,-11.4626217 4.25754,-1.1196148 10.36617,-0.3719971 14.69701,1.7987256 4.09829,2.0541661 8.10951,6.2748181 10.00788,10.5304051 0.43279,0.970139 0.93874,2.061632 1.12441,2.425541 0.35496,0.695763 0.85284,6.532098 1.19651,14.026191 l 0.20444,4.457289 3.267,0.142887 c 3.63093,0.158805 4.69685,0.616736 5.85439,2.515174 0.66156,1.085 0.68745,1.939957 0.68872,22.752519 0,23.618772 0.0755,22.747481 -2.06667,24.324147 l -1.07845,0.79375 -28.85387,-0.008 c -25.56358,-0.0071 -28.98267,-0.07154 -29.98325,-0.564928 z m 34.43838,-14.949262 0.8885,-0.881944 0.0109,-8.730244 c 0.006,-4.801634 -0.10809,-8.730696 -0.25361,-8.73125 -0.14552,-7.06e-4 -0.26459,-0.253993 -0.26459,-0.563199 0,-0.309207 -0.3175,-0.64522 -0.70555,-0.7467 -0.38806,-0.10148 -0.70556,-0.324743 -0.70556,-0.49614 0,-0.377402 -6.47495,-0.421876 -6.84978,-0.04705 -0.14552,0.145521 -0.37041,0.264583 -0.49974,0.264583 -0.12937,0 -0.5527,0.317504 -0.94075,0.705563 -0.66838,0.668383 -0.70556,1.175935 -0.70556,9.631955 0,11.117156 -0.32501,10.476371 5.31364,10.476371 3.60635,0 3.87403,-0.0501 4.71202,-0.881945 z m 7.966,-42.509721 v -7.408333 l -1.03738,-2.116667 c -1.78096,-3.633969 -5.85321,-6.902561 -9.01678,-7.237321 -1.7144,-0.181414 -3.82972,-0.152143 -5.29167,0.07322 -3.22453,0.497076 -6.83648,3.281931 -8.55649,6.597167 -0.89566,1.726354 -0.93345,2.048773 -1.1413,9.735544 l -0.21495,7.950058 12.62927,-0.09267 12.6293,-0.09267 z"
         id="path57" />
      <path
         style="fill:#8edde4;stroke-width:0.352778"
         d="m 409.99032,88.280865 c 6.45143,-0.05383 17.0083,-0.05383 23.45973,0 6.45142,0.05383 1.17298,0.09787 -11.72986,0.09787 -12.90285,0 -18.18129,-0.04404 -11.72987,-0.09787 z m -23.06316,-9.789748 c 0,-2.134306 0.0589,-2.961947 0.12912,-1.839204 0.0702,1.122744 0.0696,2.868994 0,3.880556 -0.071,1.011562 -0.12849,0.09295 -0.12767,-2.041352 z m 37.71134,-8.290278 c 0,-0.873125 0.0688,-1.230313 0.15286,-0.79375 0.0841,0.436562 0.0841,1.150937 0,1.5875 -0.0841,0.436562 -0.15286,0.07937 -0.15286,-0.79375 z m -6.87525,-17.89938 c 1.02518,-0.07149 2.61268,-0.07074 3.52778,0.0018 0.91514,0.07241 0.0764,0.130895 -1.8639,0.129978 -1.94028,-0.0011 -2.68901,-0.06016 -1.66388,-0.131646 z m -30.84713,-8.029786 c 0,-1.552222 0.0633,-2.14334 0.13783,-1.313593 0.0745,0.829748 0.0735,2.099748 -0.004,2.822222 -0.0758,0.722475 -0.13677,0.04359 -0.1355,-1.508629 z M 431.745,30.866118 c 3.5e-4,-3.686528 0.0526,-5.14672 0.11617,-3.244871 0.0636,1.901849 0.0633,4.918099 0,6.702777 -0.0639,1.78468 -0.11589,0.228621 -0.11557,-3.457906 z m 9.05302,-6.379398 c 0.0169,-0.410966 0.10054,-0.49456 0.21315,-0.213137 0.10192,0.254661 0.0894,0.558932 -0.0279,0.676157 -0.11723,0.117225 -0.20063,-0.09113 -0.18532,-0.46302 z M 418.63338,13.160439 c 0.33955,-0.08873 0.89517,-0.08873 1.23472,0 0.33955,0.08873 0.0617,0.161333 -0.61736,0.161333 -0.6791,0 -0.95691,-0.0726 -0.61736,-0.161333 z"
         id="path55" />
      <path
         style="fill:#98f4bd;stroke-width:0.352778"
         d="m 180.93722,56.971673 c 6e-5,-10.283472 0.0451,-14.439491 0.10012,-9.235595 0.055,5.203895 0.055,13.617645 -1e-4,18.697221 -0.0551,5.079577 -0.10008,0.821846 -0.10002,-9.461626 z m 78.08626,-1.122931 c 0.25466,-0.101907 0.55894,-0.08938 0.67616,0.02783 0.11722,0.117225 -0.0911,0.200604 -0.46302,0.185286 -0.41097,-0.01693 -0.49456,-0.10052 -0.21314,-0.213134 z M 360.01191,44.242276 c 0.0169,-0.410969 0.10054,-0.494559 0.21315,-0.213138 0.10191,0.25466 0.0894,0.558931 -0.0279,0.676159 -0.11723,0.117224 -0.20063,-0.09114 -0.18532,-0.463021 z M 174.8915,35.805006 c 0.001,-1.358194 0.0653,-1.870591 0.14169,-1.138659 0.0764,0.731932 0.0751,1.843182 -0.003,2.469444 -0.078,0.626263 -0.14044,0.02741 -0.13887,-1.330785 z"
         id="path53" />
      <path
         style="fill:#8af3b4;stroke-width:0.352778"
         d="m 252.13694,55.827791 c 1.31775,-0.06806 3.3815,-0.06755 4.58611,0.0011 1.2046,0.06868 0.12644,0.124365 -2.39592,0.123747 -2.52236,-7.05e-4 -3.50795,-0.05681 -2.19019,-0.124869 z m 76.47776,-1.707738 c 0.0169,-0.410968 0.10052,-0.494559 0.21314,-0.213137 0.1019,0.254659 0.0894,0.55893 -0.0278,0.676158 -0.11722,0.117225 -0.2006,-0.09114 -0.18528,-0.463021 z m 31.39721,-8.819444 c 0.0169,-0.410968 0.10054,-0.494559 0.21315,-0.213138 0.10191,0.25466 0.0894,0.558931 -0.0279,0.676159 -0.11723,0.117225 -0.20063,-0.09114 -0.18532,-0.463021 z"
         id="path51" />
      <path
         style="fill:#83f3ae;stroke-width:0.352778"
         d="m 30.231755,76.659145 c 0.343241,-0.08944 0.819491,-0.08356 1.058333,0.01309 0.238842,0.09664 -0.04199,0.169817 -0.624075,0.162627 -0.582083,-0.0072 -0.777499,-0.08625 -0.434258,-0.175697 z M 360.14565,60.675839 c 0,-8.24618 0.0462,-11.619618 0.10262,-7.496527 0.0564,4.12309 0.0564,10.869965 0,14.993055 -0.0564,4.12309 -0.10262,0.749653 -0.10262,-7.496528 z M 87.708399,55.207784 c 0.0072,-0.582084 0.08625,-0.777501 0.175698,-0.434259 0.08944,0.343242 0.08356,0.819492 -0.01309,1.058333 -0.09664,0.238841 -0.169817,-0.04199 -0.162627,-0.624074 z M 328.6147,55.178397 c 0.0169,-0.410968 0.10052,-0.494559 0.21314,-0.213137 0.1019,0.254659 0.0894,0.55893 -0.0278,0.676158 -0.11722,0.117225 -0.2006,-0.09114 -0.18528,-0.463021 z M 176.45143,38.192532 c 0.82462,-0.07427 2.174,-0.07427 2.99861,0 0.82462,0.07427 0.14993,0.135044 -1.4993,0.135044 -1.64924,0 -2.32393,-0.06077 -1.49931,-0.135044 z m 13.24529,-0.0042 c 1.51258,-0.06629 3.89383,-0.06588 5.29167,0.0011 1.39783,0.06678 0.16026,0.121017 -2.75015,0.120523 -2.91042,-3.52e-4 -4.0541,-0.05513 -2.54152,-0.121422 z m 1.04221,-22.558451 c 0.33955,-0.08873 0.89518,-0.08873 1.23472,0 0.33955,0.08873 0.0617,0.161334 -0.61736,0.161334 -0.67909,0 -0.95691,-0.0726 -0.61736,-0.161334 z"
         id="path49" />
      <path
         style="fill:#9bafca;stroke-width:0.352778"
         d="m 374.19008,92.181367 c 0.34325,-0.08944 0.8195,-0.08356 1.05834,0.01309 0.23886,0.09664 -0.042,0.169817 -0.62407,0.162627 -0.58208,-0.0072 -0.77749,-0.08625 -0.43427,-0.175697 z m 1.73775,-84.2458045 c 0.007,-0.5820834 0.0863,-0.7774997 0.17572,-0.4342582 0.0894,0.3432412 0.0836,0.8194911 -0.013,1.0583333 -0.0966,0.2388419 -0.1698,-0.041992 -0.16263,-0.6240751 z"
         id="path47" />
      <path
         style="fill:#75f1a6;stroke-width:0.352778"
         d="m 356.3681,75.611646 c 0.24254,-0.09786 0.63941,-0.09786 0.88195,0 0.24253,0.09786 0.0441,0.177937 -0.44098,0.177937 -0.48507,0 -0.6835,-0.08007 -0.44097,-0.177937 z M 122.1457,71.723742 c 0.25466,-0.101907 0.55894,-0.08938 0.67616,0.02783 0.11723,0.117224 -0.0911,0.200603 -0.46302,0.185286 -0.41097,-0.01693 -0.49456,-0.100521 -0.21314,-0.213134 z M 87.667477,56.589498 c 0.01693,-0.410969 0.10052,-0.494559 0.213134,-0.213138 0.101907,0.25466 0.08938,0.558931 -0.02783,0.676159 -0.117228,0.117224 -0.200604,-0.09114 -0.185286,-0.463021 z m -76.55278,-8.819444 c 0.01693,-0.410969 0.100521,-0.49456 0.213137,-0.213138 0.101907,0.25466 0.08937,0.55893 -0.02785,0.676158 -0.117225,0.117225 -0.200604,-0.09114 -0.185287,-0.46302 z M 293.93275,37.136837 c 0.63407,-0.07852 1.58657,-0.07689 2.11667,0.0036 0.5301,0.08049 0.0113,0.144734 -1.15285,0.142754 -1.16416,-0.002 -1.59788,-0.06784 -0.96382,-0.146354 z"
         id="path45" />
      <path
         style="fill:#64f09b;stroke-width:0.352778"
         d="m 219.93129,90.485561 c 0.4557,-0.48507 0.90792,-0.881945 1.00494,-0.881945 0.097,0 -0.19646,0.396875 -0.65216,0.881945 -0.4557,0.485069 -0.90792,0.881944 -1.00493,0.881944 -0.097,0 0.19645,-0.396875 0.65215,-0.881944 z"
         id="path43" />
      <path
         style="fill:#4fee8e;stroke-width:0.352778"
         d="m 141.40828,69.142506 c 0,-3.589514 0.0524,-5.057952 0.11641,-3.263195 0.064,1.794757 0.064,4.731632 0,6.526389 -0.064,1.794757 -0.11641,0.326319 -0.11641,-3.263194 z m -0.0371,-11.1125 c 0.002,-1.164167 0.0678,-1.597886 0.14636,-0.963821 0.0785,0.634065 0.0769,1.586565 -0.004,2.116667 -0.0805,0.530101 -0.14474,0.01132 -0.14276,-1.152846 z M 4.0591415,48.475609 C 4.0760695,48.064641 4.1596621,47.98105 4.272278,48.262471 4.3741852,48.517131 4.361652,48.821402 4.244427,48.93863 4.1272018,49.055854 4.0438233,48.84749 4.0591415,48.475609 Z M 59.417402,38.670423 c 0,-0.07325 0.277813,-0.351067 0.617362,-0.61736 0.559526,-0.43881 0.572004,-0.426332 0.133194,0.133193 -0.460858,0.58764 -0.750556,0.774517 -0.750556,0.484167 z M 141.41065,23.281395 c 0,-3.977569 0.0514,-5.604756 0.11433,-3.615972 0.0629,1.988785 0.0629,5.24316 0,7.231945 -0.0629,1.988784 -0.11433,0.361597 -0.11433,-3.615973 z"
         id="path41" />
      <path
         style="fill:#718fb4;stroke-width:0.352778"
         d="m 372.40005,89.780005 c 0.007,-0.582083 0.0863,-0.777501 0.17572,-0.434259 0.0894,0.343243 0.0836,0.819493 -0.013,1.058334 -0.0966,0.238841 -0.16979,-0.04199 -0.16263,-0.624075 z m 1.27621,-86.8479299 c 0.25467,-0.1019071 0.55894,-0.089374 0.67617,0.027851 0.11723,0.1172251 -0.0912,0.2006037 -0.46302,0.1852857 -0.41099,-0.016928 -0.49456,-0.1005206 -0.21315,-0.2131367 z"
         id="path39" />
      <path
         style="fill:#3beb82;stroke-width:0.352778"
         d="m 197.46928,35.805006 c 0.001,-1.358194 0.0653,-1.870591 0.14169,-1.138659 0.0764,0.731932 0.0751,1.843182 -0.003,2.469444 -0.078,0.626263 -0.14044,0.02741 -0.13887,-1.330785 z"
         id="path37" />
      <path
         style="fill:#29ea76;stroke-width:0.352778"
         d="m 87.286847,71.478755 c 0,-0.07325 0.277813,-0.351067 0.617361,-0.617361 0.559527,-0.43881 0.572005,-0.426332 0.133195,0.133195 -0.460858,0.58764 -0.750556,0.774516 -0.750556,0.484166 z m 54.071083,-10.09736 c 0,-0.873125 0.0688,-1.230313 0.15288,-0.79375 0.0841,0.436562 0.0841,1.150937 0,1.5875 -0.0841,0.436562 -0.15288,0.07937 -0.15288,-0.79375 z m 0.0636,-18.168055 c 1.1e-4,-7.179028 0.0471,-10.065833 0.10453,-6.415122 0.0574,3.650713 0.0573,9.524462 -2e-4,13.052776 -0.0575,3.528318 -0.10444,0.541373 -0.10433,-6.637654 z M 94.017477,54.120053 c 0.01693,-0.410968 0.100521,-0.494559 0.213134,-0.213137 0.101907,0.254659 0.08938,0.55893 -0.02783,0.676158 -0.117224,0.117225 -0.200603,-0.09114 -0.185286,-0.463021 z M 302.78907,40.302923 c -0.43881,-0.559527 -0.42633,-0.572005 0.1332,-0.133195 0.58764,0.460858 0.77451,0.750556 0.48416,0.750556 -0.0732,0 -0.35106,-0.277812 -0.61736,-0.617361 z M 17.436846,26.698786 c 0,-0.06071 0.515938,-0.576651 1.146528,-1.146528 l 1.146528,-1.03614 -1.036141,1.146527 c -0.965828,1.068725 -1.256915,1.308683 -1.256915,1.036141 z"
         id="path35" />
      <path
         style="fill:#14e868;stroke-width:0.352778"
         d="m 213.14032,93.250534 c 0.24254,-0.09786 0.63941,-0.09786 0.88195,0 0.24253,0.09786 0.0441,0.177938 -0.44098,0.177938 -0.48507,0 -0.6835,-0.08007 -0.44097,-0.177938 z m 6.77623,-3.029557 c 0.86502,-0.921632 1.61908,-1.675694 1.6757,-1.675694 0.26489,0 -0.0152,0.316734 -1.57276,1.778631 l -1.6757,1.572758 z m -13.83767,-2.425026 c 0.23931,-0.241095 0.52396,-0.349486 0.63258,-0.240869 0.10862,0.108616 -0.0872,0.305876 -0.43509,0.438354 -0.50278,0.191446 -0.5433,0.150926 -0.19749,-0.197485 z m 9.2663,-0.06661 c 0,-0.06071 0.51594,-0.576651 1.14653,-1.146528 l 1.14653,-1.03614 -1.03614,1.146528 c -0.96583,1.068726 -1.25692,1.308682 -1.25692,1.03614 z M 76.28459,76.309853 c 0.25466,-0.101907 0.558931,-0.08938 0.676159,0.02783 0.117224,0.117224 -0.09114,0.200604 -0.463021,0.185286 -0.410968,-0.01693 -0.494559,-0.100521 -0.213138,-0.213134 z m 9.238368,-3.419987 c 0,-0.07325 0.277813,-0.351066 0.617362,-0.617361 0.559526,-0.438809 0.572004,-0.426332 0.133194,0.133195 -0.460858,0.58764 -0.750556,0.774517 -0.750556,0.484166 z m 48.330552,0 c 0,-0.07325 0.27782,-0.351066 0.61737,-0.617361 0.55952,-0.438809 0.572,-0.426332 0.13319,0.133195 -0.46086,0.58764 -0.75056,0.774517 -0.75056,0.484166 z M 329.60018,72.4057 c -0.43881,-0.559527 -0.42633,-0.572004 0.1332,-0.133195 0.58764,0.460859 0.77452,0.750556 0.48416,0.750556 -0.0732,0 -0.35106,-0.277812 -0.61736,-0.617361 z M 136.16925,71.71536 c -0.19145,-0.502779 -0.15093,-0.543299 0.19749,-0.197485 0.24109,0.239303 0.34948,0.523959 0.24086,0.632576 -0.10861,0.108617 -0.30587,-0.08718 -0.43835,-0.435091 z M 44.953513,71.478755 c 0,-0.07325 0.277813,-0.351067 0.617362,-0.617361 0.559526,-0.43881 0.572004,-0.426332 0.133194,0.133195 -0.460858,0.58764 -0.750556,0.774516 -0.750556,0.484166 z m 14.959539,-0.660555 -0.672038,-0.79375 0.79375,0.672038 c 0.745927,0.63155 0.954348,0.915462 0.672038,0.915462 -0.06694,0 -0.424131,-0.357187 -0.79375,-0.79375 z m 267.405558,-0.705555 -0.67204,-0.79375 0.79375,0.672038 c 0.43657,0.369619 0.79375,0.726807 0.79375,0.79375 0,0.28231 -0.28391,0.07389 -0.91546,-0.672038 z M 66.07518,69.583478 c -0.43881,-0.559527 -0.426332,-0.572005 0.133195,-0.133195 0.339548,0.266294 0.617361,0.544107 0.617361,0.617361 0,0.29035 -0.289698,0.103473 -0.750556,-0.484166 z m 15.214445,0.484166 c 0,-0.07325 0.277813,-0.351067 0.617361,-0.617361 0.559527,-0.43881 0.572005,-0.426332 0.133195,0.133195 -0.460858,0.587639 -0.750556,0.774516 -0.750556,0.484166 z M 58.314069,68.877922 c -0.43881,-0.559526 -0.426332,-0.572004 0.133195,-0.133194 0.339548,0.266294 0.617361,0.544106 0.617361,0.617361 0,0.29035 -0.289698,0.103473 -0.750556,-0.484167 z m 30.736667,0.484167 c 0,-0.07326 0.277813,-0.351067 0.617361,-0.617361 0.559527,-0.43881 0.572005,-0.426332 0.133195,0.133194 -0.460858,0.58764 -0.750556,0.774517 -0.750556,0.484167 z M 351.6938,68.084172 c 0.75785,-0.776111 1.45729,-1.411111 1.5543,-1.411111 0.097,0 -0.44368,0.635 -1.20153,1.411111 -0.75785,0.776111 -1.45729,1.411111 -1.5543,1.411111 -0.097,0 0.44367,-0.635 1.20153,-1.411111 z m -18.73074,0.264584 -0.67204,-0.79375 0.79375,0.672038 c 0.74592,0.63155 0.95435,0.915462 0.67204,0.915462 -0.0669,0 -0.42413,-0.357188 -0.79375,-0.79375 z m -46.20257,-0.705556 -1.03614,-1.146528 1.14653,1.03614 c 0.63059,0.569878 1.14653,1.085815 1.14653,1.146528 0,0.272542 -0.29109,0.0326 -1.25692,-1.03614 z m -275.883551,0 -0.672037,-0.79375 0.79375,0.672038 c 0.745929,0.63155 0.954349,0.915462 0.672037,0.915462 -0.06694,0 -0.424129,-0.357187 -0.79375,-0.79375 z m 73.058519,-0.264583 c 0.351187,-0.388056 0.717896,-0.705556 0.81491,-0.705556 0.09701,0 -0.110945,0.3175 -0.462132,0.705556 -0.351187,0.388055 -0.717896,0.705555 -0.814909,0.705555 -0.09701,0 0.110945,-0.3175 0.462131,-0.705555 z M 19.155737,67.114033 c -0.43881,-0.559526 -0.426333,-0.572004 0.133193,-0.133194 0.339548,0.266294 0.617361,0.544106 0.617361,0.617361 0,0.29035 -0.289696,0.103473 -0.750554,-0.484167 z m 44.449999,0 c -0.43881,-0.559526 -0.426332,-0.572004 0.133194,-0.133194 0.339549,0.266294 0.617361,0.544106 0.617361,0.617361 0,0.29035 -0.289697,0.103473 -0.750555,-0.484167 z m -47.425805,-2.998611 -1.03614,-1.146527 1.146528,1.03614 c 0.63059,0.569877 1.146527,1.085814 1.146527,1.146527 0,0.272542 -0.291086,0.0326 -1.256915,-1.03614 z m 87.715319,-6.114813 c 0.0169,-0.410969 0.10053,-0.494559 0.21314,-0.213138 0.10191,0.25466 0.0894,0.558931 -0.0278,0.676159 -0.11722,0.117224 -0.2006,-0.09114 -0.18528,-0.463021 z M 328.6147,57.647831 c 0.0169,-0.410968 0.10052,-0.494559 0.21314,-0.213138 0.1019,0.25466 0.0894,0.558931 -0.0278,0.676159 -0.11722,0.117224 -0.2006,-0.09114 -0.18528,-0.463021 z m -6.35,-1.058333 c 0.0169,-0.410969 0.10052,-0.494559 0.21314,-0.213138 0.1019,0.25466 0.0894,0.558931 -0.0278,0.676159 -0.11722,0.117224 -0.2006,-0.09114 -0.18528,-0.463021 z M 53.80081,55.531165 c 0.01693,-0.410969 0.10052,-0.49456 0.213134,-0.213138 0.101907,0.254659 0.08938,0.55893 -0.02783,0.676158 -0.117228,0.117225 -0.200604,-0.09114 -0.185286,-0.46302 z m 0.02785,-1.558103 c 0,-0.48507 0.08007,-0.683507 0.177938,-0.440973 0.09786,0.242535 0.09786,0.63941 0,0.881945 -0.09786,0.242534 -0.177938,0.0441 -0.177938,-0.440972 z m 50.06659,-1.969675 c 0.0169,-0.410969 0.10053,-0.494559 0.21314,-0.213138 0.10191,0.25466 0.0894,0.558931 -0.0278,0.676159 -0.11722,0.117224 -0.2006,-0.09114 -0.18528,-0.463021 z m 208.49167,-0.705556 c 0.0169,-0.410968 0.10053,-0.494559 0.21314,-0.213137 0.10191,0.254659 0.0894,0.55893 -0.0278,0.676158 -0.11722,0.117225 -0.2006,-0.09114 -0.18528,-0.463021 z m 16.22778,0 c 0.0169,-0.410968 0.10052,-0.494559 0.21314,-0.213137 0.1019,0.254659 0.0894,0.55893 -0.0278,0.676158 -0.11722,0.117225 -0.2006,-0.09114 -0.18528,-0.463021 z m 3.85271,-9.495603 c 0.4557,-0.485069 0.90792,-0.881944 1.00493,-0.881944 0.097,0 -0.19646,0.396875 -0.65216,0.881944 -0.4557,0.48507 -0.90792,0.881945 -1.00493,0.881945 -0.097,0 0.19646,-0.396875 0.65216,-0.881945 z m -268.816672,0.04319 c 0,-0.07325 0.277812,-0.351067 0.617361,-0.617362 0.559527,-0.438809 0.572004,-0.426331 0.133195,0.133195 -0.460859,0.58764 -0.750556,0.774517 -0.750556,0.484167 z m 288.373642,-1.013333 -1.03614,-1.146528 1.14653,1.03614 c 0.63059,0.569877 1.14653,1.085815 1.14653,1.146528 0,0.272542 -0.29109,0.0326 -1.25692,-1.03614 z m -269.533548,-0.705556 -0.672038,-0.79375 0.79375,0.672038 c 0.745927,0.63155 0.954348,0.915462 0.672038,0.915462 -0.06694,0 -0.424131,-0.357187 -0.79375,-0.79375 z m 243.979348,0.307777 c 0,-0.07325 0.27782,-0.351066 0.61737,-0.617361 0.55952,-0.438809 0.572,-0.426332 0.13319,0.133195 -0.46086,0.58764 -0.75056,0.774517 -0.75056,0.484166 z m 7.9375,-0.57236 c 0.35119,-0.388056 0.7179,-0.705556 0.81491,-0.705556 0.097,0 -0.11094,0.3175 -0.46213,0.705556 -0.35118,0.388055 -0.71789,0.705555 -0.81491,0.705555 -0.097,0 0.11095,-0.3175 0.46213,-0.705555 z M 58.359069,40.081534 c 0,-0.07325 0.277813,-0.351067 0.617361,-0.617361 0.559527,-0.43881 0.572005,-0.426332 0.133195,0.133194 -0.460858,0.58764 -0.750556,0.774517 -0.750556,0.484167 z m 30.481761,-0.660556 -0.672038,-0.79375 0.79375,0.672039 c 0.745927,0.631549 0.954348,0.915461 0.672038,0.915461 -0.06694,0 -0.424131,-0.357187 -0.79375,-0.79375 z m 192.65019,-0.617361 c 0.35118,-0.388055 0.71789,-0.705555 0.81491,-0.705555 0.097,0 -0.11095,0.3175 -0.46214,0.705555 -0.35118,0.388056 -0.71789,0.705556 -0.81491,0.705556 -0.097,0 0.11095,-0.3175 0.46214,-0.705556 z m 47.09583,-0.881944 c 0.4557,-0.485069 0.90792,-0.881944 1.00493,-0.881944 0.097,0 -0.19645,0.396875 -0.65215,0.881944 -0.4557,0.485069 -0.90792,0.881944 -1.00493,0.881944 -0.097,0 0.19645,-0.396875 0.65215,-0.881944 z M 110.92296,37.216117 c 0.4557,-0.485069 0.90792,-0.881944 1.00493,-0.881944 0.097,0 -0.19645,0.396875 -0.65215,0.881944 -0.4557,0.48507 -0.90792,0.881945 -1.00494,0.881945 -0.097,0 0.19646,-0.396875 0.65216,-0.881945 z M 61.710458,36.686951 c 0.351187,-0.388056 0.717896,-0.705556 0.81491,-0.705556 0.09701,0 -0.110945,0.3175 -0.462132,0.705556 -0.351187,0.388055 -0.717896,0.705555 -0.81491,0.705555 -0.09701,0 0.110945,-0.3175 0.462132,-0.705555 z m 24.473056,0.08819 c -0.43881,-0.559525 -0.426332,-0.572003 0.133194,-0.133193 0.58764,0.460858 0.774517,0.750554 0.484167,0.750554 -0.07326,0 -0.351067,-0.277812 -0.617361,-0.617361 z m 196.895006,0.484168 c 0,-0.07326 0.27781,-0.351069 0.61736,-0.617361 0.55952,-0.43881 0.572,-0.426332 0.13319,0.133193 -0.46086,0.587639 -0.75055,0.774516 -0.75055,0.484168 z m 21.12166,-1.895279 c -0.43881,-0.559525 -0.42633,-0.572003 0.1332,-0.133193 0.58764,0.460858 0.77451,0.750554 0.48416,0.750554 -0.0733,0 -0.35106,-0.277812 -0.61736,-0.617361 z m -182.2462,-2.802111 c 0.34324,-0.08944 0.81949,-0.08356 1.05833,0.01307 0.23884,0.09663 -0.042,0.169816 -0.62407,0.162626 -0.58209,-0.0072 -0.7775,-0.08625 -0.43426,-0.175698 z m 2.10995,0.0013 c 0.33955,-0.08873 0.89517,-0.08873 1.23472,0 0.33955,0.08873 0.0617,0.161333 -0.61736,0.161333 -0.67909,0 -0.95691,-0.0726 -0.61736,-0.161333 z m 169.51604,-0.01249 c 0.63407,-0.07851 1.58657,-0.0769 2.11667,0.0036 0.5301,0.08049 0.0113,0.144734 -1.15285,0.142754 -1.16416,-0.002 -1.59788,-0.06784 -0.96382,-0.146354 z m 49.40462,0.01468 c 0.25466,-0.101907 0.55894,-0.08937 0.67616,0.02785 0.11723,0.117226 -0.0911,0.200604 -0.46302,0.185286 -0.41097,-0.01693 -0.49456,-0.100521 -0.21314,-0.213136 z M 16.554902,27.514729 c 0.351185,-0.388056 0.717894,-0.705556 0.814908,-0.705556 0.09701,0 -0.110945,0.3175 -0.46213,0.705556 -0.351186,0.388055 -0.717894,0.705555 -0.814908,0.705555 -0.09701,0 0.110945,-0.3175 0.46213,-0.705555 z m -6.173611,-1.897082 c 0,-0.07326 0.277812,-0.351069 0.617361,-0.617361 0.559525,-0.43881 0.572003,-0.426333 0.133193,0.133193 -0.460858,0.587639 -0.750554,0.774516 -0.750554,0.484168 z M 12.14518,23.50098 c 0,-0.07326 0.277812,-0.351069 0.617361,-0.617361 0.559525,-0.43881 0.572003,-0.426332 0.133193,0.133193 -0.460858,0.587639 -0.750554,0.774516 -0.750554,0.484168 z m 144.94667,-1.542501 c -0.43881,-0.559525 -0.42633,-0.572003 0.13319,-0.133193 0.58764,0.460858 0.77452,0.750554 0.48417,0.750554 -0.0733,0 -0.35107,-0.277813 -0.61736,-0.617361 z m 4.98389,0.484168 c 0,-0.07326 0.27781,-0.351069 0.61736,-0.617361 0.55953,-0.43881 0.572,-0.426332 0.13319,0.133193 -0.46086,0.587639 -0.75055,0.774516 -0.75055,0.484168 z M 13.556291,22.089869 c 0,-0.07326 0.277812,-0.351069 0.617361,-0.617361 0.559525,-0.43881 0.572003,-0.426332 0.133193,0.133193 -0.460858,0.587639 -0.750554,0.774516 -0.750554,0.484168 z m 1.763889,-1.411111 c 0,-0.07326 0.277812,-0.351069 0.617361,-0.617361 0.559525,-0.43881 0.572003,-0.426332 0.133193,0.133193 -0.460858,0.587639 -0.750554,0.774516 -0.750554,0.484168 z m 177.00625,-0.453223 c 0.24254,-0.09786 0.63941,-0.09786 0.88195,0 0.24253,0.09786 0.0441,0.177936 -0.44098,0.177936 -0.48507,0 -0.6835,-0.08007 -0.44097,-0.177936 z m -36.22006,-0.677704 c 0.0169,-0.410966 0.10052,-0.494559 0.21313,-0.213137 0.10191,0.254662 0.0894,0.558932 -0.0278,0.676158 -0.11723,0.117225 -0.20061,-0.09114 -0.18529,-0.463021 z m 1.20687,-2.616435 c 0.35118,-0.388056 0.71789,-0.705556 0.81491,-0.705556 0.097,0 -0.11095,0.3175 -0.46213,0.705556 -0.35119,0.388055 -0.7179,0.705555 -0.81491,0.705555 -0.097,0 0.11094,-0.3175 0.46213,-0.705555 z M 25.462541,15.992202 c 0.242535,-0.09787 0.63941,-0.09787 0.881944,0 0.242535,0.09787 0.0441,0.177936 -0.440972,0.177936 -0.485069,0 -0.683507,-0.08007 -0.440972,-0.177936 z m 6.019271,-0.0073 c 0.254661,-0.101908 0.558932,-0.08937 0.676157,0.02785 0.117225,0.117225 -0.09113,0.200603 -0.46302,0.185285 -0.410967,-0.01693 -0.49456,-0.10052 -0.213137,-0.213136 z"
         id="path33" />
      <path
         style="fill:#4b70a0;stroke-width:0.352778"
         d="m 372.42027,87.663339 c 0.004,-0.776112 0.0762,-1.052072 0.16055,-0.613248 0.0844,0.438824 0.0812,1.073824 -0.007,1.411111 -0.0883,0.337287 -0.15734,-0.02177 -0.15342,-0.797863 z m 3.54453,-76.729165 c 0,-1.0671532 0.0661,-1.5037157 0.14697,-0.9701393 0.0808,0.5335763 0.0808,1.4067013 0,1.9402773 -0.0809,0.533577 -0.14697,0.09701 -0.14697,-0.970138 z"
         id="path31" />
      <path
         style="fill:#0be863;stroke-width:0.352778"
         d="m 114.61053,68.348756 -1.39452,-1.499306 1.49931,1.394513 c 1.39434,1.296882 1.66142,1.604098 1.39451,1.604098 -0.0576,0 -0.73232,-0.674687 -1.4993,-1.499305 z m 17.83187,0.683362 c 0,-0.06071 0.51594,-0.576651 1.14653,-1.146528 l 1.14653,-1.03614 -1.03614,1.146528 c -0.96583,1.068726 -1.25692,1.308682 -1.25692,1.03614 z M 306.74248,51.297831 c 0.0169,-0.410968 0.10052,-0.494559 0.21313,-0.213137 0.10191,0.254659 0.0894,0.55893 -0.0278,0.676158 -0.11722,0.117225 -0.2006,-0.09114 -0.18529,-0.463021 z M 114.62713,40.920284 c 0.75785,-0.776111 1.45729,-1.411111 1.5543,-1.411111 0.097,0 -0.44368,0.635 -1.20153,1.411111 -0.75785,0.776111 -1.45729,1.411111 -1.5543,1.411111 -0.097,0 0.44367,-0.635 1.20153,-1.411111 z m 170.56805,0.925139 c 0,-0.07325 0.27782,-0.351067 0.61736,-0.617362 0.55953,-0.438809 0.57201,-0.426331 0.1332,0.133195 -0.46086,0.58764 -0.75056,0.774517 -0.75056,0.484167 z m 6.63664,-4.693904 c 0.25466,-0.101907 0.55893,-0.08937 0.67615,0.02785 0.11723,0.117225 -0.0911,0.200604 -0.46302,0.185286 -0.41097,-0.01693 -0.49456,-0.100521 -0.21313,-0.213137 z"
         id="path29" />
      <path
         style="fill:#00e75b;stroke-width:0.352778"
         d="m 210.00231,92.788695 c -0.51324,-0.15513 -1.8883,-0.791139 -3.05569,-1.413355 l -2.12254,-1.131305 0.70928,-1.202154 c 0.81611,-1.383196 0.77309,-1.372693 2.75627,-0.672987 5.17442,1.825643 8.80446,-0.528253 11.9687,-7.761111 1.71989,-3.931341 2.04002,-5.113316 1.3869,-5.120679 -1.27665,-0.01439 -0.46963,1.867281 -11.62229,-27.098695 -3.08763,-8.019266 -5.61387,-14.64708 -5.61387,-14.728472 0,-0.08139 1.25302,-0.147986 2.78448,-0.147986 2.32528,0 2.82405,0.101811 3.02446,0.617361 0.13198,0.339549 3.10146,8.225388 6.59883,17.524091 3.49738,9.2987 6.43961,17.117137 6.53829,17.374305 0.0987,0.257165 0.36486,0.467575 0.59151,0.467575 0.22664,0 3.34944,-8.056562 6.93954,-17.903471 l 6.52746,-17.903472 2.90049,-0.102462 c 1.59528,-0.05635 2.9005,-0.02874 2.9005,0.06136 0,0.165036 -7.90812,21.007341 -15.4087,40.610542 -2.22717,5.820834 -4.46319,11.297708 -4.96895,12.170833 -1.31882,2.276803 -4.25985,5.285352 -5.9043,6.039845 -1.48739,0.682435 -5.16921,0.852562 -6.93037,0.320234 z M 24.84518,76.046049 C 17.431033,74.478195 11.407635,69.624188 7.7420394,62.263339 5.4490313,57.658771 4.7214137,54.48684 4.5050538,48.152228 4.3554477,43.772044 4.4450825,42.251082 5.0254339,39.322187 6.6847184,30.948178 10.396677,24.539296 16.025735,20.329616 c 4.573648,-3.420392 9.119965,-4.719731 14.969926,-4.278407 4.563927,0.344305 9.536566,2.087248 13.331848,4.672902 l 0.961496,0.655049 -0.922722,1.39209 c -0.507496,0.765649 -1.03965,1.523322 -1.182568,1.683716 -0.142913,0.160395 -1.248826,-0.20761 -2.457584,-0.817789 -4.336177,-2.188895 -9.824075,-2.990387 -14.509884,-2.119127 -5.911184,1.099101 -11.332764,6.478733 -13.52593,13.421275 -1.167459,3.695629 -1.74573,9.191791 -1.48318,14.096844 0.409786,7.655754 2.373515,12.673291 6.521255,16.662502 4.118745,3.961324 7.22141,5.207723 12.963589,5.207723 4.432881,0 6.522718,-0.461073 10.061191,-2.219769 l 3.031603,-1.506767 1.090115,1.647388 1.090115,1.647387 -0.770329,0.696465 c -1.44284,1.304484 -5.702801,3.557181 -8.178663,4.324932 -3.143713,0.974848 -8.926159,1.236165 -12.170833,0.550019 z M 68.766014,75.917574 C 61.937672,73.874056 56.322098,67.743368 54.641701,60.497641 53.503873,55.591419 54.13942,48.748356 56.16507,44.095284 c 1.01352,-2.328136 3.680742,-5.697971 5.804387,-7.333406 3.805823,-2.930894 7.359251,-4.117023 12.264612,-4.093911 9.155388,0.04314 16.665057,6.159216 19.059878,15.522883 1.453836,5.684446 0.673446,13.298699 -1.819292,17.750815 -2.430928,4.34172 -6.70317,8.055359 -10.996324,9.558542 -2.989241,1.046638 -8.905197,1.257451 -11.712317,0.417367 z m 11.295874,-5.082257 c 3.539218,-1.832367 6.730153,-6.395738 7.570431,-10.826517 0.465106,-2.452494 0.45671,-7.699904 -0.017,-10.62185 -0.74888,-4.619282 -4.129567,-9.449219 -7.913197,-11.305469 -1.547664,-0.759284 -2.239582,-0.865364 -5.644445,-0.865364 -3.561503,0 -4.033505,0.08059 -5.740826,0.980232 -3.864843,2.036498 -6.319725,5.344566 -7.536322,10.155541 -0.63162,2.497723 -0.718432,3.643309 -0.571856,7.546167 0.230784,6.145039 1.193571,8.798292 4.467536,12.311665 2.830897,3.037904 4.809172,3.763582 9.910635,3.63546 3.190586,-0.08013 3.949697,-0.220147 5.475041,-1.009865 z m 38.541982,5.19068 c -4.54409,-1.154881 -8.03801,-3.51192 -10.40967,-7.022493 -3.16116,-4.679202 -4.54451,-9.838799 -4.17544,-15.573562 0.56678,-8.80698 4.48847,-15.438906 11.14643,-18.849586 2.81906,-1.444122 4.52346,-1.809289 8.42315,-1.80466 4.1253,0.0049 6.18717,0.655032 9.59098,3.024169 l 2.26169,1.574193 0.0941,-8.957959 0.0941,-8.95796 2.62332,-1.43976 c 1.44282,-0.791869 2.71017,-1.439761 2.81632,-1.439761 0.10615,0 0.19301,13.255625 0.19301,29.456944 v 29.456944 h -1.91651 c -2.06424,0 -2.00923,0.05416 -2.50836,-2.469445 -0.13432,-0.679097 -0.31456,-1.354215 -0.40053,-1.500258 -0.20523,-0.348643 -1.18034,0.190701 -3.40824,1.885132 -1.00129,0.76153 -2.69365,1.71589 -3.76081,2.12079 -2.54651,0.966206 -7.84604,1.213337 -10.66353,0.497272 z m 11.01631,-5.099699 c 2.2757,-1.185887 3.85714,-2.464131 5.00023,-4.041584 l 0.99699,-1.375848 V 54.251791 42.994716 l -1.75836,-1.859213 c -0.96711,-1.022569 -2.67367,-2.32223 -3.79237,-2.888142 -1.86197,-0.941906 -2.34726,-1.029025 -5.73816,-1.030085 -3.27518,-10e-4 -3.93602,0.107532 -5.70623,0.937375 -3.9645,1.858486 -6.74465,5.467953 -7.86168,10.206799 -0.72087,3.058227 -0.71241,9.968756 0.0157,12.792636 1.232,4.778371 4.27807,8.612603 8.01434,10.088047 2.66207,1.051246 8.53483,0.879972 10.82957,-0.315835 z m 163.68889,5.382327 c -2.44465,-0.405052 -5.75216,-1.772779 -8.23637,-3.405925 -12.41561,-8.162131 -11.92142,-29.358832 0.87734,-37.631071 3.30814,-2.138152 4.99863,-2.561978 9.59061,-2.404478 4.40835,0.151202 6.43979,0.841781 9.66369,3.285128 4.26227,3.23031 7.45114,10.999863 7.4952,18.261755 l 0.0123,2.028472 h -15.21801 -15.21802 l 0.22719,1.932993 c 0.48709,4.144377 2.68935,8.188713 5.72027,10.504935 2.58487,1.975355 5.04161,2.789467 9.04937,2.998766 4.13083,0.215731 6.98765,-0.274591 10.24023,-1.757549 1.31216,-0.598258 2.43441,-1.02362 2.4939,-0.94525 0.0595,0.07837 0.44608,0.732878 0.85909,1.45446 l 0.75093,1.311966 -1.03264,0.735306 c -1.75164,1.247281 -5.52324,2.800896 -8.13144,3.34955 -2.2939,0.482537 -7.04576,0.628541 -9.14365,0.280942 z M 306.84711,50.1807 c -0.55961,-4.53451 -1.773,-7.63531 -3.91606,-10.007416 -2.03047,-2.247484 -3.61506,-2.891751 -7.5337,-3.06306 -3.0842,-0.134831 -3.55087,-0.06681 -5.33625,0.77781 -4.23711,2.004471 -7.66814,7.650915 -7.68395,12.645444 l -0.004,1.322917 h 12.34048 12.34047 z m 28.72165,25.373972 c -3.21534,-1.191186 -5.09497,-2.374561 -7.09943,-4.46967 -8.19265,-8.563144 -8.0326,-24.354687 0.33335,-32.889662 3.94584,-4.025567 10.02842,-6.136207 15.46494,-5.3663 2.93529,0.415688 5.2407,1.344252 7.81452,3.147505 l 2.0811,1.458043 0.0941,-9.00548 0.0941,-9.00548 1.66977,-0.949229 c 0.91838,-0.522077 2.1857,-1.254527 2.81629,-1.627667 l 1.14652,-0.678437 V 45.8304 75.492506 h -2.06847 -2.06845 l -0.44919,-2.116667 c -0.2523,-1.188918 -0.63837,-2.116667 -0.8808,-2.116667 -0.23739,0 -1.01388,0.549141 -1.72553,1.220319 -0.71165,0.671173 -2.45519,1.794248 -3.87453,2.495726 -2.4098,1.190988 -2.84697,1.28572 -6.60474,1.43117 -3.76018,0.145549 -4.20249,0.08968 -6.7436,-0.851715 z m 11.73111,-4.269045 c 2.1074,-0.800753 4.58961,-2.7472 6.01808,-4.719151 l 1.02168,-1.410387 V 54.402745 c 0,-12.294503 0.0804,-11.934303 -3.25193,-14.568357 -3.53337,-2.792968 -9.73023,-3.613226 -13.75804,-1.821106 -2.00479,0.892006 -4.95746,3.576574 -6.12503,5.568887 -1.98214,3.382264 -2.39458,5.244292 -2.41881,10.920059 -0.0197,4.611515 0.0818,5.609071 0.78971,7.761111 1.51503,4.605874 4.62679,7.959792 8.48805,9.148614 2.46208,0.758039 7.07487,0.694948 9.23629,-0.126326 z M 157.13685,54.502228 V 33.511951 h 2.82222 2.82222 v 20.990277 20.990278 h -2.82222 -2.82222 z m 23.98889,2.293056 V 38.098062 h -2.99861 -2.99861 v -2.293056 -2.293055 h 2.99861 2.99861 l 0.003,-3.263195 c 0.004,-4.387388 0.54882,-7.470517 1.69322,-9.574537 1.77584,-3.264931 5.49606,-5.090609 9.6406,-4.731069 2.11796,0.183735 5.68699,1.395564 6.96711,2.365619 l 0.8411,0.637368 -0.8411,1.226644 c -0.76337,1.113055 -0.93925,1.198203 -1.89959,0.919517 -5.804,-1.684311 -9.44541,-0.601407 -10.37365,3.084976 -0.21234,0.843272 -0.38607,3.28855 -0.38607,5.43395 v 3.900727 h 5.29167 5.29167 v 2.293055 2.293056 h -5.29167 -5.29167 v 18.697222 18.697222 h -2.82222 -2.82222 z m 66.91549,-1.288214 c -0.13227,-0.132271 -0.24049,-1.168929 -0.24049,-2.303688 v -2.0632 l 10.31875,0.09352 10.31875,0.09352 v 2.116667 2.116666 l -10.07826,0.0935 c -5.54304,0.05142 -10.18648,-0.01471 -10.31875,-0.146992 z M 158.30589,22.608408 c -1.35777,-0.846024 -1.8746,-1.73368 -1.8746,-3.219654 0,-1.438999 1.96915,-3.515692 3.33363,-3.515692 2.42924,0 4.54406,2.601305 3.72413,4.580798 -0.98909,2.387868 -3.28023,3.340256 -5.18316,2.154548 z"
         id="path27" />
      <path
         style="fill:#25528c;stroke-width:0.352778"
         d="m 372.35913,85.870053 c 0.0169,-0.410969 0.10054,-0.494559 0.21315,-0.213138 0.10192,0.25466 0.0894,0.558931 -0.0279,0.676159 -0.11723,0.117224 -0.20063,-0.09114 -0.18532,-0.463021 z m 3.637,-68.762268 c 0,-2.522362 0.0568,-3.507947 0.12488,-2.19019 0.068,1.317757 0.0676,3.381507 0,4.586111 -0.0687,1.204604 -0.12435,0.12644 -0.12375,-2.395921 z"
         id="path25" />
      <path
         style="fill:#003377;stroke-width:0.352778"
         d="m 373.00665,91.507667 c -0.42421,-0.511002 -0.49897,-7.161272 -0.49897,-44.379644 V 3.3494515 l 1.26492,-0.1060323 c 0.83415,-0.069924 1.42494,0.086801 1.73486,0.4602262 0.38552,0.4645087 0.47519,8.4389846 0.49897,44.3796426 l 0.029,43.813384 -1.26492,0.106031 c -0.86018,0.07211 -1.42455,-0.08629 -1.76389,-0.495036 z"
         id="path23" />
    </g>
  </g>
</svg>
