<?xml version="1.0" encoding="UTF-8" standalone="no"?>
<!-- Created with Inkscape (http://www.inkscape.org/) -->

<svg
   width="1000"
   height="1000"
   viewBox="0 0 264.58332 264.58334"
   version="1.1"
   id="svg5"
   inkscape:version="1.1.2 (b8e25be833, 2022-02-05)"
   sodipodi:docname="profile.svg"
   xmlns:inkscape="http://www.inkscape.org/namespaces/inkscape"
   xmlns:sodipodi="http://sodipodi.sourceforge.net/DTD/sodipodi-0.dtd"
   xmlns="http://www.w3.org/2000/svg"
   xmlns:svg="http://www.w3.org/2000/svg">
  <sodipodi:namedview
     id="namedview7"
     pagecolor="#ffffff"
     bordercolor="#666666"
     borderopacity="1.0"
     inkscape:pageshadow="2"
     inkscape:pageopacity="0.0"
     inkscape:pagecheckerboard="0"
     inkscape:document-units="mm"
     showgrid="false"
     units="px"
     inkscape:zoom="0.7198092"
     inkscape:cx="396.63288"
     inkscape:cy="482.76682"
     inkscape:window-width="1920"
     inkscape:window-height="1001"
     inkscape:window-x="-9"
     inkscape:window-y="-9"
     inkscape:window-maximized="1"
     inkscape:current-layer="layer1" />
  <defs
     id="defs2" />
  <g
     inkscape:label="Capa 1"
     inkscape:groupmode="layer"
     id="layer1">
    <g
       id="g4035"
       transform="translate(0.73514806,1.1027229)">
      <path
         style="fill:#91dde4;stroke-width:0.483439"
         d="m 129.47915,223.87139 c -2.6811,-0.10422 -10.76449,-0.95517 -13.03983,-1.37272 -10.49333,-1.92564 -23.674107,-6.99547 -30.826789,-11.85716 -1.525869,-1.03713 -2.926493,-1.8857 -3.112496,-1.8857 -0.51917,0 -8.936354,-6.57584 -10.353648,-8.08869 -3.972156,-4.23995 -5.293501,-10.87052 -3.80361,-19.08676 0.921236,-5.08033 4.374803,-13.03407 6.791012,-15.64005 0.508945,-0.54892 0.926042,-1.20157 0.926883,-1.45032 0.0015,-0.49345 6.688054,-7.0411 8.973922,-8.78773 1.874129,-1.432 6.622771,-3.87158 9.636949,-4.9509 6.165627,-2.2078 5.746797,-2.1837 37.949957,-2.1837 32.20316,0 31.78433,-0.0241 37.94996,2.1837 3.03082,1.08528 7.77783,3.52728 9.62407,4.9509 2.69687,2.07955 9.71907,9.31352 10.43788,10.75264 0.39841,0.79768 0.8713,1.56168 1.05087,1.69779 0.81687,0.61917 3.76126,7.8815 4.69002,11.56797 2.71727,10.7854 0.24432,19.11282 -7.19044,24.21311 -0.93062,0.63841 -1.90959,1.40401 -2.17548,1.70134 -0.62939,0.70379 -5.36531,4.08758 -5.72094,4.08758 -0.15047,0 -1.28992,0.68592 -2.53211,1.52427 -2.45973,1.66006 -11.77056,5.99134 -16.40233,7.63017 -2.79714,0.9897 -10.7329,3.12068 -13.36247,3.58822 -5.25308,0.93399 -14.50444,1.60066 -19.51138,1.40604 z m -5.29258,-97.1048 c -4.5561,-1.01335 -12.26973,-4.41352 -15.17543,-6.68934 -1.89662,-1.48547 -8.78005,-8.23262 -8.78005,-8.60621 0,-0.23893 -0.562543,-1.17194 -1.250099,-2.07337 -2.777952,-3.64208 -5.130419,-9.424231 -6.387684,-15.700327 -0.186428,-0.93062 -0.325403,-4.193833 -0.308835,-7.251584 0.04303,-7.941819 1.581005,-13.344496 5.852927,-20.560455 1.901581,-3.212075 8.682931,-10.861764 9.630981,-10.864211 0.2417,-6.28e-4 1.20087,-0.653286 2.13149,-1.45036 1.67237,-1.432384 2.51749,-1.899257 6.76815,-3.73897 3.82349,-1.654836 4.99207,-2.009624 9.11788,-2.768256 5.11711,-0.940908 8.57849,-0.938694 13.6712,0.0087 5.81534,1.081868 13.06403,3.941282 15.32054,6.043544 0.55468,0.516757 1.13555,0.939558 1.29084,0.939558 0.43141,0 1.45159,0.905756 5.17282,4.59267 4.79999,4.755715 7.71047,9.379934 9.86194,15.668827 1.91986,5.611856 2.63321,13.744464 1.65757,18.897058 -0.81903,4.325502 -1.04578,5.12907 -2.3872,8.460186 -2.89249,7.18276 -6.8101,12.25845 -14.29513,18.52087 -1.70709,1.42824 -10.06057,5.32941 -13.14262,6.13774 -4.5622,1.19652 -14.30655,1.42203 -18.74929,0.43389 z"
         id="path4051" />
      <path
         style="fill:#92dde3;stroke-width:0.483439"
         d="m 74.608827,166.03066 c 0,-0.10039 0.380708,-0.4811 0.846018,-0.84602 0.766764,-0.60134 0.783863,-0.58424 0.182528,0.18253 -0.631551,0.80529 -1.028546,1.06138 -1.028546,0.66349 z m 4.350951,-5.31783 c 0,-0.10039 0.380708,-0.4811 0.846018,-0.84602 0.766763,-0.60133 0.783862,-0.58423 0.182527,0.18253 -0.63155,0.80529 -1.028545,1.06138 -1.028545,0.66349 z M 161.1444,115.69382 c 0.62448,-0.66473 1.24419,-1.2086 1.37714,-1.2086 0.13294,0 -0.26922,0.54387 -0.8937,1.2086 -0.62448,0.66472 -1.2442,1.20859 -1.37714,1.20859 -0.13295,0 0.26922,-0.54387 0.8937,-1.20859 z m -61.941854,-5.43869 c -0.601335,-0.76677 -0.584236,-0.78387 0.182527,-0.18253 0.46531,0.36492 0.846017,0.74563 0.846017,0.84602 0,0.39789 -0.396994,0.1418 -1.028544,-0.66349 z m 65.809364,0.66349 c 0,-0.10039 0.38071,-0.4811 0.84602,-0.84602 0.76676,-0.60134 0.78386,-0.58424 0.18253,0.18253 -0.63155,0.80529 -1.02855,1.06138 -1.02855,0.66349 z m -4.15516,-52.63318 -0.92095,-1.087737 1.08774,0.920946 c 1.0222,0.865462 1.30782,1.254529 0.92095,1.254529 -0.0917,0 -0.58122,-0.489482 -1.08774,-1.087738 z"
         id="path4049" />
      <path
         style="fill:#b0eda6;stroke-width:0.483439"
         d="m 40.768101,49.521874 c 0,-0.100389 0.380708,-0.481097 0.846018,-0.846018 0.766761,-0.601336 0.783861,-0.584236 0.182525,0.182525 -0.63155,0.805287 -1.028543,1.06138 -1.028543,0.663493 z"
         id="path4047" />
      <path
         style="fill:#95dad1;stroke-width:0.483439"
         d="m 120.65639,147.96376 c 6.58081,-0.076 17.34941,-0.076 23.93022,0 6.58082,0.076 1.19652,0.13815 -11.96511,0.13815 -13.16162,0 -18.54593,-0.0622 -11.96511,-0.13815 z m 11.36081,-20.26242 c 0.33237,-0.13411 0.87624,-0.13411 1.2086,0 0.33236,0.13411 0.0604,0.24384 -0.6043,0.24384 -0.66473,0 -0.93666,-0.10973 -0.6043,-0.24384 z M 103.13173,58.707212 c 0,-0.100386 0.3807,-0.481095 0.84601,-0.846018 0.76677,-0.601334 0.78387,-0.584234 0.18253,0.182527 -0.63155,0.805288 -1.02854,1.06138 -1.02854,0.663491 z"
         id="path4045" />
      <path
         style="fill:#5dc863;stroke-width:0.483439"
         d="m 132.0172,46.000154 c 0.33237,-0.134112 0.87624,-0.134112 1.2086,0 0.33236,0.134112 0.0604,0.24384 -0.6043,0.24384 -0.66473,0 -0.93666,-0.109728 -0.6043,-0.24384 z"
         id="path4043" />
      <path
         style="fill:#55db52;stroke-width:0.483439"
         d="m 132.0172,224.38913 c 0.33237,-0.13412 0.87624,-0.13412 1.2086,0 0.33236,0.13411 0.0604,0.24384 -0.6043,0.24384 -0.66473,0 -0.93666,-0.10973 -0.6043,-0.24384 z m 44.11381,-11.00663 c 0,-0.13294 0.43509,-0.47458 0.96687,-0.75918 0.53179,-0.2846 0.96688,-0.40868 0.96688,-0.27574 0,0.13295 -0.43509,0.47458 -0.96688,0.75918 -0.53178,0.2846 -0.96687,0.40869 -0.96687,0.27574 z m 5.31782,-3.36637 c 0,-0.1045 0.33762,-0.31955 0.75027,-0.4779 0.43022,-0.16509 0.62428,-0.084 0.45491,0.19 -0.28391,0.45936 -1.20518,0.67944 -1.20518,0.2879 z M 77.447793,205.97604 c -0.601335,-0.76677 -0.584236,-0.78386 0.182528,-0.18253 0.46531,0.36492 0.846018,0.74563 0.846018,0.84602 0,0.39789 -0.396995,0.1418 -1.028546,-0.66349 z m -1.933755,-1.45032 c -0.601336,-0.76676 -0.584236,-0.78386 0.182527,-0.18253 0.46531,0.36493 0.846018,0.74564 0.846018,0.84602 0,0.39789 -0.396995,0.1418 -1.028545,-0.66349 z m -2.643179,-2.17547 -0.920946,-1.08774 1.087738,0.92094 c 1.022202,0.86547 1.307818,1.25453 0.920946,1.25453 -0.09174,0 -0.581219,-0.48948 -1.087738,-1.08773 z M 193.05137,201.3217 c 0,-0.10039 0.38071,-0.48109 0.84602,-0.84602 0.76676,-0.60133 0.78386,-0.58423 0.18252,0.18253 -0.63155,0.80529 -1.02854,1.06138 -1.02854,0.66349 z M 70.679648,200.17477 c -0.601335,-0.76676 -0.584236,-0.78386 0.182527,-0.18253 0.805289,0.63155 1.061381,1.02855 0.663491,1.02855 -0.100386,0 -0.481094,-0.38071 -0.846018,-0.84602 z m -3.729514,-11.23995 c 0,-0.66473 0.109731,-0.93667 0.243842,-0.6043 0.134111,0.33236 0.134111,0.87623 0,1.20859 -0.134111,0.33237 -0.243842,0.0604 -0.243842,-0.60429 z m 130.490356,-5.59984 c 0.0232,-0.56318 0.13775,-0.67773 0.29207,-0.29208 0.13965,0.34898 0.12248,0.76595 -0.0381,0.9266 -0.16064,0.16064 -0.2749,-0.1249 -0.25391,-0.63452 z M 75.575705,163.61346 c 0,-0.10038 0.380708,-0.48109 0.846018,-0.84602 0.766763,-0.60133 0.783863,-0.58423 0.182528,0.18253 -0.631551,0.80529 -1.028546,1.06138 -1.028546,0.66349 z m 113.063045,-0.66349 c -0.60133,-0.76676 -0.58424,-0.78386 0.18253,-0.18253 0.80529,0.63155 1.06138,1.02855 0.66349,1.02855 -0.10039,0 -0.4811,-0.38071 -0.84602,-0.84602 z M 81.376972,157.753 c 0.624483,-0.66473 1.244193,-1.20859 1.377139,-1.20859 0.132946,0 -0.269217,0.54386 -0.8937,1.20859 -0.624482,0.66473 -1.244193,1.2086 -1.377138,1.2086 -0.132946,0 0.269217,-0.54387 0.893699,-1.2086 z m 5.317829,-3.83349 c 0,-0.13294 0.435095,-0.47458 0.966878,-0.75918 0.531783,-0.2846 0.966878,-0.40868 0.966878,-0.27574 0,0.13295 -0.435095,0.47458 -0.966878,0.75918 -0.531783,0.2846 -0.966878,0.40869 -0.966878,0.27574 z m 90.616339,-0.54413 c -0.90114,-0.72196 -0.89521,-0.73089 0.14932,-0.22471 0.59826,0.28992 1.08774,0.62824 1.08774,0.75183 0,0.36994 -0.25072,0.26311 -1.23706,-0.52712 z m -15.77395,-5.37968 c 0.34898,-0.13965 0.76595,-0.12248 0.9266,0.0382 0.16064,0.16064 -0.1249,0.2749 -0.63452,0.25391 -0.56318,-0.0232 -0.67773,-0.13775 -0.29208,-0.29208 z m -55.08306,-29.03867 c -0.60134,-0.76677 -0.58424,-0.78386 0.18253,-0.18253 0.46531,0.36492 0.84602,0.74563 0.84602,0.84602 0,0.39789 -0.397,0.1418 -1.02855,-0.66349 z m -5.77619,-5.80127 -1.172007,-1.32946 1.329457,1.17201 c 1.24258,1.09542 1.55116,1.48691 1.17201,1.48691 -0.0866,0 -0.68485,-0.59826 -1.32946,-1.32946 z m 62.88365,0.66349 c 0,-0.10038 0.38071,-0.48109 0.84602,-0.84602 0.76676,-0.60133 0.78386,-0.58423 0.18253,0.18253 -0.63155,0.80529 -1.02855,1.06138 -1.02855,0.66349 z M 105.3072,55.989105 c 0.48126,-0.531783 0.98379,-0.966878 1.11673,-0.966878 0.13295,0 -0.15203,0.435095 -0.63329,0.966878 -0.48126,0.531783 -0.98379,0.966878 -1.11674,0.966878 -0.13294,0 0.15204,-0.435095 0.6333,-0.966878 z m 6.88095,-4.894378 c 0.32793,-0.330391 0.71802,-0.478929 0.86687,-0.330085 0.14884,0.148845 -0.11947,0.419165 -0.59624,0.600712 -0.689,0.262355 -0.74453,0.206825 -0.27063,-0.270627 z m 40.25435,0.05999 c -0.43572,-0.281584 -0.49535,-0.471588 -0.14939,-0.476036 0.31667,-0.0041 0.71022,0.210144 0.87455,0.476036 0.37094,0.600201 0.20358,0.600201 -0.72516,0 z m -23.80937,-5.154562 c 0.33236,-0.134112 0.87623,-0.134112 1.2086,0 0.33236,0.134112 0.0604,0.24384 -0.6043,0.24384 -0.66473,0 -0.93666,-0.109728 -0.6043,-0.24384 z m 6.76814,0 c 0.33237,-0.134112 0.87624,-0.134112 1.2086,0 0.33237,0.134112 0.0604,0.24384 -0.6043,0.24384 -0.66473,0 -0.93666,-0.109728 -0.6043,-0.24384 z"
         id="path4041" />
      <path
         style="fill:#46db2d;stroke-width:0.483439"
         d="M 123.8187,256.11702 C 100.04974,254.40688 77.358507,245.88131 58.209316,231.4662 8.069225,193.72176 -5.709227,124.00867 26.284826,69.941874 41.324656,44.526042 65.877659,24.736455 93.704666,15.601844 115.00033,8.6112397 137.9626,7.4626506 159.69408,12.301007 c 48.77947,10.860394 86.71602,50.891861 94.76815,100.001403 8.44088,51.48052 -15.26233,101.58235 -60.46724,127.81051 -20.43593,11.85705 -46.18818,17.73 -70.17629,16.0041 z m 19.9219,-32.43017 c 5.21895,-0.52877 13.97101,-2.51133 19.09583,-4.32568 4.63568,-1.64117 13.94387,-5.97157 16.40233,-7.63077 1.2422,-0.83835 2.38165,-1.52427 2.53212,-1.52427 0.35563,0 5.09155,-3.38379 5.72094,-4.08758 0.26589,-0.29733 1.24486,-1.06293 2.17548,-1.70134 3.23729,-2.2208 5.68354,-5.24331 6.97143,-8.61367 2.38579,-6.24355 1.40659,-15.83755 -2.47677,-24.26678 -0.91726,-1.99102 -1.81468,-3.7314 -1.99425,-3.86751 -0.17956,-0.13611 -0.65245,-0.90011 -1.05087,-1.69778 -0.7188,-1.43913 -7.741,-8.6731 -10.43787,-10.75264 -1.84624,-1.42363 -6.59325,-3.86563 -9.62407,-4.95091 -6.17071,-2.20962 -5.71452,-2.1837 -38.4334,-2.1837 -32.718881,0 -32.26269,-0.0259 -38.433395,2.1837 -3.014179,1.07932 -7.762821,3.5189 -9.63695,4.95091 -2.193004,1.67566 -8.972211,8.28502 -8.973922,8.74909 -9.67e-4,0.22751 -0.559146,1.07635 -1.240683,1.88631 -1.566202,1.86132 -4.734265,8.47709 -5.72794,11.96149 -0.897896,3.14853 -1.743223,10.75415 -1.423897,12.81113 0.731734,4.71357 2.122104,7.97235 4.489964,10.52371 1.391927,1.4998 9.816257,8.08869 10.341919,8.08869 0.186003,0 1.586627,0.84857 3.112496,1.8857 8.831366,6.0027 24.001288,11.24965 36.373308,12.58078 8.80212,0.94703 12.73772,0.94369 22.2382,-0.0189 z m -0.3213,-96.86701 c 3.08464,-0.81246 11.43981,-4.71678 13.14261,-6.14145 11.26845,-9.42784 16.28249,-18.55583 16.99599,-30.940934 0.71859,-12.473348 -3.25398,-23.072834 -11.83316,-31.572875 -3.72123,-3.686915 -4.74141,-4.59267 -5.17282,-4.59267 -0.15529,0 -0.73616,-0.422802 -1.29084,-0.939559 -0.55467,-0.516758 -2.23157,-1.518899 -3.72644,-2.22698 -8.93255,-4.23113 -17.34972,-5.458563 -26.23218,-3.825304 -4.12581,0.758632 -5.29438,1.11342 -9.11788,2.768256 -4.25066,1.839713 -5.09578,2.306586 -6.76815,3.73897 -0.93062,0.797074 -1.88979,1.449736 -2.13149,1.45036 -0.2417,6.29e-4 -2.05488,1.680692 -4.02928,3.733486 -5.204134,5.41075 -8.598552,11.451455 -10.57763,18.823962 -1.11277,4.14532 -1.264241,15.661382 -0.25016,19.019436 2.067905,6.847702 3.828846,10.828682 6.116846,13.828402 0.661615,0.86742 1.202936,1.77261 1.202936,2.01154 0,0.37359 6.883428,7.12073 8.780048,8.60621 2.90697,2.27682 10.62104,5.67671 15.17544,6.6884 4.52779,1.00579 15.14552,0.77463 19.71616,-0.42925 z"
         id="path4039" />
      <path
         style="fill:#47c532;stroke-width:0.483439"
         d="m 126.24615,256.28603 c 0.34898,-0.13966 0.76595,-0.12248 0.92659,0.0381 0.16064,0.16064 -0.12489,0.2749 -0.63451,0.25391 -0.56318,-0.0232 -0.67773,-0.13775 -0.29208,-0.29207 z m 12.08597,0 c 0.34898,-0.13966 0.76595,-0.12248 0.9266,0.0381 0.16064,0.16064 -0.1249,0.2749 -0.63452,0.25391 -0.56318,-0.0232 -0.67773,-0.13775 -0.29208,-0.29207 z M 8.8992969,138.8586 c 0.023197,-0.56318 0.1377513,-0.67773 0.2920777,-0.29208 0.1396513,0.34898 0.1224765,0.76595 -0.038166,0.92659 -0.1606428,0.16064 -0.2749029,-0.12489 -0.2539117,-0.63451 z m 247.0373031,0 c 0.0232,-0.56318 0.13775,-0.67773 0.29207,-0.29208 0.13965,0.34898 0.12248,0.76595 -0.0381,0.92659 -0.16064,0.16064 -0.2749,-0.12489 -0.25391,-0.63451 z M 8.8992969,126.77263 c 0.023197,-0.56319 0.1377513,-0.67774 0.2920777,-0.29208 0.1396513,0.34898 0.1224765,0.76594 -0.038166,0.92659 -0.1606428,0.16064 -0.2749029,-0.12489 -0.2539117,-0.63451 z m 247.0373031,0 c 0.0232,-0.56319 0.13775,-0.67774 0.29207,-0.29208 0.13965,0.34898 0.12248,0.76594 -0.0381,0.92659 -0.16064,0.16064 -0.2749,-0.12489 -0.25391,-0.63451 z M 126.24615,9.2487226 c 0.34898,-0.1396513 0.76595,-0.1224765 0.92659,0.038166 0.16064,0.1606427 -0.12489,0.2749029 -0.63451,0.2539114 -0.56318,-0.023197 -0.67773,-0.1377512 -0.29208,-0.2920774 z m 12.08597,0 c 0.34898,-0.1396513 0.76595,-0.1224765 0.9266,0.038166 0.16064,0.1606427 -0.1249,0.2749029 -0.63452,0.2539114 -0.56318,-0.023197 -0.67773,-0.1377512 -0.29208,-0.2920774 z"
         id="path4037" />
    </g>
  </g>
</svg>
